Foldit-Regular.ufo
<glyph name="exclam.color0" format="2">
  <advance width="600"/>
  <unicode hex="0021"/>
  <outline>
    <contour>
      <point x="52" y="160" type="line"/>
      <point x="139" y="160" type="line"/>
      <point x="139" y="714" type="line"/>
      <point x="138" y="714" type="line"/>
      <point x="52" y="663" type="line"/>
    </contour>
  </outline>
</glyph>
<glyph name="exclam.color1" format="2">
  <advance width="600"/>
  <unicode hex="0021"/>
  <outline>
    <contour>
      <point x="47" y="0" type="line"/>
      <point x="146" y="0" type="line"/>
      <point x="146" y="84" type="line"/>
      <point x="47" y="84" type="line"/>
    </contour>
  </outline>
</glyph>
<glyph name="exclam" format="2">
  <advance width="194"/>
  <unicode hex="0021"/>
  <outline>
    <contour>
      <point x="52" y="160" type="line"/>
      <point x="139" y="160" type="line"/>
      <point x="139" y="714" type="line"/>
      <point x="138" y="714" type="line"/>
      <point x="52" y="663" type="line"/>
    </contour>
    <component base="period" xOffset="14"/>
  </outline>
</glyph>
<glyph name="quotedbl.color0" format="2">
  <advance width="600"/>
  <unicode hex="0022"/>
  <outline>
    <contour>
      <point x="33" y="640" type="line"/>
      <point x="142" y="640" type="line"/>
      <point x="91" y="732" type="line"/>
      <point x="33" y="732" type="line"/>
    </contour>
  </outline>
</glyph>
<glyph name="quotedbl" format="2">
  <advance width="295"/>
  <unicode hex="0022"/>
  <outline>
    <contour>
      <point x="33" y="640" type="line"/>
      <point x="142" y="640" type="line"/>
      <point x="91" y="732" type="line"/>
      <point x="33" y="732" type="line"/>
    </contour>
    <contour>
      <point x="48" y="520" type="line"/>
      <point x="48" y="520" type="line"/>
      <point x="105" y="520" type="line"/>
      <point x="142" y="640" type="line"/>
      <point x="68" y="640" type="line"/>
    </contour>
    <contour>
      <point x="152" y="640" type="line"/>
      <point x="261" y="640" type="line"/>
      <point x="210" y="732" type="line"/>
      <point x="152" y="732" type="line"/>
    </contour>
    <contour>
      <point x="167" y="520" type="line"/>
      <point x="167" y="520" type="line"/>
      <point x="224" y="520" type="line"/>
      <point x="261" y="640" type="line"/>
      <point x="187" y="640" type="line"/>
    </contour>
  </outline>
</glyph>
<glyph name="numbersign.color0" format="2">
  <advance width="600"/>
  <unicode hex="0023"/>
  <outline>
    <contour>
      <point x="227" y="0" type="line"/>
      <point x="310" y="0" type="line"/>
      <point x="465" y="709" type="line"/>
      <point x="465" y="710" type="line"/>
      <point x="382" y="710" type="line"/>
      <point x="227" y="1" type="line"/>
    </contour>
  </outline>
</glyph>
<glyph name="numbersign.color1" format="2">
  <advance width="600"/>
  <unicode hex="0023"/>
  <outline>
    <contour>
      <point x="22" y="178" type="line"/>
      <point x="422" y="178" type="line"/>
      <point x="447" y="255" type="line"/>
      <point x="447" y="256" type="line"/>
      <point x="47" y="256" type="line"/>
      <point x="22" y="179" type="line"/>
    </contour>
  </outline>
</glyph>
<glyph name="numbersign.color2" format="2">
  <advance width="600"/>
  <unicode hex="0023"/>
  <outline>
    <contour>
      <point x="60" y="0" type="line"/>
      <point x="144" y="0" type="line"/>
      <point x="298" y="709" type="line"/>
      <point x="298" y="710" type="line"/>
      <point x="214" y="710" type="line"/>
      <point x="60" y="1" type="line"/>
    </contour>
  </outline>
</glyph>
<glyph name="numbersign.color3" format="2">
  <advance width="600"/>
  <unicode hex="0023"/>
  <outline>
    <contour>
      <point x="78" y="477" type="line"/>
      <point x="478" y="477" type="line"/>
      <point x="504" y="553" type="line"/>
      <point x="504" y="554" type="line"/>
      <point x="104" y="554" type="line"/>
      <point x="78" y="478" type="line"/>
    </contour>
  </outline>
</glyph>
<glyph name="numbersign" format="2">
  <advance width="532"/>
  <unicode hex="0023"/>
  <outline>
    <contour>
      <point x="227" y="0" type="line"/>
      <point x="310" y="0" type="line"/>
      <point x="465" y="709" type="line"/>
      <point x="465" y="710" type="line"/>
      <point x="382" y="710" type="line"/>
      <point x="227" y="1" type="line"/>
    </contour>
    <contour>
      <point x="22" y="178" type="line"/>
      <point x="422" y="178" type="line"/>
      <point x="447" y="255" type="line"/>
      <point x="447" y="256" type="line"/>
      <point x="47" y="256" type="line"/>
      <point x="22" y="179" type="line"/>
    </contour>
    <contour>
      <point x="60" y="0" type="line"/>
      <point x="144" y="0" type="line"/>
      <point x="298" y="709" type="line"/>
      <point x="298" y="710" type="line"/>
      <point x="214" y="710" type="line"/>
      <point x="60" y="1" type="line"/>
    </contour>
    <contour>
      <point x="78" y="477" type="line"/>
      <point x="478" y="477" type="line"/>
      <point x="504" y="553" type="line"/>
      <point x="504" y="554" type="line"/>
      <point x="104" y="554" type="line"/>
      <point x="78" y="478" type="line"/>
    </contour>
  </outline>
</glyph>
<glyph name="dollar.color0" format="2">
  <advance width="600"/>
  <unicode hex="0024"/>
  <outline>
    <contour>
      <point x="131" y="626" type="line"/>
      <point x="398" y="626" type="line"/>
      <point x="398" y="627" type="line"/>
      <point x="315" y="710" type="line"/>
      <point x="131" y="710" type="line"/>
    </contour>
  </outline>
</glyph>
<glyph name="dollar.color2" format="2">
  <advance width="600"/>
  <unicode hex="0024"/>
  <outline>
    <contour>
      <point x="178" y="-52" type="line"/>
      <point x="179" y="-52" type="line"/>
      <point x="265" y="-29" type="line"/>
      <point x="263" y="766" type="line"/>
      <point x="262" y="766" type="line"/>
      <point x="177" y="743" type="line"/>
    </contour>
  </outline>
</glyph>
<glyph name="dollar.color3" format="2">
  <advance width="600"/>
  <unicode hex="0024"/>
  <outline>
    <contour>
      <point x="126" y="323" type="line"/>
      <point x="310" y="323" type="line"/>
      <point x="310" y="407" type="line"/>
      <point x="43" y="407" type="line"/>
      <point x="43" y="406" type="line"/>
    </contour>
  </outline>
</glyph>
<glyph name="dollar.color4" format="2">
  <advance width="600"/>
  <unicode hex="0024"/>
  <outline>
    <contour>
      <point x="43" y="407" type="line"/>
      <point x="131" y="407" type="line"/>
      <point x="131" y="710" type="line"/>
      <point x="130" y="710" type="line"/>
      <point x="43" y="625" type="line"/>
    </contour>
  </outline>
</glyph>
<glyph name="dollar.color5" format="2">
  <advance width="600"/>
  <unicode hex="0024"/>
  <outline>
    <contour>
      <point x="310" y="0" type="line"/>
      <point x="311" y="0" type="line"/>
      <point x="398" y="80" type="line"/>
      <point x="398" y="325" type="line"/>
      <point x="311" y="407" type="line"/>
      <point x="310" y="407" type="line"/>
    </contour>
  </outline>
</glyph>
<glyph name="dollar" format="2">
  <advance width="441"/>
  <unicode hex="0024"/>
  <outline>
    <contour>
      <point x="131" y="626" type="line"/>
      <point x="398" y="626" type="line"/>
      <point x="398" y="627" type="line"/>
      <point x="315" y="710" type="line"/>
      <point x="131" y="710" type="line"/>
    </contour>
    <contour>
      <point x="126" y="0" type="line"/>
      <point x="310" y="0" type="line"/>
      <point x="310" y="84" type="line"/>
      <point x="43" y="84" type="line"/>
      <point x="43" y="83" type="line"/>
    </contour>
    <contour>
      <point x="178" y="-52" type="line"/>
      <point x="179" y="-52" type="line"/>
      <point x="265" y="-29" type="line"/>
      <point x="263" y="766" type="line"/>
      <point x="262" y="766" type="line"/>
      <point x="177" y="743" type="line"/>
    </contour>
    <contour>
      <point x="126" y="323" type="line"/>
      <point x="310" y="323" type="line"/>
      <point x="310" y="407" type="line"/>
      <point x="43" y="407" type="line"/>
      <point x="43" y="406" type="line"/>
    </contour>
    <contour>
      <point x="43" y="407" type="line"/>
      <point x="131" y="407" type="line"/>
      <point x="131" y="710" type="line"/>
      <point x="130" y="710" type="line"/>
      <point x="43" y="625" type="line"/>
    </contour>
    <contour>
      <point x="310" y="0" type="line"/>
      <point x="311" y="0" type="line"/>
      <point x="398" y="80" type="line"/>
      <point x="398" y="325" type="line"/>
      <point x="311" y="407" type="line"/>
      <point x="310" y="407" type="line"/>
    </contour>
  </outline>
</glyph>
<glyph name="percent.color0" format="2">
  <advance width="600"/>
  <unicode hex="0025"/>
  <outline>
    <contour>
      <point x="195" y="0" type="line"/>
      <point x="288" y="0" type="line"/>
      <point x="649" y="709" type="line"/>
      <point x="649" y="710" type="line"/>
      <point x="556" y="710" type="line"/>
      <point x="195" y="1" type="line"/>
    </contour>
  </outline>
</glyph>
<glyph name="percent.color1" format="2">
  <advance width="600"/>
  <unicode hex="0025"/>
  <outline>
    <contour>
      <point x="94" y="346" type="line"/>
      <point x="254" y="346" type="line"/>
      <point x="254" y="430" type="line"/>
      <point x="43" y="430" type="line"/>
      <point x="43" y="429" type="line"/>
    </contour>
  </outline>
</glyph>
<glyph name="percent.color2" format="2">
  <advance width="600"/>
  <unicode hex="0025"/>
  <outline>
    <contour>
      <point x="43" y="430" type="line"/>
      <point x="131" y="430" type="line"/>
      <point x="131" y="690" type="line"/>
      <point x="130" y="690" type="line"/>
      <point x="43" y="639" type="line"/>
    </contour>
  </outline>
</glyph>
<glyph name="percent.color3" format="2">
  <advance width="600"/>
  <unicode hex="0025"/>
  <outline>
    <contour>
      <point x="254" y="346" type="line"/>
      <point x="255" y="346" type="line"/>
      <point x="341" y="397" type="line"/>
      <point x="341" y="606" type="line"/>
      <point x="254" y="606" type="line"/>
    </contour>
  </outline>
</glyph>
<glyph name="percent.color4" format="2">
  <advance width="600"/>
  <unicode hex="0025"/>
  <outline>
    <contour>
      <point x="131" y="606" type="line"/>
      <point x="341" y="606" type="line"/>
      <point x="341" y="607" type="line"/>
      <point x="290" y="690" type="line"/>
      <point x="131" y="690" type="line"/>
    </contour>
  </outline>
</glyph>
<glyph name="percent.color5" format="2">
  <advance width="600"/>
  <unicode hex="0025"/>
  <outline>
    <contour>
      <point x="546" y="14" type="line"/>
      <point x="705" y="14" type="line"/>
      <point x="705" y="98" type="line"/>
      <point x="495" y="98" type="line"/>
      <point x="495" y="97" type="line"/>
    </contour>
  </outline>
</glyph>
<glyph name="percent.color6" format="2">
  <advance width="600"/>
  <unicode hex="0025"/>
  <outline>
    <contour>
      <point x="495" y="98" type="line"/>
      <point x="581" y="98" type="line"/>
      <point x="581" y="356" type="line"/>
      <point x="580" y="356" type="line"/>
      <point x="495" y="305" type="line"/>
    </contour>
  </outline>
</glyph>
<glyph name="percent.color7" format="2">
  <advance width="600"/>
  <unicode hex="0025"/>
  <outline>
    <contour>
      <point x="705" y="14" type="line"/>
      <point x="706" y="14" type="line"/>
      <point x="792" y="65" type="line"/>
      <point x="792" y="272" type="line"/>
      <point x="705" y="272" type="line"/>
    </contour>
  </outline>
</glyph>
<glyph name="percent.color8" format="2">
  <advance width="600"/>
  <unicode hex="0025"/>
  <outline>
    <contour>
      <point x="581" y="272" type="line"/>
      <point x="792" y="272" type="line"/>
      <point x="792" y="273" type="line"/>
      <point x="741" y="356" type="line"/>
      <point x="581" y="356" type="line"/>
    </contour>
  </outline>
</glyph>
<glyph name="percent" format="2">
  <advance width="835.66667"/>
  <unicode hex="0025"/>
  <outline>
    <contour>
      <point x="195" y="0" type="line"/>
      <point x="288" y="0" type="line"/>
      <point x="649" y="709" type="line"/>
      <point x="649" y="710" type="line"/>
      <point x="556" y="710" type="line"/>
      <point x="195" y="1" type="line"/>
    </contour>
    <contour>
      <point x="94" y="346" type="line"/>
      <point x="254" y="346" type="line"/>
      <point x="254" y="430" type="line"/>
      <point x="43" y="430" type="line"/>
      <point x="43" y="429" type="line"/>
    </contour>
    <contour>
      <point x="43" y="430" type="line"/>
      <point x="131" y="430" type="line"/>
      <point x="131" y="690" type="line"/>
      <point x="130" y="690" type="line"/>
      <point x="43" y="639" type="line"/>
    </contour>
    <contour>
      <point x="254" y="346" type="line"/>
      <point x="255" y="346" type="line"/>
      <point x="341" y="397" type="line"/>
      <point x="341" y="606" type="line"/>
      <point x="254" y="606" type="line"/>
    </contour>
    <contour>
      <point x="131" y="606" type="line"/>
      <point x="341" y="606" type="line"/>
      <point x="341" y="607" type="line"/>
      <point x="290" y="690" type="line"/>
      <point x="131" y="690" type="line"/>
    </contour>
    <contour>
      <point x="546" y="14" type="line"/>
      <point x="705" y="14" type="line"/>
      <point x="705" y="98" type="line"/>
      <point x="495" y="98" type="line"/>
      <point x="495" y="97" type="line"/>
    </contour>
    <contour>
      <point x="495" y="98" type="line"/>
      <point x="581" y="98" type="line"/>
      <point x="581" y="356" type="line"/>
      <point x="580" y="356" type="line"/>
      <point x="495" y="305" type="line"/>
    </contour>
    <contour>
      <point x="705" y="14" type="line"/>
      <point x="706" y="14" type="line"/>
      <point x="792" y="65" type="line"/>
      <point x="792" y="272" type="line"/>
      <point x="705" y="272" type="line"/>
    </contour>
    <contour>
      <point x="581" y="272" type="line"/>
      <point x="792" y="272" type="line"/>
      <point x="792" y="273" type="line"/>
      <point x="741" y="356" type="line"/>
      <point x="581" y="356" type="line"/>
    </contour>
  </outline>
</glyph>
<glyph name="ampersand.color0" format="2">
  <advance width="600"/>
  <unicode hex="0026"/>
  <outline>
    <contour>
      <point x="184" y="606" type="line"/>
      <point x="332" y="606" type="line"/>
      <point x="332" y="690" type="line"/>
      <point x="184" y="690" type="line"/>
    </contour>
  </outline>
</glyph>
<glyph name="ampersand.color2" format="2">
  <advance width="600"/>
  <unicode hex="0026"/>
  <outline>
    <contour>
      <point x="471" y="0" type="line"/>
      <point x="474" y="0" type="line"/>
      <point x="577" y="5" type="line"/>
      <point x="577" y="6" type="line"/>
      <point x="367" y="387" type="line"/>
      <point x="275" y="387" type="line"/>
      <point x="260" y="387" type="line"/>
    </contour>
  </outline>
</glyph>
<glyph name="ampersand.color3" format="2">
  <advance width="600"/>
  <unicode hex="0026"/>
  <outline>
    <contour>
      <point x="117" y="0" type="line"/>
      <point x="355" y="0" type="line"/>
      <point x="338" y="84" type="line"/>
      <point x="117" y="84" type="line"/>
    </contour>
  </outline>
</glyph>
<glyph name="ampersand.color4" format="2">
  <advance width="600"/>
  <unicode hex="0026"/>
  <outline>
    <contour>
      <point x="117" y="323" type="line"/>
      <point x="332" y="323" type="line"/>
      <point x="332" y="407" type="line"/>
      <point x="117" y="407" type="line"/>
    </contour>
  </outline>
</glyph>
<glyph name="ampersand.color6" format="2">
  <advance width="600"/>
  <unicode hex="0026"/>
  <outline>
    <contour>
      <point x="355" y="0" type="line"/>
      <point x="356" y="0" type="line"/>
      <point x="447" y="96" type="line"/>
      <point x="582" y="377" type="line"/>
      <point x="582" y="378" type="line"/>
      <point x="485" y="386" type="line"/>
      <point x="338" y="84" type="line"/>
    </contour>
  </outline>
</glyph>
<glyph name="ampersand.color7" format="2">
  <advance width="600"/>
  <unicode hex="0026"/>
  <outline>
    <contour>
      <point x="332" y="323" type="line"/>
      <point x="333" y="323" type="line"/>
      <point x="398" y="407" type="line"/>
      <point x="398" y="633" type="line"/>
      <point x="333" y="690" type="line"/>
      <point x="332" y="690" type="line"/>
    </contour>
  </outline>
</glyph>
<glyph name="ampersand" format="2">
  <advance width="616"/>
  <unicode hex="0026"/>
  <outline>
    <contour>
      <point x="184" y="606" type="line"/>
      <point x="332" y="606" type="line"/>
      <point x="332" y="690" type="line"/>
      <point x="184" y="690" type="line"/>
    </contour>
    <contour>
      <point x="116" y="407" type="line"/>
      <point x="184" y="407" type="line"/>
      <point x="184" y="690" type="line"/>
      <point x="183" y="690" type="line"/>
      <point x="116" y="633" type="line"/>
    </contour>
    <contour>
      <point x="471" y="0" type="line"/>
      <point x="474" y="0" type="line"/>
      <point x="577" y="5" type="line"/>
      <point x="577" y="6" type="line"/>
      <point x="367" y="387" type="line"/>
      <point x="275" y="387" type="line"/>
      <point x="260" y="387" type="line"/>
    </contour>
    <contour>
      <point x="117" y="0" type="line"/>
      <point x="355" y="0" type="line"/>
      <point x="338" y="84" type="line"/>
      <point x="117" y="84" type="line"/>
    </contour>
    <contour>
      <point x="117" y="323" type="line"/>
      <point x="332" y="323" type="line"/>
      <point x="332" y="407" type="line"/>
      <point x="117" y="407" type="line"/>
    </contour>
    <contour>
      <point x="116" y="0" type="line"/>
      <point x="117" y="0" type="line"/>
      <point x="117" y="407" type="line"/>
      <point x="116" y="407" type="line"/>
      <point x="37" y="325" type="line"/>
      <point x="37" y="70" type="line"/>
    </contour>
    <contour>
      <point x="355" y="0" type="line"/>
      <point x="356" y="0" type="line"/>
      <point x="447" y="96" type="line"/>
      <point x="582" y="377" type="line"/>
      <point x="582" y="378" type="line"/>
      <point x="485" y="386" type="line"/>
      <point x="338" y="84" type="line"/>
    </contour>
    <contour>
      <point x="332" y="323" type="line"/>
      <point x="333" y="323" type="line"/>
      <point x="398" y="407" type="line"/>
      <point x="398" y="633" type="line"/>
      <point x="333" y="690" type="line"/>
      <point x="332" y="690" type="line"/>
    </contour>
  </outline>
</glyph>
<glyph name="quotesingle.color1" format="2">
  <advance width="600"/>
  <unicode hex="0027"/>
  <outline>
    <contour>
      <point x="48" y="520" type="line"/>
      <point x="48" y="520" type="line"/>
      <point x="105" y="520" type="line"/>
      <point x="142" y="640" type="line"/>
      <point x="68" y="640" type="line"/>
    </contour>
  </outline>
</glyph>
<glyph name="parenleft.color0" format="2">
  <advance width="600"/>
  <unicode hex="0028"/>
  <outline>
    <contour>
      <point x="135" y="-2" type="line"/>
      <point x="135" y="690" type="line"/>
      <point x="134" y="690" type="line"/>
      <point x="47" y="616" type="line"/>
      <point x="47" y="4" type="line"/>
    </contour>
  </outline>
</glyph>
<glyph name="parenleft.color1" format="2">
  <advance width="600"/>
  <unicode hex="0028"/>
  <outline>
    <contour>
      <point x="115" y="-70" type="line"/>
      <point x="281" y="-100" type="line"/>
      <point x="281" y="-16" type="line"/>
      <point x="47" y="14" type="line"/>
      <point x="47" y="3" type="line"/>
    </contour>
  </outline>
</glyph>
<glyph name="parenleft.color2" format="2">
  <advance width="600"/>
  <unicode hex="0028"/>
  <outline>
    <contour>
      <point x="135" y="606" type="line"/>
      <point x="281" y="626" type="line"/>
      <point x="281" y="710" type="line"/>
      <point x="135" y="690" type="line"/>
    </contour>
  </outline>
</glyph>
<glyph name="parenleft" format="2">
  <advance width="293"/>
  <unicode hex="0028"/>
  <outline>
    <contour>
      <point x="135" y="-2" type="line"/>
      <point x="135" y="690" type="line"/>
      <point x="134" y="690" type="line"/>
      <point x="47" y="616" type="line"/>
      <point x="47" y="4" type="line"/>
    </contour>
    <contour>
      <point x="115" y="-70" type="line"/>
      <point x="281" y="-100" type="line"/>
      <point x="281" y="-16" type="line"/>
      <point x="47" y="14" type="line"/>
      <point x="47" y="3" type="line"/>
    </contour>
    <contour>
      <point x="135" y="606" type="line"/>
      <point x="281" y="626" type="line"/>
      <point x="281" y="710" type="line"/>
      <point x="135" y="690" type="line"/>
    </contour>
  </outline>
</glyph>
<glyph name="parenright.color0" format="2">
  <advance width="600"/>
  <unicode hex="0029"/>
  <outline>
    <contour>
      <point x="172" y="-80" type="line"/>
      <point x="173" y="-80" type="line"/>
      <point x="260" y="-6" type="line"/>
      <point x="260" y="606" type="line"/>
      <point x="172" y="612" type="line"/>
    </contour>
  </outline>
</glyph>
<glyph name="parenright.color1" format="2">
  <advance width="600"/>
  <unicode hex="0029"/>
  <outline>
    <contour>
      <point x="25" y="-100" type="line"/>
      <point x="172" y="-80" type="line"/>
      <point x="172" y="4" type="line"/>
      <point x="25" y="-16" type="line"/>
    </contour>
  </outline>
</glyph>
<glyph name="parenright.color2" format="2">
  <advance width="600"/>
  <unicode hex="0029"/>
  <outline>
    <contour>
      <point x="25" y="626" type="line"/>
      <point x="260" y="596" type="line"/>
      <point x="260" y="607" type="line"/>
      <point x="192" y="680" type="line"/>
      <point x="25" y="710" type="line"/>
    </contour>
  </outline>
</glyph>
<glyph name="parenright" format="2">
  <advance width="306.33333"/>
  <unicode hex="0029"/>
  <outline>
    <contour>
      <point x="172" y="-80" type="line"/>
      <point x="173" y="-80" type="line"/>
      <point x="260" y="-6" type="line"/>
      <point x="260" y="606" type="line"/>
      <point x="172" y="612" type="line"/>
    </contour>
    <contour>
      <point x="25" y="-100" type="line"/>
      <point x="172" y="-80" type="line"/>
      <point x="172" y="4" type="line"/>
      <point x="25" y="-16" type="line"/>
    </contour>
    <contour>
      <point x="25" y="626" type="line"/>
      <point x="260" y="596" type="line"/>
      <point x="260" y="607" type="line"/>
      <point x="192" y="680" type="line"/>
      <point x="25" y="710" type="line"/>
    </contour>
  </outline>
</glyph>
<glyph name="asterisk.color0" format="2">
  <advance width="600"/>
  <unicode hex="002A"/>
  <outline>
    <contour>
      <point x="73" y="475" type="line"/>
      <point x="119" y="475" type="line"/>
      <point x="119" y="477" type="line"/>
      <point x="137" y="537" type="line"/>
      <point x="31" y="627" type="line"/>
    </contour>
  </outline>
</glyph>
<glyph name="asterisk.color1" format="2">
  <advance width="600"/>
  <unicode hex="002A"/>
  <outline>
    <contour>
      <point x="137" y="537" type="line"/>
      <point x="149" y="730" type="line"/>
      <point x="148" y="730" type="line"/>
      <point x="31" y="628" type="line"/>
      <point x="31" y="627" type="line"/>
    </contour>
  </outline>
</glyph>
<glyph name="asterisk.color2" format="2">
  <advance width="600"/>
  <unicode hex="002A"/>
  <outline>
    <contour>
      <point x="119" y="475" type="line"/>
      <point x="223" y="475" type="line"/>
      <point x="265" y="627" type="line"/>
      <point x="265" y="628" type="line"/>
      <point x="150" y="730" type="line"/>
      <point x="149" y="730" type="line"/>
      <point x="119" y="477" type="line"/>
    </contour>
  </outline>
</glyph>
<glyph name="asterisk" format="2">
  <advance width="306"/>
  <unicode hex="002A"/>
  <outline>
    <contour>
      <point x="73" y="475" type="line"/>
      <point x="119" y="475" type="line"/>
      <point x="119" y="477" type="line"/>
      <point x="137" y="537" type="line"/>
      <point x="31" y="627" type="line"/>
    </contour>
    <contour>
      <point x="137" y="537" type="line"/>
      <point x="149" y="730" type="line"/>
      <point x="148" y="730" type="line"/>
      <point x="31" y="628" type="line"/>
      <point x="31" y="627" type="line"/>
    </contour>
    <contour>
      <point x="119" y="475" type="line"/>
      <point x="223" y="475" type="line"/>
      <point x="265" y="627" type="line"/>
      <point x="265" y="628" type="line"/>
      <point x="150" y="730" type="line"/>
      <point x="149" y="730" type="line"/>
      <point x="119" y="477" type="line"/>
    </contour>
  </outline>
</glyph>
<glyph name="plus.color0" format="2">
  <advance width="600"/>
  <unicode hex="002B"/>
  <outline>
    <contour>
      <point x="44" y="311" type="line"/>
      <point x="159" y="311" type="line"/>
      <point x="159" y="395" type="line"/>
      <point x="43" y="395" type="line"/>
    </contour>
  </outline>
</glyph>
<glyph name="plus.color1" format="2">
  <advance width="600"/>
  <unicode hex="002B"/>
  <outline>
    <contour>
      <point x="159" y="183" type="line"/>
      <point x="243" y="183" type="line"/>
      <point x="243" y="311" type="line"/>
      <point x="159" y="311" type="line"/>
    </contour>
  </outline>
</glyph>
<glyph name="plus.color2" format="2">
  <advance width="600"/>
  <unicode hex="002B"/>
  <outline>
    <contour>
      <point x="159" y="311" type="line"/>
      <point x="160" y="311" type="line"/>
      <point x="243" y="395" type="line"/>
      <point x="243" y="521" type="line"/>
      <point x="159" y="521" type="line"/>
    </contour>
  </outline>
</glyph>
<glyph name="plus" format="2">
  <advance width="402.66667"/>
  <unicode hex="002B"/>
  <outline>
    <contour>
      <point x="44" y="311" type="line"/>
      <point x="159" y="311" type="line"/>
      <point x="159" y="395" type="line"/>
      <point x="43" y="395" type="line"/>
    </contour>
    <contour>
      <point x="159" y="183" type="line"/>
      <point x="243" y="183" type="line"/>
      <point x="243" y="311" type="line"/>
      <point x="159" y="311" type="line"/>
    </contour>
    <contour>
      <point x="159" y="311" type="line"/>
      <point x="160" y="311" type="line"/>
      <point x="243" y="395" type="line"/>
      <point x="243" y="521" type="line"/>
      <point x="159" y="521" type="line"/>
    </contour>
    <contour>
      <point x="160" y="311" type="line"/>
      <point x="359" y="311" type="line"/>
      <point x="359" y="395" type="line"/>
      <point x="243" y="395" type="line"/>
    </contour>
  </outline>
</glyph>
<glyph name="comma.color0" format="2">
  <advance width="600"/>
  <unicode hex="002C"/>
  <outline>
    <contour>
      <point x="33" y="34" type="line"/>
      <point x="135" y="34" type="line"/>
      <point x="84" y="118" type="line"/>
      <point x="33" y="118" type="line"/>
    </contour>
  </outline>
</glyph>
<glyph name="comma.color1" format="2">
  <advance width="600"/>
  <unicode hex="002C"/>
  <outline>
    <contour>
      <point x="61" y="-94" type="line"/>
      <point x="62" y="-94" type="line"/>
      <point x="135" y="-43" type="line"/>
      <point x="135" y="34" type="line"/>
      <point x="61" y="34" type="line"/>
    </contour>
  </outline>
</glyph>
<glyph name="comma" format="2">
  <advance width="168.66667"/>
  <unicode hex="002C"/>
  <outline>
    <contour>
      <point x="33" y="34" type="line"/>
      <point x="135" y="34" type="line"/>
      <point x="84" y="118" type="line"/>
      <point x="33" y="118" type="line"/>
    </contour>
    <contour>
      <point x="61" y="-94" type="line"/>
      <point x="62" y="-94" type="line"/>
      <point x="135" y="-43" type="line"/>
      <point x="135" y="34" type="line"/>
      <point x="61" y="34" type="line"/>
    </contour>
  </outline>
</glyph>
<glyph name="hyphen" format="2">
  <advance width="264"/>
  <unicode hex="002D"/>
  <outline>
    <contour>
      <point x="47" y="303" type="line"/>
      <point x="217" y="303" type="line"/>
      <point x="217" y="393" type="line"/>
      <point x="47" y="393" type="line"/>
    </contour>
  </outline>
</glyph>
<glyph name="period" format="2">
  <advance width="165.33333"/>
  <unicode hex="002E"/>
  <outline>
    <contour>
      <point x="33" y="0" type="line"/>
      <point x="132" y="0" type="line"/>
      <point x="132" y="84" type="line"/>
      <point x="33" y="84" type="line"/>
    </contour>
  </outline>
</glyph>
<glyph name="slash" format="2">
  <advance width="321.33333"/>
  <unicode hex="002F"/>
  <outline>
    <contour>
      <point x="0" y="-100" type="line"/>
      <point x="93" y="-100" type="line"/>
      <point x="322" y="793" type="line"/>
      <point x="322" y="794" type="line"/>
      <point x="228" y="794" type="line"/>
      <point x="0" y="-99" type="line"/>
    </contour>
  </outline>
</glyph>
<glyph name="zero.color0" format="2">
  <advance width="600"/>
  <unicode hex="0030"/>
  <outline>
    <contour>
      <point x="273" y="84" type="line"/>
      <point x="366" y="84" type="line"/>
      <point x="366" y="85" type="line"/>
      <point x="189" y="610" type="line"/>
      <point x="96" y="610" type="line"/>
    </contour>
  </outline>
</glyph>
<glyph name="zero.color1" format="2">
  <advance width="600"/>
  <unicode hex="0030"/>
  <outline>
    <contour>
      <point x="130" y="0" type="line"/>
      <point x="325" y="0" type="line"/>
      <point x="325" y="84" type="line"/>
      <point x="47" y="84" type="line"/>
      <point x="47" y="83" type="line"/>
    </contour>
  </outline>
</glyph>
<glyph name="zero.color2" format="2">
  <advance width="600"/>
  <unicode hex="0030"/>
  <outline>
    <contour>
      <point x="47" y="84" type="line"/>
      <point x="135" y="84" type="line"/>
      <point x="135" y="690" type="line"/>
      <point x="134" y="690" type="line"/>
      <point x="47" y="605" type="line"/>
    </contour>
  </outline>
</glyph>
<glyph name="zero.color3" format="2">
  <advance width="600"/>
  <unicode hex="0030"/>
  <outline>
    <contour>
      <point x="325" y="0" type="line"/>
      <point x="326" y="0" type="line"/>
      <point x="413" y="81" type="line"/>
      <point x="413" y="606" type="line"/>
      <point x="325" y="606" type="line"/>
    </contour>
  </outline>
</glyph>
<glyph name="zero" format="2">
  <advance width="460"/>
  <unicode hex="0030"/>
  <outline>
    <contour>
      <point x="273" y="84" type="line"/>
      <point x="366" y="84" type="line"/>
      <point x="366" y="85" type="line"/>
      <point x="189" y="610" type="line"/>
      <point x="96" y="610" type="line"/>
    </contour>
    <contour>
      <point x="130" y="0" type="line"/>
      <point x="325" y="0" type="line"/>
      <point x="325" y="84" type="line"/>
      <point x="47" y="84" type="line"/>
      <point x="47" y="83" type="line"/>
    </contour>
    <contour>
      <point x="47" y="84" type="line"/>
      <point x="135" y="84" type="line"/>
      <point x="135" y="690" type="line"/>
      <point x="134" y="690" type="line"/>
      <point x="47" y="605" type="line"/>
    </contour>
    <contour>
      <point x="325" y="0" type="line"/>
      <point x="326" y="0" type="line"/>
      <point x="413" y="81" type="line"/>
      <point x="413" y="606" type="line"/>
      <point x="325" y="606" type="line"/>
    </contour>
    <contour>
      <point x="135" y="606" type="line"/>
      <point x="413" y="606" type="line"/>
      <point x="413" y="607" type="line"/>
      <point x="330" y="690" type="line"/>
      <point x="135" y="690" type="line"/>
    </contour>
  </outline>
</glyph>
<glyph name="one.color1" format="2">
  <advance width="600"/>
  <unicode hex="0031"/>
  <outline>
    <contour>
      <point x="48" y="0" type="line"/>
      <point x="202" y="0" type="line"/>
      <point x="202" y="84" type="line"/>
      <point x="48" y="84" type="line"/>
    </contour>
  </outline>
</glyph>
<glyph name="one.color2" format="2">
  <advance width="600"/>
  <unicode hex="0031"/>
  <outline>
    <contour>
      <point x="221" y="0" type="line"/>
      <point x="413" y="0" type="line"/>
      <point x="413" y="84" type="line"/>
      <point x="290" y="84" type="line"/>
    </contour>
  </outline>
</glyph>
<glyph name="one" format="2">
  <advance width="460"/>
  <unicode hex="0031"/>
  <outline>
    <contour>
      <point x="202" y="0" type="line"/>
      <point x="221" y="0" type="line"/>
      <point x="290" y="84" type="line"/>
      <point x="290" y="690" type="line"/>
      <point x="271" y="690" type="line"/>
      <point x="202" y="606" type="line"/>
    </contour>
    <contour>
      <point x="48" y="0" type="line"/>
      <point x="202" y="0" type="line"/>
      <point x="202" y="84" type="line"/>
      <point x="48" y="84" type="line"/>
    </contour>
    <contour>
      <point x="221" y="0" type="line"/>
      <point x="413" y="0" type="line"/>
      <point x="413" y="84" type="line"/>
      <point x="290" y="84" type="line"/>
    </contour>
    <contour>
      <point x="83" y="606" type="line"/>
      <point x="202" y="606" type="line"/>
      <point x="271" y="690" type="line"/>
      <point x="83" y="690" type="line"/>
    </contour>
  </outline>
</glyph>
<glyph name="two.color0" format="2">
  <advance width="600"/>
  <unicode hex="0032"/>
  <outline>
    <contour>
      <point x="51" y="606" type="line"/>
      <point x="319" y="606" type="line"/>
      <point x="344" y="690" type="line"/>
      <point x="133" y="690" type="line"/>
      <point x="51" y="607" type="line"/>
    </contour>
  </outline>
</glyph>
<glyph name="two.color1" format="2">
  <advance width="600"/>
  <unicode hex="0032"/>
  <outline>
    <contour>
      <point x="146" y="56" type="line"/>
      <point x="393" y="609" type="line"/>
      <point x="344" y="690" type="line"/>
      <point x="59" y="85" type="line"/>
      <point x="59" y="84" type="line"/>
    </contour>
  </outline>
</glyph>
<glyph name="two.color2" format="2">
  <advance width="600"/>
  <unicode hex="0032"/>
  <outline>
    <contour>
      <point x="59" y="0" type="line"/>
      <point x="397" y="0" type="line"/>
      <point x="397" y="84" type="line"/>
      <point x="59" y="84" type="line"/>
    </contour>
  </outline>
</glyph>
<glyph name="three.color1" format="2">
  <advance width="600"/>
  <unicode hex="0033"/>
  <outline>
    <contour>
      <point x="111" y="0" type="line"/>
      <point x="313" y="0" type="line"/>
      <point x="313" y="84" type="line"/>
      <point x="29" y="84" type="line"/>
      <point x="29" y="83" type="line"/>
    </contour>
  </outline>
</glyph>
<glyph name="three.color2" format="2">
  <advance width="600"/>
  <unicode hex="0033"/>
  <outline>
    <contour>
      <point x="82" y="363" type="line"/>
      <point x="313" y="363" type="line"/>
      <point x="313" y="433" type="line"/>
      <point x="82" y="433" type="line"/>
    </contour>
  </outline>
</glyph>
<glyph name="three.color4" format="2">
  <advance width="600"/>
  <unicode hex="0033"/>
  <outline>
    <contour>
      <point x="313" y="0" type="line"/>
      <point x="314" y="0" type="line"/>
      <point x="399" y="80" type="line"/>
      <point x="399" y="359" type="line"/>
      <point x="314" y="433" type="line"/>
      <point x="313" y="433" type="line"/>
    </contour>
  </outline>
</glyph>
<glyph name="four.color0" format="2">
  <advance width="600"/>
  <unicode hex="0034"/>
  <outline>
    <contour>
      <point x="88" y="240" type="line"/>
      <point x="321" y="240" type="line"/>
      <point x="321" y="324" type="line"/>
      <point x="131" y="324" type="line"/>
    </contour>
  </outline>
</glyph>
<glyph name="four.color1" format="2">
  <advance width="600"/>
  <unicode hex="0034"/>
  <outline>
    <contour>
      <point x="88" y="240" type="line"/>
      <point x="322" y="689" type="line"/>
      <point x="322" y="690" type="line"/>
      <point x="217" y="690" type="line"/>
      <point x="35" y="327" type="line"/>
    </contour>
  </outline>
</glyph>
<glyph name="four.color2" format="2">
  <advance width="600"/>
  <unicode hex="0034"/>
  <outline>
    <contour>
      <point x="321" y="0" type="line"/>
      <point x="408" y="0" type="line"/>
      <point x="408" y="252" type="line"/>
      <point x="322" y="324" type="line"/>
      <point x="321" y="324" type="line"/>
    </contour>
  </outline>
</glyph>
<glyph name="four" format="2">
  <advance width="460"/>
  <unicode hex="0034"/>
  <outline>
    <contour>
      <point x="88" y="240" type="line"/>
      <point x="321" y="240" type="line"/>
      <point x="321" y="324" type="line"/>
      <point x="131" y="324" type="line"/>
    </contour>
    <contour>
      <point x="88" y="240" type="line"/>
      <point x="322" y="689" type="line"/>
      <point x="322" y="690" type="line"/>
      <point x="217" y="690" type="line"/>
      <point x="35" y="327" type="line"/>
    </contour>
    <contour>
      <point x="321" y="0" type="line"/>
      <point x="408" y="0" type="line"/>
      <point x="408" y="252" type="line"/>
      <point x="322" y="324" type="line"/>
      <point x="321" y="324" type="line"/>
    </contour>
  </outline>
</glyph>
<glyph name="five.color1" format="2">
  <advance width="600"/>
  <unicode hex="0035"/>
  <outline>
    <contour>
      <point x="67" y="355" type="line"/>
      <point x="319" y="355" type="line"/>
      <point x="319" y="439" type="line"/>
      <point x="67" y="439" type="line"/>
    </contour>
  </outline>
</glyph>
<glyph name="five.color2" format="2">
  <advance width="600"/>
  <unicode hex="0035"/>
  <outline>
    <contour>
      <point x="67" y="439" type="line"/>
      <point x="154" y="439" type="line"/>
      <point x="154" y="680" type="line"/>
      <point x="67" y="680" type="line"/>
    </contour>
  </outline>
</glyph>
<glyph name="five.color3" format="2">
  <advance width="600"/>
  <unicode hex="0035"/>
  <outline>
    <contour>
      <point x="319" y="0" type="line"/>
      <point x="320" y="0" type="line"/>
      <point x="406" y="78" type="line"/>
      <point x="406" y="377" type="line"/>
      <point x="320" y="439" type="line"/>
      <point x="319" y="439" type="line"/>
    </contour>
  </outline>
</glyph>
<glyph name="five.color4" format="2">
  <advance width="600"/>
  <unicode hex="0035"/>
  <outline>
    <contour>
      <point x="154" y="596" type="line"/>
      <point x="379" y="596" type="line"/>
      <point x="379" y="680" type="line"/>
      <point x="154" y="680" type="line"/>
    </contour>
  </outline>
</glyph>
<glyph name="six.color1" format="2">
  <advance width="600"/>
  <unicode hex="0036"/>
  <outline>
    <contour>
      <point x="47" y="84" type="line"/>
      <point x="135" y="84" type="line"/>
      <point x="135" y="323" type="line"/>
      <point x="47" y="406" type="line"/>
    </contour>
  </outline>
</glyph>
<glyph name="six.color2" format="2">
  <advance width="600"/>
  <unicode hex="0036"/>
  <outline>
    <contour>
      <point x="135" y="323" type="line"/>
      <point x="333" y="323" type="line"/>
      <point x="333" y="407" type="line"/>
      <point x="47" y="407" type="line"/>
      <point x="47" y="406" type="line"/>
    </contour>
  </outline>
</glyph>
<glyph name="six.color3" format="2">
  <advance width="600"/>
  <unicode hex="0036"/>
  <outline>
    <contour>
      <point x="47" y="407" type="line"/>
      <point x="135" y="407" type="line"/>
      <point x="135" y="690" type="line"/>
      <point x="134" y="690" type="line"/>
      <point x="47" y="605" type="line"/>
    </contour>
  </outline>
</glyph>
<glyph name="seven.color0" format="2">
  <advance width="600"/>
  <unicode hex="0037"/>
  <outline>
    <contour>
      <point x="41" y="606" type="line"/>
      <point x="343" y="606" type="line"/>
      <point x="354" y="690" type="line"/>
      <point x="41" y="690" type="line"/>
    </contour>
  </outline>
</glyph>
<glyph name="seven" format="2">
  <advance width="460"/>
  <unicode hex="0037"/>
  <outline>
    <contour>
      <point x="41" y="606" type="line"/>
      <point x="343" y="606" type="line"/>
      <point x="354" y="690" type="line"/>
      <point x="41" y="690" type="line"/>
    </contour>
    <contour>
      <point x="117" y="0" type="line"/>
      <point x="222" y="0" type="line"/>
      <point x="417" y="603" type="line"/>
      <point x="354" y="690" type="line"/>
      <point x="117" y="1" type="line"/>
    </contour>
  </outline>
</glyph>
<glyph name="eight.color0" format="2">
  <advance width="600"/>
  <unicode hex="0038"/>
  <outline>
    <contour>
      <point x="160" y="606" type="line"/>
      <point x="300" y="606" type="line"/>
      <point x="300" y="690" type="line"/>
      <point x="160" y="690" type="line"/>
    </contour>
  </outline>
</glyph>
<glyph name="eight.color1" format="2">
  <advance width="600"/>
  <unicode hex="0038"/>
  <outline>
    <contour>
      <point x="131" y="0" type="line"/>
      <point x="329" y="0" type="line"/>
      <point x="329" y="84" type="line"/>
      <point x="131" y="84" type="line"/>
    </contour>
  </outline>
</glyph>
<glyph name="eight.color3" format="2">
  <advance width="600"/>
  <unicode hex="0038"/>
  <outline>
    <contour>
      <point x="300" y="373" type="line"/>
      <point x="388" y="373" type="line"/>
      <point x="388" y="605" type="line"/>
      <point x="301" y="690" type="line"/>
      <point x="300" y="690" type="line"/>
    </contour>
  </outline>
</glyph>
<glyph name="eight.color4" format="2">
  <advance width="600"/>
  <unicode hex="0038"/>
  <outline>
    <contour>
      <point x="131" y="323" type="line"/>
      <point x="329" y="323" type="line"/>
      <point x="329" y="407" type="line"/>
      <point x="131" y="407" type="line"/>
    </contour>
  </outline>
</glyph>
<glyph name="eight.color5" format="2">
  <advance width="600"/>
  <unicode hex="0038"/>
  <outline>
    <contour>
      <point x="329" y="0" type="line"/>
      <point x="330" y="0" type="line"/>
      <point x="417" y="80" type="line"/>
      <point x="417" y="325" type="line"/>
      <point x="330" y="407" type="line"/>
      <point x="329" y="407" type="line"/>
    </contour>
  </outline>
</glyph>
<glyph name="eight.color6" format="2">
  <advance width="600"/>
  <unicode hex="0038"/>
  <outline>
    <contour>
      <point x="130" y="0" type="line"/>
      <point x="131" y="0" type="line"/>
      <point x="131" y="407" type="line"/>
      <point x="130" y="407" type="line"/>
      <point x="43" y="325" type="line"/>
      <point x="43" y="80" type="line"/>
    </contour>
  </outline>
</glyph>
<glyph name="nine.color0" format="2">
  <advance width="600"/>
  <unicode hex="0039"/>
  <outline>
    <contour>
      <point x="121" y="283" type="line"/>
      <point x="319" y="283" type="line"/>
      <point x="319" y="367" type="line"/>
      <point x="121" y="367" type="line"/>
    </contour>
  </outline>
</glyph>
<glyph name="nine.color3" format="2">
  <advance width="600"/>
  <unicode hex="0039"/>
  <outline>
    <contour>
      <point x="120" y="283" type="line"/>
      <point x="121" y="283" type="line"/>
      <point x="121" y="690" type="line"/>
      <point x="120" y="690" type="line"/>
      <point x="34" y="608" type="line"/>
      <point x="34" y="353" type="line"/>
    </contour>
  </outline>
</glyph>
<glyph name="nine.color4" format="2">
  <advance width="600"/>
  <unicode hex="0039"/>
  <outline>
    <contour>
      <point x="121" y="606" type="line"/>
      <point x="406" y="606" type="line"/>
      <point x="406" y="607" type="line"/>
      <point x="323" y="690" type="line"/>
      <point x="121" y="690" type="line"/>
    </contour>
  </outline>
</glyph>
<glyph name="colon.color0" format="2">
  <advance width="600"/>
  <unicode hex="003A"/>
  <outline>
    <contour>
      <point x="47" y="106" type="line"/>
      <point x="146" y="106" type="line"/>
      <point x="146" y="190" type="line"/>
      <point x="47" y="190" type="line"/>
    </contour>
  </outline>
</glyph>
<glyph name="colon.color1" format="2">
  <advance width="600"/>
  <unicode hex="003A"/>
  <outline>
    <contour>
      <point x="47" y="370" type="line"/>
      <point x="146" y="370" type="line"/>
      <point x="146" y="454" type="line"/>
      <point x="47" y="454" type="line"/>
    </contour>
  </outline>
</glyph>
<glyph name="colon" format="2">
  <advance width="205.33333"/>
  <unicode hex="003A"/>
  <outline>
    <contour>
      <point x="47" y="106" type="line"/>
      <point x="146" y="106" type="line"/>
      <point x="146" y="190" type="line"/>
      <point x="47" y="190" type="line"/>
    </contour>
    <contour>
      <point x="47" y="370" type="line"/>
      <point x="146" y="370" type="line"/>
      <point x="146" y="454" type="line"/>
      <point x="47" y="454" type="line"/>
    </contour>
  </outline>
</glyph>
<glyph name="semicolon.color0" format="2">
  <advance width="600"/>
  <unicode hex="003B"/>
  <outline>
    <contour>
      <point x="33" y="296" type="line"/>
      <point x="132" y="296" type="line"/>
      <point x="132" y="380" type="line"/>
      <point x="33" y="380" type="line"/>
    </contour>
  </outline>
</glyph>
<glyph name="semicolon.color1" format="2">
  <advance width="600"/>
  <unicode hex="003B"/>
  <outline>
    <contour>
      <point x="47" y="34" type="line"/>
      <point x="149" y="34" type="line"/>
      <point x="98" y="118" type="line"/>
      <point x="47" y="118" type="line"/>
    </contour>
  </outline>
</glyph>
<glyph name="semicolon.color2" format="2">
  <advance width="600"/>
  <unicode hex="003B"/>
  <outline>
    <contour>
      <point x="75" y="-94" type="line"/>
      <point x="76" y="-94" type="line"/>
      <point x="149" y="-43" type="line"/>
      <point x="149" y="34" type="line"/>
      <point x="75" y="34" type="line"/>
    </contour>
  </outline>
</glyph>
<glyph name="less.color0" format="2">
  <advance width="600"/>
  <unicode hex="003C"/>
  <outline>
    <contour>
      <point x="43" y="333" type="line"/>
      <point x="165" y="333" type="line"/>
      <point x="354" y="496" type="line"/>
      <point x="354" y="497" type="line"/>
      <point x="232" y="497" type="line"/>
      <point x="43" y="334" type="line"/>
    </contour>
  </outline>
</glyph>
<glyph name="less.color1" format="2">
  <advance width="600"/>
  <unicode hex="003C"/>
  <outline>
    <contour>
      <point x="232" y="171" type="line"/>
      <point x="354" y="171" type="line"/>
      <point x="354" y="174" type="line"/>
      <point x="165" y="333" type="line"/>
      <point x="43" y="333" type="line"/>
      <point x="43" y="332" type="line"/>
    </contour>
  </outline>
</glyph>
<glyph name="less" format="2">
  <advance width="398"/>
  <unicode hex="003C"/>
  <outline>
    <contour>
      <point x="43" y="333" type="line"/>
      <point x="165" y="333" type="line"/>
      <point x="354" y="496" type="line"/>
      <point x="354" y="497" type="line"/>
      <point x="232" y="497" type="line"/>
      <point x="43" y="334" type="line"/>
    </contour>
    <contour>
      <point x="232" y="171" type="line"/>
      <point x="354" y="171" type="line"/>
      <point x="354" y="174" type="line"/>
      <point x="165" y="333" type="line"/>
      <point x="43" y="333" type="line"/>
      <point x="43" y="332" type="line"/>
    </contour>
  </outline>
</glyph>
<glyph name="equal.color0" format="2">
  <advance width="600"/>
  <unicode hex="003D"/>
  <outline>
    <contour>
      <point x="43" y="371" type="line"/>
      <point x="383" y="371" type="line"/>
      <point x="383" y="449" type="line"/>
      <point x="43" y="449" type="line"/>
    </contour>
  </outline>
</glyph>
<glyph name="equal.color1" format="2">
  <advance width="600"/>
  <unicode hex="003D"/>
  <outline>
    <contour>
      <point x="43" y="239" type="line"/>
      <point x="383" y="239" type="line"/>
      <point x="383" y="317" type="line"/>
      <point x="43" y="317" type="line"/>
    </contour>
  </outline>
</glyph>
<glyph name="greater.color0" format="2">
  <advance width="600"/>
  <unicode hex="003E"/>
  <outline>
    <contour>
      <point x="63" y="169" type="line"/>
      <point x="184" y="169" type="line"/>
      <point x="374" y="332" type="line"/>
      <point x="374" y="333" type="line"/>
      <point x="252" y="333" type="line"/>
      <point x="63" y="170" type="line"/>
    </contour>
  </outline>
</glyph>
<glyph name="greater.color1" format="2">
  <advance width="600"/>
  <unicode hex="003E"/>
  <outline>
    <contour>
      <point x="252" y="333" type="line"/>
      <point x="374" y="333" type="line"/>
      <point x="374" y="334" type="line"/>
      <point x="184" y="495" type="line"/>
      <point x="63" y="495" type="line"/>
      <point x="63" y="492" type="line"/>
    </contour>
  </outline>
</glyph>
<glyph name="greater" format="2">
  <advance width="418"/>
  <unicode hex="003E"/>
  <outline>
    <contour>
      <point x="63" y="169" type="line"/>
      <point x="184" y="169" type="line"/>
      <point x="374" y="332" type="line"/>
      <point x="374" y="333" type="line"/>
      <point x="252" y="333" type="line"/>
      <point x="63" y="170" type="line"/>
    </contour>
    <contour>
      <point x="252" y="333" type="line"/>
      <point x="374" y="333" type="line"/>
      <point x="374" y="334" type="line"/>
      <point x="184" y="495" type="line"/>
      <point x="63" y="495" type="line"/>
      <point x="63" y="492" type="line"/>
    </contour>
  </outline>
</glyph>
<glyph name="question.color0" format="2">
  <advance width="600"/>
  <unicode hex="003F"/>
  <outline>
    <contour>
      <point x="21" y="626" type="line"/>
      <point x="296" y="626" type="line"/>
      <point x="296" y="710" type="line"/>
      <point x="103" y="710" type="line"/>
      <point x="21" y="627" type="line"/>
    </contour>
  </outline>
</glyph>
<glyph name="question.color1" format="2">
  <advance width="600"/>
  <unicode hex="003F"/>
  <outline>
    <contour>
      <point x="296" y="380" type="line"/>
      <point x="388" y="380" type="line"/>
      <point x="388" y="625" type="line"/>
      <point x="297" y="710" type="line"/>
      <point x="296" y="710" type="line"/>
    </contour>
  </outline>
</glyph>
<glyph name="question.color2" format="2">
  <advance width="600"/>
  <unicode hex="003F"/>
  <outline>
    <contour>
      <point x="110" y="0" type="line"/>
      <point x="209" y="0" type="line"/>
      <point x="209" y="84" type="line"/>
      <point x="110" y="84" type="line"/>
    </contour>
  </outline>
</glyph>
<glyph name="question.color3" format="2">
  <advance width="600"/>
  <unicode hex="003F"/>
  <outline>
    <contour>
      <point x="206" y="309" type="line"/>
      <point x="305" y="309" type="line"/>
      <point x="388" y="379" type="line"/>
      <point x="388" y="380" type="line"/>
      <point x="206" y="380" type="line"/>
    </contour>
  </outline>
</glyph>
<glyph name="question" format="2">
  <advance width="439.33333"/>
  <unicode hex="003F"/>
  <outline>
    <contour>
      <point x="21" y="626" type="line"/>
      <point x="296" y="626" type="line"/>
      <point x="296" y="710" type="line"/>
      <point x="103" y="710" type="line"/>
      <point x="21" y="627" type="line"/>
    </contour>
    <contour>
      <point x="296" y="380" type="line"/>
      <point x="388" y="380" type="line"/>
      <point x="388" y="625" type="line"/>
      <point x="297" y="710" type="line"/>
      <point x="296" y="710" type="line"/>
    </contour>
    <contour>
      <point x="206" y="309" type="line"/>
      <point x="305" y="309" type="line"/>
      <point x="388" y="379" type="line"/>
      <point x="388" y="380" type="line"/>
      <point x="206" y="380" type="line"/>
    </contour>
    <contour>
      <point x="119" y="146" type="line"/>
      <point x="206" y="146" type="line"/>
      <point x="206" y="380" type="line"/>
      <point x="205" y="380" type="line"/>
      <point x="119" y="299" type="line"/>
    </contour>
    <component base="period" xOffset="77"/>
  </outline>
</glyph>
<glyph name="at.color0" format="2">
  <advance width="600"/>
  <unicode hex="0040"/>
  <outline>
    <contour>
      <point x="235" y="426" type="line"/>
      <point x="464" y="426" type="line"/>
      <point x="464" y="427" type="line"/>
      <point x="413" y="510" type="line"/>
      <point x="235" y="510" type="line"/>
    </contour>
  </outline>
</glyph>
<glyph name="at.color1" format="2">
  <advance width="600"/>
  <unicode hex="0040"/>
  <outline>
    <contour>
      <point x="76" y="-81" type="line"/>
      <point x="77" y="-81" type="line"/>
      <point x="77" y="566" type="line"/>
      <point x="53" y="566" type="line"/>
      <point x="53" y="-58" type="line"/>
    </contour>
  </outline>
</glyph>
<glyph name="at.color2" format="2">
  <advance width="600"/>
  <unicode hex="0040"/>
  <outline>
    <contour>
      <point x="77" y="-81" type="line"/>
      <point x="541" y="-81" type="line"/>
      <point x="541" y="-57" type="line"/>
      <point x="77" y="-57" type="line"/>
    </contour>
  </outline>
</glyph>
<glyph name="at.color3" format="2">
  <advance width="600"/>
  <unicode hex="0040"/>
  <outline>
    <contour>
      <point x="198" y="0" type="line"/>
      <point x="376" y="0" type="line"/>
      <point x="376" y="84" type="line"/>
      <point x="147" y="84" type="line"/>
      <point x="147" y="83" type="line"/>
    </contour>
  </outline>
</glyph>
<glyph name="at.color4" format="2">
  <advance width="600"/>
  <unicode hex="0040"/>
  <outline>
    <contour>
      <point x="147" y="84" type="line"/>
      <point x="235" y="84" type="line"/>
      <point x="235" y="510" type="line"/>
      <point x="234" y="510" type="line"/>
      <point x="147" y="459" type="line"/>
    </contour>
  </outline>
</glyph>
<glyph name="at.color5" format="2">
  <advance width="600"/>
  <unicode hex="0040"/>
  <outline>
    <contour>
      <point x="464" y="0" type="line"/>
      <point x="464" y="426" type="line"/>
      <point x="376" y="426" type="line"/>
      <point x="376" y="84" type="line"/>
    </contour>
  </outline>
</glyph>
<glyph name="at.color6" format="2">
  <advance width="600"/>
  <unicode hex="0040"/>
  <outline>
    <contour>
      <point x="464" y="0" type="line"/>
      <point x="541" y="0" type="line"/>
      <point x="564" y="23" type="line"/>
      <point x="564" y="24" type="line"/>
      <point x="464" y="24" type="line"/>
    </contour>
  </outline>
</glyph>
<glyph name="at.color8" format="2">
  <advance width="600"/>
  <unicode hex="0040"/>
  <outline>
    <contour>
      <point x="540" y="24" type="line"/>
      <point x="564" y="24" type="line"/>
      <point x="564" y="567" type="line"/>
      <point x="541" y="590" type="line"/>
      <point x="540" y="590" type="line"/>
    </contour>
  </outline>
</glyph>
<glyph name="at" format="2">
  <advance width="616.33333"/>
  <unicode hex="0040"/>
  <outline>
    <contour>
      <point x="235" y="426" type="line"/>
      <point x="464" y="426" type="line"/>
      <point x="464" y="427" type="line"/>
      <point x="413" y="510" type="line"/>
      <point x="235" y="510" type="line"/>
    </contour>
    <contour>
      <point x="76" y="-81" type="line"/>
      <point x="77" y="-81" type="line"/>
      <point x="77" y="566" type="line"/>
      <point x="53" y="566" type="line"/>
      <point x="53" y="-58" type="line"/>
    </contour>
    <contour>
      <point x="77" y="-81" type="line"/>
      <point x="541" y="-81" type="line"/>
      <point x="541" y="-57" type="line"/>
      <point x="77" y="-57" type="line"/>
    </contour>
    <contour>
      <point x="198" y="0" type="line"/>
      <point x="376" y="0" type="line"/>
      <point x="376" y="84" type="line"/>
      <point x="147" y="84" type="line"/>
      <point x="147" y="83" type="line"/>
    </contour>
    <contour>
      <point x="147" y="84" type="line"/>
      <point x="235" y="84" type="line"/>
      <point x="235" y="510" type="line"/>
      <point x="234" y="510" type="line"/>
      <point x="147" y="459" type="line"/>
    </contour>
    <contour>
      <point x="464" y="0" type="line"/>
      <point x="464" y="426" type="line"/>
      <point x="376" y="426" type="line"/>
      <point x="376" y="84" type="line"/>
    </contour>
    <contour>
      <point x="464" y="0" type="line"/>
      <point x="541" y="0" type="line"/>
      <point x="564" y="23" type="line"/>
      <point x="564" y="24" type="line"/>
      <point x="464" y="24" type="line"/>
    </contour>
    <contour>
      <point x="53" y="566" type="line"/>
      <point x="540" y="566" type="line"/>
      <point x="540" y="590" type="line"/>
      <point x="76" y="590" type="line"/>
      <point x="53" y="567" type="line"/>
    </contour>
    <contour>
      <point x="540" y="24" type="line"/>
      <point x="564" y="24" type="line"/>
      <point x="564" y="567" type="line"/>
      <point x="541" y="590" type="line"/>
      <point x="540" y="590" type="line"/>
    </contour>
  </outline>
</glyph>
<glyph name="A.color3" format="2">
  <advance width="600"/>
  <unicode hex="0041"/>
  <outline>
    <contour>
      <point x="135" y="626" type="line"/>
      <point x="418" y="626" type="line"/>
      <point x="418" y="627" type="line"/>
      <point x="348" y="710" type="line"/>
      <point x="135" y="710" type="line"/>
    </contour>
  </outline>
</glyph>
<glyph name="B.color2" format="2">
  <advance width="600"/>
  <unicode hex="0042"/>
  <outline>
    <contour>
      <point x="283" y="323" type="line"/>
      <point x="384" y="323" type="line"/>
      <point x="384" y="407" type="line"/>
      <point x="270" y="407" type="line"/>
      <point x="204" y="407" type="line"/>
    </contour>
  </outline>
</glyph>
<glyph name="B.color3" format="2">
  <advance width="600"/>
  <unicode hex="0042"/>
  <outline>
    <contour>
      <point x="135" y="626" type="line"/>
      <point x="270" y="626" type="line"/>
      <point x="270" y="710" type="line"/>
      <point x="135" y="710" type="line"/>
    </contour>
  </outline>
</glyph>
<glyph name="B.color4" format="2">
  <advance width="600"/>
  <unicode hex="0042"/>
  <outline>
    <contour>
      <point x="364" y="395" type="line"/>
      <point x="364" y="629" type="line"/>
      <point x="271" y="710" type="line"/>
      <point x="270" y="710" type="line"/>
      <point x="270" y="407" type="line"/>
      <point x="344" y="407" type="line"/>
    </contour>
  </outline>
</glyph>
<glyph name="B.color5" format="2">
  <advance width="600"/>
  <unicode hex="0042"/>
  <outline>
    <contour>
      <point x="384" y="0" type="line"/>
      <point x="385" y="0" type="line"/>
      <point x="470" y="79" type="line"/>
      <point x="470" y="328" type="line"/>
      <point x="385" y="407" type="line"/>
      <point x="384" y="407" type="line"/>
    </contour>
  </outline>
</glyph>
<glyph name="B" format="2">
  <advance width="492.66667"/>
  <unicode hex="0042"/>
  <outline>
    <contour>
      <point x="47" y="0" type="line"/>
      <point x="384" y="0" type="line"/>
      <point x="384" y="84" type="line"/>
      <point x="47" y="84" type="line"/>
    </contour>
    <contour>
      <point x="47" y="84" type="line"/>
      <point x="135" y="84" type="line"/>
      <point x="135" y="710" type="line"/>
      <point x="47" y="710" type="line"/>
    </contour>
    <contour>
      <point x="283" y="323" type="line"/>
      <point x="384" y="323" type="line"/>
      <point x="384" y="407" type="line"/>
      <point x="270" y="407" type="line"/>
      <point x="204" y="407" type="line"/>
    </contour>
    <contour>
      <point x="135" y="626" type="line"/>
      <point x="270" y="626" type="line"/>
      <point x="270" y="710" type="line"/>
      <point x="135" y="710" type="line"/>
    </contour>
    <contour>
      <point x="364" y="395" type="line"/>
      <point x="364" y="629" type="line"/>
      <point x="271" y="710" type="line"/>
      <point x="270" y="710" type="line"/>
      <point x="270" y="407" type="line"/>
      <point x="344" y="407" type="line"/>
    </contour>
    <contour>
      <point x="384" y="0" type="line"/>
      <point x="385" y="0" type="line"/>
      <point x="470" y="79" type="line"/>
      <point x="470" y="328" type="line"/>
      <point x="385" y="407" type="line"/>
      <point x="384" y="407" type="line"/>
    </contour>
  </outline>
</glyph>
<glyph name="C.color0" format="2">
  <advance width="600"/>
  <unicode hex="0043"/>
  <outline>
    <contour>
      <point x="126" y="0" type="line"/>
      <point x="338" y="0" type="line"/>
      <point x="420" y="83" type="line"/>
      <point x="420" y="84" type="line"/>
      <point x="43" y="84" type="line"/>
      <point x="43" y="83" type="line"/>
    </contour>
  </outline>
</glyph>
<glyph name="C" format="2">
  <advance width="430.66667"/>
  <unicode hex="0043"/>
  <anchor x="254" y="0" name="bottom"/>
  <anchor x="238" y="710" name="top"/>
  <outline>
    <contour>
      <point x="126" y="0" type="line"/>
      <point x="338" y="0" type="line"/>
      <point x="420" y="83" type="line"/>
      <point x="420" y="84" type="line"/>
      <point x="43" y="84" type="line"/>
      <point x="43" y="83" type="line"/>
    </contour>
    <contour>
      <point x="43" y="84" type="line"/>
      <point x="131" y="84" type="line"/>
      <point x="131" y="710" type="line"/>
      <point x="130" y="710" type="line"/>
      <point x="43" y="625" type="line"/>
    </contour>
    <contour>
      <point x="131" y="626" type="line"/>
      <point x="420" y="626" type="line"/>
      <point x="420" y="627" type="line"/>
      <point x="338" y="710" type="line"/>
      <point x="131" y="710" type="line"/>
    </contour>
  </outline>
</glyph>
<glyph name="D" format="2">
  <advance width="472.33333"/>
  <unicode hex="0044"/>
  <anchor x="99" y="363" name="stroke"/>
  <anchor x="234" y="710" name="top"/>
  <outline>
    <contour>
      <point x="135" y="626" type="line"/>
      <point x="428" y="626" type="line"/>
      <point x="428" y="627" type="line"/>
      <point x="359" y="710" type="line"/>
      <point x="135" y="710" type="line"/>
    </contour>
    <contour>
      <point x="47" y="-2" type="line"/>
      <point x="342" y="-2" type="line"/>
      <point x="342" y="82" type="line"/>
      <point x="47" y="82" type="line"/>
    </contour>
    <contour>
      <point x="47" y="82" type="line"/>
      <point x="135" y="82" type="line"/>
      <point x="135" y="710" type="line"/>
      <point x="47" y="710" type="line"/>
    </contour>
    <contour>
      <point x="342" y="-2" type="line"/>
      <point x="343" y="-2" type="line"/>
      <point x="428" y="79" type="line"/>
      <point x="428" y="626" type="line"/>
      <point x="342" y="626" type="line"/>
    </contour>
  </outline>
</glyph>
<glyph name="F.color0" format="2">
  <advance width="600"/>
  <unicode hex="0046"/>
  <outline>
    <contour>
      <point x="135" y="626" type="line"/>
      <point x="328" y="626" type="line"/>
      <point x="410" y="709" type="line"/>
      <point x="410" y="710" type="line"/>
      <point x="135" y="710" type="line"/>
    </contour>
  </outline>
</glyph>
<glyph name="F.color1" format="2">
  <advance width="600"/>
  <unicode hex="0046"/>
  <outline>
    <contour>
      <point x="47" y="0" type="line"/>
      <point x="135" y="0" type="line"/>
      <point x="135" y="299" type="line"/>
      <point x="47" y="382" type="line"/>
    </contour>
  </outline>
</glyph>
<glyph name="F.color2" format="2">
  <advance width="600"/>
  <unicode hex="0046"/>
  <outline>
    <contour>
      <point x="135" y="299" type="line"/>
      <point x="344" y="299" type="line"/>
      <point x="344" y="383" type="line"/>
      <point x="47" y="383" type="line"/>
      <point x="47" y="382" type="line"/>
    </contour>
  </outline>
</glyph>
<glyph name="F.color3" format="2">
  <advance width="600"/>
  <unicode hex="0046"/>
  <outline>
    <contour>
      <point x="47" y="383" type="line"/>
      <point x="135" y="383" type="line"/>
      <point x="135" y="710" type="line"/>
      <point x="47" y="710" type="line"/>
    </contour>
  </outline>
</glyph>
<glyph name="F" format="2">
  <advance width="409"/>
  <unicode hex="0046"/>
  <outline>
    <contour>
      <point x="135" y="626" type="line"/>
      <point x="328" y="626" type="line"/>
      <point x="410" y="709" type="line"/>
      <point x="410" y="710" type="line"/>
      <point x="135" y="710" type="line"/>
    </contour>
    <contour>
      <point x="47" y="0" type="line"/>
      <point x="135" y="0" type="line"/>
      <point x="135" y="299" type="line"/>
      <point x="47" y="382" type="line"/>
    </contour>
    <contour>
      <point x="135" y="299" type="line"/>
      <point x="344" y="299" type="line"/>
      <point x="344" y="383" type="line"/>
      <point x="47" y="383" type="line"/>
      <point x="47" y="382" type="line"/>
    </contour>
    <contour>
      <point x="47" y="383" type="line"/>
      <point x="135" y="383" type="line"/>
      <point x="135" y="710" type="line"/>
      <point x="47" y="710" type="line"/>
    </contour>
  </outline>
</glyph>
<glyph name="G.color4" format="2">
  <advance width="600"/>
  <unicode hex="0047"/>
  <outline>
    <contour>
      <point x="360" y="0" type="line"/>
      <point x="361" y="0" type="line"/>
      <point x="448" y="82" type="line"/>
      <point x="448" y="327" type="line"/>
      <point x="361" y="407" type="line"/>
      <point x="360" y="407" type="line"/>
    </contour>
  </outline>
</glyph>
<glyph name="G" format="2">
  <advance width="484.33333"/>
  <unicode hex="0047"/>
  <anchor x="262" y="0" name="bottom"/>
  <anchor x="253" y="710" name="top"/>
  <outline>
    <contour>
      <point x="131" y="626" type="line"/>
      <point x="448" y="626" type="line"/>
      <point x="448" y="627" type="line"/>
      <point x="365" y="710" type="line"/>
      <point x="131" y="710" type="line"/>
    </contour>
    <contour>
      <point x="126" y="0" type="line"/>
      <point x="360" y="0" type="line"/>
      <point x="360" y="84" type="line"/>
      <point x="43" y="84" type="line"/>
      <point x="43" y="83" type="line"/>
    </contour>
    <contour>
      <point x="43" y="84" type="line"/>
      <point x="131" y="84" type="line"/>
      <point x="131" y="710" type="line"/>
      <point x="130" y="710" type="line"/>
      <point x="43" y="625" type="line"/>
    </contour>
    <contour>
      <point x="181" y="323" type="line"/>
      <point x="360" y="323" type="line"/>
      <point x="360" y="407" type="line"/>
      <point x="181" y="407" type="line"/>
    </contour>
    <contour>
      <point x="360" y="0" type="line"/>
      <point x="361" y="0" type="line"/>
      <point x="448" y="82" type="line"/>
      <point x="448" y="327" type="line"/>
      <point x="361" y="407" type="line"/>
      <point x="360" y="407" type="line"/>
    </contour>
  </outline>
</glyph>
<glyph name="H.color2" format="2">
  <advance width="600"/>
  <unicode hex="0048"/>
  <outline>
    <contour>
      <point x="135" y="323" type="line"/>
      <point x="344" y="323" type="line"/>
      <point x="344" y="407" type="line"/>
      <point x="135" y="407" type="line"/>
    </contour>
  </outline>
</glyph>
<glyph name="H" format="2">
  <advance width="477.66667"/>
  <unicode hex="0048"/>
  <anchor x="240" y="710" name="top"/>
  <outline>
    <contour>
      <point x="344" y="0" type="line"/>
      <point x="430" y="0" type="line"/>
      <point x="430" y="710" type="line"/>
      <point x="344" y="710" type="line"/>
    </contour>
    <contour>
      <point x="47" y="0" type="line"/>
      <point x="135" y="0" type="line"/>
      <point x="135" y="710" type="line"/>
      <point x="47" y="710" type="line"/>
    </contour>
    <contour>
      <point x="135" y="323" type="line"/>
      <point x="344" y="323" type="line"/>
      <point x="344" y="407" type="line"/>
      <point x="135" y="407" type="line"/>
    </contour>
  </outline>
</glyph>
<glyph name="I.color0" format="2">
  <advance width="600"/>
  <unicode hex="0049"/>
  <outline>
    <contour>
      <point x="149" y="0" type="line"/>
      <point x="168" y="0" type="line"/>
      <point x="237" y="84" type="line"/>
      <point x="237" y="710" type="line"/>
      <point x="218" y="710" type="line"/>
      <point x="149" y="626" type="line"/>
    </contour>
  </outline>
</glyph>
<glyph name="I.color1" format="2">
  <advance width="600"/>
  <unicode hex="0049"/>
  <outline>
    <contour>
      <point x="23" y="0" type="line"/>
      <point x="149" y="0" type="line"/>
      <point x="149" y="84" type="line"/>
      <point x="23" y="84" type="line"/>
    </contour>
  </outline>
</glyph>
<glyph name="I.color2" format="2">
  <advance width="600"/>
  <unicode hex="0049"/>
  <outline>
    <contour>
      <point x="168" y="0" type="line"/>
      <point x="348" y="0" type="line"/>
      <point x="348" y="84" type="line"/>
      <point x="237" y="84" type="line"/>
    </contour>
  </outline>
</glyph>
<glyph name="I.color3" format="2">
  <advance width="600"/>
  <unicode hex="0049"/>
  <outline>
    <contour>
      <point x="22" y="626" type="line"/>
      <point x="149" y="626" type="line"/>
      <point x="218" y="710" type="line"/>
      <point x="22" y="710" type="line"/>
    </contour>
  </outline>
</glyph>
<glyph name="I.color4" format="2">
  <advance width="600"/>
  <unicode hex="0049"/>
  <outline>
    <contour>
      <point x="237" y="626" type="line"/>
      <point x="347" y="626" type="line"/>
      <point x="347" y="710" type="line"/>
      <point x="237" y="710" type="line"/>
    </contour>
  </outline>
</glyph>
<glyph name="I" format="2">
  <advance width="369.66667"/>
  <unicode hex="0049"/>
  <anchor x="188" y="0" name="bottom"/>
  <anchor x="191" y="710" name="top"/>
  <outline>
    <contour>
      <point x="149" y="0" type="line"/>
      <point x="168" y="0" type="line"/>
      <point x="237" y="84" type="line"/>
      <point x="237" y="710" type="line"/>
      <point x="218" y="710" type="line"/>
      <point x="149" y="626" type="line"/>
    </contour>
    <contour>
      <point x="23" y="0" type="line"/>
      <point x="149" y="0" type="line"/>
      <point x="149" y="84" type="line"/>
      <point x="23" y="84" type="line"/>
    </contour>
    <contour>
      <point x="168" y="0" type="line"/>
      <point x="348" y="0" type="line"/>
      <point x="348" y="84" type="line"/>
      <point x="237" y="84" type="line"/>
    </contour>
    <contour>
      <point x="22" y="626" type="line"/>
      <point x="149" y="626" type="line"/>
      <point x="218" y="710" type="line"/>
      <point x="22" y="710" type="line"/>
    </contour>
    <contour>
      <point x="237" y="626" type="line"/>
      <point x="347" y="626" type="line"/>
      <point x="347" y="710" type="line"/>
      <point x="237" y="710" type="line"/>
    </contour>
  </outline>
</glyph>
<glyph name="J.color0" format="2">
  <advance width="600"/>
  <unicode hex="004A"/>
  <outline>
    <contour>
      <point x="196" y="82" type="line"/>
      <point x="282" y="82" type="line"/>
      <point x="282" y="710" type="line"/>
      <point x="265" y="710" type="line"/>
      <point x="196" y="626" type="line"/>
    </contour>
  </outline>
</glyph>
<glyph name="J.color1" format="2">
  <advance width="600"/>
  <unicode hex="004A"/>
  <outline>
    <contour>
      <point x="29" y="-2" type="line"/>
      <point x="212" y="-2" type="line"/>
      <point x="282" y="81" type="line"/>
      <point x="282" y="82" type="line"/>
      <point x="29" y="82" type="line"/>
    </contour>
  </outline>
</glyph>
<glyph name="J.color2" format="2">
  <advance width="600"/>
  <unicode hex="004A"/>
  <outline>
    <contour>
      <point x="35" y="626" type="line"/>
      <point x="196" y="626" type="line"/>
      <point x="265" y="710" type="line"/>
      <point x="35" y="710" type="line"/>
    </contour>
  </outline>
</glyph>
<glyph name="J" format="2">
  <advance width="388.33333"/>
  <unicode hex="004A"/>
  <anchor x="218" y="710" name="top"/>
  <outline>
    <contour>
      <point x="196" y="82" type="line"/>
      <point x="282" y="82" type="line"/>
      <point x="282" y="710" type="line"/>
      <point x="265" y="710" type="line"/>
      <point x="196" y="626" type="line"/>
    </contour>
    <contour>
      <point x="29" y="-2" type="line"/>
      <point x="212" y="-2" type="line"/>
      <point x="282" y="81" type="line"/>
      <point x="282" y="82" type="line"/>
      <point x="29" y="82" type="line"/>
    </contour>
    <contour>
      <point x="35" y="626" type="line"/>
      <point x="196" y="626" type="line"/>
      <point x="265" y="710" type="line"/>
      <point x="35" y="710" type="line"/>
    </contour>
    <contour>
      <point x="282" y="626" type="line"/>
      <point x="366" y="626" type="line"/>
      <point x="366" y="710" type="line"/>
      <point x="282" y="710" type="line"/>
    </contour>
  </outline>
</glyph>
<glyph name="K.color0" format="2">
  <advance width="600"/>
  <unicode hex="004B"/>
  <outline>
    <contour>
      <point x="365" y="0" type="line"/>
      <point x="473" y="0" type="line"/>
      <point x="473" y="1" type="line"/>
      <point x="321" y="373" type="line"/>
      <point x="250" y="319" type="line"/>
    </contour>
  </outline>
</glyph>
<glyph name="K.color2" format="2">
  <advance width="600"/>
  <unicode hex="004B"/>
  <outline>
    <contour>
      <point x="135" y="317" type="line"/>
      <point x="314" y="317" type="line"/>
      <point x="314" y="401" type="line"/>
      <point x="135" y="401" type="line"/>
    </contour>
  </outline>
</glyph>
<glyph name="L" format="2">
  <advance width="421.66667"/>
  <unicode hex="004C"/>
  <anchor x="236" y="0" name="bottom"/>
  <anchor x="107" y="710" name="top"/>
  <outline>
    <contour>
      <point x="130" y="0" type="line"/>
      <point x="414" y="0" type="line"/>
      <point x="414" y="84" type="line"/>
      <point x="47" y="84" type="line"/>
      <point x="47" y="83" type="line"/>
    </contour>
    <contour>
      <point x="47" y="84" type="line"/>
      <point x="135" y="84" type="line"/>
      <point x="135" y="710" type="line"/>
      <point x="47" y="710" type="line"/>
    </contour>
  </outline>
</glyph>
<glyph name="M.color0" format="2">
  <advance width="600"/>
  <unicode hex="004D"/>
  <outline>
    <contour>
      <point x="308" y="51" type="line"/>
      <point x="364" y="-4" type="line"/>
      <point x="559" y="608" type="line"/>
      <point x="506" y="714" type="line"/>
    </contour>
  </outline>
</glyph>
<glyph name="M.color2" format="2">
  <advance width="600"/>
  <unicode hex="004D"/>
  <outline>
    <contour>
      <point x="279" y="-4" type="line"/>
      <point x="364" y="-4" type="line"/>
      <point x="364" y="-3" type="line"/>
      <point x="135" y="714" type="line"/>
      <point x="134" y="714" type="line"/>
      <point x="47" y="698" type="line"/>
    </contour>
  </outline>
</glyph>
<glyph name="M.color3" format="2">
  <advance width="600"/>
  <unicode hex="004D"/>
  <outline>
    <contour>
      <point x="506" y="0" type="line"/>
      <point x="594" y="0" type="line"/>
      <point x="598" y="698" type="line"/>
      <point x="507" y="714" type="line"/>
      <point x="506" y="714" type="line"/>
    </contour>
  </outline>
</glyph>
<glyph name="M" format="2">
  <advance width="645"/>
  <unicode hex="004D"/>
  <outline>
    <contour>
      <point x="308" y="51" type="line"/>
      <point x="364" y="-4" type="line"/>
      <point x="559" y="608" type="line"/>
      <point x="506" y="714" type="line"/>
    </contour>
    <contour>
      <point x="47" y="0" type="line"/>
      <point x="135" y="0" type="line"/>
      <point x="135" y="556" type="line"/>
      <point x="47" y="698" type="line"/>
    </contour>
    <contour>
      <point x="279" y="-4" type="line"/>
      <point x="364" y="-4" type="line"/>
      <point x="364" y="-3" type="line"/>
      <point x="135" y="714" type="line"/>
      <point x="134" y="714" type="line"/>
      <point x="47" y="698" type="line"/>
    </contour>
    <contour>
      <point x="506" y="0" type="line"/>
      <point x="594" y="0" type="line"/>
      <point x="598" y="698" type="line"/>
      <point x="507" y="714" type="line"/>
      <point x="506" y="714" type="line"/>
    </contour>
  </outline>
</glyph>
<glyph name="N" format="2">
  <advance width="481"/>
  <unicode hex="004E"/>
  <anchor x="255" y="0" name="bottom"/>
  <anchor x="250" y="710" name="top"/>
  <outline>
    <contour>
      <point x="434" y="66" type="line"/>
      <point x="434" y="710" type="line"/>
      <point x="346" y="710" type="line"/>
      <point x="346" y="152" type="line"/>
    </contour>
    <contour>
      <point x="47" y="0" type="line"/>
      <point x="135" y="0" type="line"/>
      <point x="135" y="563" type="line"/>
      <point x="47" y="649" type="line"/>
    </contour>
    <contour>
      <point x="372" y="-4" type="line"/>
      <point x="373" y="-4" type="line"/>
      <point x="434" y="65" type="line"/>
      <point x="434" y="66" type="line"/>
      <point x="114" y="714" type="line"/>
      <point x="113" y="714" type="line"/>
      <point x="47" y="650" type="line"/>
      <point x="47" y="649" type="line"/>
    </contour>
  </outline>
</glyph>
<glyph name="O" format="2">
  <advance width="457.66667"/>
  <unicode hex="004F"/>
  <anchor x="232" y="0" name="bottom"/>
  <anchor x="358" y="710" name="horn"/>
  <anchor x="238" y="710" name="top"/>
  <outline>
    <contour>
      <point x="131" y="626" type="line"/>
      <point x="414" y="626" type="line"/>
      <point x="414" y="627" type="line"/>
      <point x="345" y="710" type="line"/>
      <point x="131" y="710" type="line"/>
    </contour>
    <contour>
      <point x="126" y="0" type="line"/>
      <point x="326" y="0" type="line"/>
      <point x="326" y="84" type="line"/>
      <point x="43" y="84" type="line"/>
      <point x="43" y="83" type="line"/>
    </contour>
    <contour>
      <point x="43" y="84" type="line"/>
      <point x="131" y="84" type="line"/>
      <point x="131" y="710" type="line"/>
      <point x="130" y="710" type="line"/>
      <point x="43" y="625" type="line"/>
    </contour>
    <contour>
      <point x="326" y="0" type="line"/>
      <point x="327" y="0" type="line"/>
      <point x="414" y="85" type="line"/>
      <point x="414" y="626" type="line"/>
      <point x="326" y="626" type="line"/>
    </contour>
  </outline>
</glyph>
<glyph name="P.color2" format="2">
  <advance width="600"/>
  <unicode hex="0050"/>
  <outline>
    <contour>
      <point x="331" y="293" type="line"/>
      <point x="332" y="293" type="line"/>
      <point x="418" y="374" type="line"/>
      <point x="418" y="626" type="line"/>
      <point x="331" y="626" type="line"/>
    </contour>
  </outline>
</glyph>
<glyph name="P.color3" format="2">
  <advance width="600"/>
  <unicode hex="0050"/>
  <outline>
    <contour>
      <point x="135" y="626" type="line"/>
      <point x="418" y="626" type="line"/>
      <point x="418" y="627" type="line"/>
      <point x="336" y="710" type="line"/>
      <point x="135" y="710" type="line"/>
    </contour>
  </outline>
</glyph>
<glyph name="P" format="2">
  <advance width="436.66667"/>
  <unicode hex="0050"/>
  <outline>
    <contour>
      <point x="47" y="0" type="line"/>
      <point x="135" y="0" type="line"/>
      <point x="135" y="710" type="line"/>
      <point x="134" y="710" type="line"/>
      <point x="47" y="695" type="line"/>
    </contour>
    <contour>
      <point x="135" y="293" type="line"/>
      <point x="331" y="293" type="line"/>
      <point x="331" y="377" type="line"/>
      <point x="135" y="377" type="line"/>
    </contour>
    <contour>
      <point x="331" y="293" type="line"/>
      <point x="332" y="293" type="line"/>
      <point x="418" y="374" type="line"/>
      <point x="418" y="626" type="line"/>
      <point x="331" y="626" type="line"/>
    </contour>
    <contour>
      <point x="135" y="626" type="line"/>
      <point x="418" y="626" type="line"/>
      <point x="418" y="627" type="line"/>
      <point x="336" y="710" type="line"/>
      <point x="135" y="710" type="line"/>
    </contour>
  </outline>
</glyph>
<glyph name="Q.color0" format="2">
  <advance width="600"/>
  <unicode hex="0051"/>
  <outline>
    <contour>
      <point x="391" y="48" type="line"/>
      <point x="414" y="80" type="line"/>
      <point x="414" y="626" type="line"/>
      <point x="326" y="626" type="line"/>
      <point x="326" y="84" type="line"/>
      <point x="363" y="84" type="line"/>
    </contour>
  </outline>
</glyph>
<glyph name="Q.color1" format="2">
  <advance width="600"/>
  <unicode hex="0051"/>
  <outline>
    <contour>
      <point x="126" y="0" type="line"/>
      <point x="493" y="0" type="line"/>
      <point x="493" y="1" type="line"/>
      <point x="410" y="84" type="line"/>
      <point x="43" y="84" type="line"/>
      <point x="43" y="83" type="line"/>
    </contour>
  </outline>
</glyph>
<glyph name="Q.color3" format="2">
  <advance width="600"/>
  <unicode hex="0051"/>
  <outline>
    <contour>
      <point x="131" y="626" type="line"/>
      <point x="414" y="626" type="line"/>
      <point x="414" y="627" type="line"/>
      <point x="331" y="710" type="line"/>
      <point x="131" y="710" type="line"/>
    </contour>
  </outline>
</glyph>
<glyph name="Q" format="2">
  <advance width="483"/>
  <unicode hex="0051"/>
  <outline>
    <contour>
      <point x="391" y="48" type="line"/>
      <point x="414" y="80" type="line"/>
      <point x="414" y="626" type="line"/>
      <point x="326" y="626" type="line"/>
      <point x="326" y="84" type="line"/>
      <point x="363" y="84" type="line"/>
    </contour>
    <contour>
      <point x="126" y="0" type="line"/>
      <point x="493" y="0" type="line"/>
      <point x="493" y="1" type="line"/>
      <point x="410" y="84" type="line"/>
      <point x="43" y="84" type="line"/>
      <point x="43" y="83" type="line"/>
    </contour>
    <contour>
      <point x="43" y="84" type="line"/>
      <point x="131" y="84" type="line"/>
      <point x="131" y="710" type="line"/>
      <point x="130" y="710" type="line"/>
      <point x="43" y="625" type="line"/>
    </contour>
    <contour>
      <point x="131" y="626" type="line"/>
      <point x="414" y="626" type="line"/>
      <point x="414" y="627" type="line"/>
      <point x="331" y="710" type="line"/>
      <point x="131" y="710" type="line"/>
    </contour>
  </outline>
</glyph>
<glyph name="R.color2" format="2">
  <advance width="600"/>
  <unicode hex="0052"/>
  <outline>
    <contour>
      <point x="135" y="299" type="line"/>
      <point x="326" y="299" type="line"/>
      <point x="326" y="383" type="line"/>
      <point x="135" y="383" type="line"/>
    </contour>
  </outline>
</glyph>
<glyph name="R.color4" format="2">
  <advance width="600"/>
  <unicode hex="0052"/>
  <outline>
    <contour>
      <point x="135" y="626" type="line"/>
      <point x="414" y="626" type="line"/>
      <point x="414" y="627" type="line"/>
      <point x="331" y="710" type="line"/>
      <point x="135" y="710" type="line"/>
    </contour>
  </outline>
</glyph>
<glyph name="S.color1" format="2">
  <advance width="600"/>
  <unicode hex="0053"/>
  <outline>
    <contour>
      <point x="120" y="0" type="line"/>
      <point x="304" y="0" type="line"/>
      <point x="304" y="84" type="line"/>
      <point x="37" y="84" type="line"/>
      <point x="37" y="83" type="line"/>
    </contour>
  </outline>
</glyph>
<glyph name="S.color2" format="2">
  <advance width="600"/>
  <unicode hex="0053"/>
  <outline>
    <contour>
      <point x="120" y="323" type="line"/>
      <point x="304" y="323" type="line"/>
      <point x="304" y="407" type="line"/>
      <point x="37" y="407" type="line"/>
      <point x="37" y="406" type="line"/>
    </contour>
  </outline>
</glyph>
<glyph name="T.color0" format="2">
  <advance width="600"/>
  <unicode hex="0054"/>
  <outline>
    <contour>
      <point x="198" y="0" type="line"/>
      <point x="286" y="0" type="line"/>
      <point x="286" y="710" type="line"/>
      <point x="267" y="710" type="line"/>
      <point x="198" y="626" type="line"/>
    </contour>
  </outline>
</glyph>
<glyph name="T.color1" format="2">
  <advance width="600"/>
  <unicode hex="0054"/>
  <outline>
    <contour>
      <point x="23" y="626" type="line"/>
      <point x="198" y="626" type="line"/>
      <point x="267" y="710" type="line"/>
      <point x="23" y="710" type="line"/>
    </contour>
  </outline>
</glyph>
<glyph name="T.color2" format="2">
  <advance width="600"/>
  <unicode hex="0054"/>
  <outline>
    <contour>
      <point x="286" y="626" type="line"/>
      <point x="466" y="626" type="line"/>
      <point x="466" y="710" type="line"/>
      <point x="286" y="710" type="line"/>
    </contour>
  </outline>
</glyph>
<glyph name="T" format="2">
  <advance width="489.33333"/>
  <unicode hex="0054"/>
  <anchor x="243" y="0" name="bottom"/>
  <anchor x="248" y="365" name="stroke"/>
  <anchor x="250" y="710" name="top"/>
  <outline>
    <contour>
      <point x="198" y="0" type="line"/>
      <point x="286" y="0" type="line"/>
      <point x="286" y="710" type="line"/>
      <point x="267" y="710" type="line"/>
      <point x="198" y="626" type="line"/>
    </contour>
    <contour>
      <point x="23" y="626" type="line"/>
      <point x="198" y="626" type="line"/>
      <point x="267" y="710" type="line"/>
      <point x="23" y="710" type="line"/>
    </contour>
    <contour>
      <point x="286" y="626" type="line"/>
      <point x="466" y="626" type="line"/>
      <point x="466" y="710" type="line"/>
      <point x="286" y="710" type="line"/>
    </contour>
  </outline>
</glyph>
<glyph name="U.color0" format="2">
  <advance width="600"/>
  <unicode hex="0055"/>
  <outline>
    <contour>
      <point x="326" y="0" type="line"/>
      <point x="327" y="0" type="line"/>
      <point x="414" y="85" type="line"/>
      <point x="414" y="710" type="line"/>
      <point x="326" y="710" type="line"/>
    </contour>
  </outline>
</glyph>
<glyph name="U" format="2">
  <advance width="461"/>
  <unicode hex="0055"/>
  <anchor x="236" y="0" name="bottom"/>
  <anchor x="401" y="710" name="horn"/>
  <anchor x="241" y="711" name="top"/>
  <outline>
    <contour>
      <point x="326" y="0" type="line"/>
      <point x="327" y="0" type="line"/>
      <point x="414" y="85" type="line"/>
      <point x="414" y="710" type="line"/>
      <point x="326" y="710" type="line"/>
    </contour>
    <contour>
      <point x="130" y="0" type="line"/>
      <point x="326" y="0" type="line"/>
      <point x="326" y="84" type="line"/>
      <point x="47" y="84" type="line"/>
      <point x="47" y="83" type="line"/>
    </contour>
    <contour>
      <point x="47" y="84" type="line"/>
      <point x="135" y="84" type="line"/>
      <point x="135" y="710" type="line"/>
      <point x="47" y="710" type="line"/>
    </contour>
  </outline>
</glyph>
<glyph name="V.color0" format="2">
  <advance width="600"/>
  <unicode hex="0056"/>
  <outline>
    <contour>
      <point x="177" y="0" type="line"/>
      <point x="178" y="0" type="line"/>
      <point x="239" y="72" type="line"/>
      <point x="113" y="710" type="line"/>
      <point x="15" y="710" type="line"/>
      <point x="15" y="709" type="line"/>
    </contour>
  </outline>
</glyph>
<glyph name="V.color1" format="2">
  <advance width="600"/>
  <unicode hex="0056"/>
  <outline>
    <contour>
      <point x="178" y="0" type="line"/>
      <point x="261" y="0" type="line"/>
      <point x="429" y="709" type="line"/>
      <point x="429" y="710" type="line"/>
      <point x="331" y="710" type="line"/>
    </contour>
  </outline>
</glyph>
<glyph name="V" format="2">
  <advance width="443.66667"/>
  <unicode hex="0056"/>
  <outline>
    <contour>
      <point x="177" y="0" type="line"/>
      <point x="178" y="0" type="line"/>
      <point x="239" y="72" type="line"/>
      <point x="113" y="710" type="line"/>
      <point x="15" y="710" type="line"/>
      <point x="15" y="709" type="line"/>
    </contour>
    <contour>
      <point x="178" y="0" type="line"/>
      <point x="261" y="0" type="line"/>
      <point x="429" y="709" type="line"/>
      <point x="429" y="710" type="line"/>
      <point x="331" y="710" type="line"/>
    </contour>
  </outline>
</glyph>
<glyph name="W.color0" format="2">
  <advance width="600"/>
  <unicode hex="0057"/>
  <outline>
    <contour>
      <point x="486" y="0" type="line"/>
      <point x="487" y="0" type="line"/>
      <point x="545" y="72" type="line"/>
      <point x="404" y="710" type="line"/>
      <point x="320" y="710" type="line"/>
    </contour>
  </outline>
</glyph>
<glyph name="W.color1" format="2">
  <advance width="600"/>
  <unicode hex="0057"/>
  <outline>
    <contour>
      <point x="156" y="0" type="line"/>
      <point x="160" y="0" type="line"/>
      <point x="219" y="72" type="line"/>
      <point x="110" y="710" type="line"/>
      <point x="12" y="710" type="line"/>
      <point x="12" y="709" type="line"/>
    </contour>
  </outline>
</glyph>
<glyph name="W.color2" format="2">
  <advance width="600"/>
  <unicode hex="0057"/>
  <outline>
    <contour>
      <point x="160" y="0" type="line"/>
      <point x="236" y="0" type="line"/>
      <point x="404" y="710" type="line"/>
      <point x="320" y="710" type="line"/>
    </contour>
  </outline>
</glyph>
<glyph name="W.color3" format="2">
  <advance width="600"/>
  <unicode hex="0057"/>
  <outline>
    <contour>
      <point x="487" y="0" type="line"/>
      <point x="562" y="0" type="line"/>
      <point x="710" y="709" type="line"/>
      <point x="710" y="710" type="line"/>
      <point x="614" y="710" type="line"/>
    </contour>
  </outline>
</glyph>
<glyph name="W" format="2">
  <advance width="722"/>
  <unicode hex="0057"/>
  <anchor x="361" y="710" name="top"/>
  <outline>
    <contour>
      <point x="486" y="0" type="line"/>
      <point x="487" y="0" type="line"/>
      <point x="545" y="72" type="line"/>
      <point x="404" y="710" type="line"/>
      <point x="320" y="710" type="line"/>
    </contour>
    <contour>
      <point x="156" y="0" type="line"/>
      <point x="160" y="0" type="line"/>
      <point x="219" y="72" type="line"/>
      <point x="110" y="710" type="line"/>
      <point x="12" y="710" type="line"/>
      <point x="12" y="709" type="line"/>
    </contour>
    <contour>
      <point x="160" y="0" type="line"/>
      <point x="236" y="0" type="line"/>
      <point x="404" y="710" type="line"/>
      <point x="320" y="710" type="line"/>
    </contour>
    <contour>
      <point x="487" y="0" type="line"/>
      <point x="562" y="0" type="line"/>
      <point x="710" y="709" type="line"/>
      <point x="710" y="710" type="line"/>
      <point x="614" y="710" type="line"/>
    </contour>
  </outline>
</glyph>
<glyph name="X.color0" format="2">
  <advance width="600"/>
  <unicode hex="0058"/>
  <outline>
    <contour>
      <point x="168" y="355" type="line"/>
      <point x="169" y="355" type="line"/>
      <point x="225" y="418" type="line"/>
      <point x="122" y="710" type="line"/>
      <point x="26" y="710" type="line"/>
      <point x="26" y="709" type="line"/>
    </contour>
  </outline>
</glyph>
<glyph name="X.color1" format="2">
  <advance width="600"/>
  <unicode hex="0058"/>
  <outline>
    <contour>
      <point x="305" y="0" type="line"/>
      <point x="403" y="0" type="line"/>
      <point x="403" y="1" type="line"/>
      <point x="261" y="355" type="line"/>
      <point x="260" y="355" type="line"/>
      <point x="203" y="292" type="line"/>
    </contour>
  </outline>
</glyph>
<glyph name="X.color2" format="2">
  <advance width="600"/>
  <unicode hex="0058"/>
  <outline>
    <contour>
      <point x="23" y="0" type="line"/>
      <point x="123" y="0" type="line"/>
      <point x="260" y="355" type="line"/>
      <point x="168" y="355" type="line"/>
      <point x="23" y="1" type="line"/>
    </contour>
  </outline>
</glyph>
<glyph name="X.color3" format="2">
  <advance width="600"/>
  <unicode hex="0058"/>
  <outline>
    <contour>
      <point x="169" y="355" type="line"/>
      <point x="261" y="355" type="line"/>
      <point x="404" y="709" type="line"/>
      <point x="404" y="710" type="line"/>
      <point x="304" y="710" type="line"/>
    </contour>
  </outline>
</glyph>
<glyph name="X" format="2">
  <advance width="427"/>
  <unicode hex="0058"/>
  <outline>
    <contour>
      <point x="168" y="355" type="line"/>
      <point x="169" y="355" type="line"/>
      <point x="225" y="418" type="line"/>
      <point x="122" y="710" type="line"/>
      <point x="26" y="710" type="line"/>
      <point x="26" y="709" type="line"/>
    </contour>
    <contour>
      <point x="305" y="0" type="line"/>
      <point x="403" y="0" type="line"/>
      <point x="403" y="1" type="line"/>
      <point x="261" y="355" type="line"/>
      <point x="260" y="355" type="line"/>
      <point x="203" y="292" type="line"/>
    </contour>
    <contour>
      <point x="23" y="0" type="line"/>
      <point x="123" y="0" type="line"/>
      <point x="260" y="355" type="line"/>
      <point x="168" y="355" type="line"/>
      <point x="23" y="1" type="line"/>
    </contour>
    <contour>
      <point x="169" y="355" type="line"/>
      <point x="261" y="355" type="line"/>
      <point x="404" y="709" type="line"/>
      <point x="404" y="710" type="line"/>
      <point x="304" y="710" type="line"/>
    </contour>
  </outline>
</glyph>
<glyph name="Y.color0" format="2">
  <advance width="600"/>
  <unicode hex="0059"/>
  <outline>
    <contour>
      <point x="175" y="328" type="line"/>
      <point x="176" y="328" type="line"/>
      <point x="226" y="393" type="line"/>
      <point x="109" y="710" type="line"/>
      <point x="15" y="710" type="line"/>
      <point x="15" y="709" type="line"/>
    </contour>
  </outline>
</glyph>
<glyph name="Y.color1" format="2">
  <advance width="600"/>
  <unicode hex="0059"/>
  <outline>
    <contour>
      <point x="175" y="0" type="line"/>
      <point x="263" y="0" type="line"/>
      <point x="263" y="328" type="line"/>
      <point x="175" y="328" type="line"/>
    </contour>
  </outline>
</glyph>
<glyph name="Y.color2" format="2">
  <advance width="600"/>
  <unicode hex="0059"/>
  <outline>
    <contour>
      <point x="176" y="328" type="line"/>
      <point x="263" y="328" type="line"/>
      <point x="411" y="709" type="line"/>
      <point x="411" y="710" type="line"/>
      <point x="317" y="710" type="line"/>
    </contour>
  </outline>
</glyph>
<glyph name="Z.color0" format="2">
  <advance width="600"/>
  <unicode hex="005A"/>
  <outline>
    <contour>
      <point x="33" y="626" type="line"/>
      <point x="301" y="626" type="line"/>
      <point x="312" y="710" type="line"/>
      <point x="33" y="710" type="line"/>
    </contour>
  </outline>
</glyph>
<glyph name="Z.color2" format="2">
  <advance width="600"/>
  <unicode hex="005A"/>
  <outline>
    <contour>
      <point x="51" y="0" type="line"/>
      <point x="376" y="0" type="line"/>
      <point x="376" y="84" type="line"/>
      <point x="35" y="84" type="line"/>
    </contour>
  </outline>
</glyph>
<glyph name="Z" format="2">
  <advance width="409"/>
  <unicode hex="005A"/>
  <anchor x="208" y="710" name="top"/>
  <outline>
    <contour>
      <point x="33" y="626" type="line"/>
      <point x="301" y="626" type="line"/>
      <point x="312" y="710" type="line"/>
      <point x="33" y="710" type="line"/>
    </contour>
    <contour>
      <point x="118" y="52" type="line"/>
      <point x="374" y="633" type="line"/>
      <point x="312" y="710" type="line"/>
      <point x="35" y="85" type="line"/>
      <point x="35" y="84" type="line"/>
    </contour>
    <contour>
      <point x="51" y="0" type="line"/>
      <point x="376" y="0" type="line"/>
      <point x="376" y="84" type="line"/>
      <point x="35" y="84" type="line"/>
    </contour>
  </outline>
</glyph>
<glyph name="bracketleft.color0" format="2">
  <advance width="600"/>
  <unicode hex="005B"/>
  <outline>
    <contour>
      <point x="53" y="-16" type="line"/>
      <point x="141" y="-16" type="line"/>
      <point x="141" y="710" type="line"/>
      <point x="53" y="710" type="line"/>
    </contour>
  </outline>
</glyph>
<glyph name="bracketleft.color1" format="2">
  <advance width="600"/>
  <unicode hex="005B"/>
  <outline>
    <contour>
      <point x="53" y="-100" type="line"/>
      <point x="288" y="-100" type="line"/>
      <point x="288" y="-16" type="line"/>
      <point x="53" y="-16" type="line"/>
    </contour>
  </outline>
</glyph>
<glyph name="bracketleft.color2" format="2">
  <advance width="600"/>
  <unicode hex="005B"/>
  <outline>
    <contour>
      <point x="141" y="626" type="line"/>
      <point x="288" y="626" type="line"/>
      <point x="288" y="710" type="line"/>
      <point x="141" y="710" type="line"/>
    </contour>
  </outline>
</glyph>
<glyph name="bracketleft" format="2">
  <advance width="306.33333"/>
  <unicode hex="005B"/>
  <outline>
    <contour>
      <point x="53" y="-16" type="line"/>
      <point x="141" y="-16" type="line"/>
      <point x="141" y="710" type="line"/>
      <point x="53" y="710" type="line"/>
    </contour>
    <contour>
      <point x="53" y="-100" type="line"/>
      <point x="288" y="-100" type="line"/>
      <point x="288" y="-16" type="line"/>
      <point x="53" y="-16" type="line"/>
    </contour>
    <contour>
      <point x="141" y="626" type="line"/>
      <point x="288" y="626" type="line"/>
      <point x="288" y="710" type="line"/>
      <point x="141" y="710" type="line"/>
    </contour>
  </outline>
</glyph>
<glyph name="backslash" format="2">
  <advance width="321.33333"/>
  <unicode hex="005C"/>
  <outline>
    <contour>
      <point x="229" y="-100" type="line"/>
      <point x="323" y="-100" type="line"/>
      <point x="323" y="-99" type="line"/>
      <point x="95" y="794" type="line"/>
      <point x="2" y="794" type="line"/>
      <point x="2" y="793" type="line"/>
    </contour>
  </outline>
</glyph>
<glyph name="bracketright.color0" format="2">
  <advance width="600"/>
  <unicode hex="005D"/>
  <outline>
    <contour>
      <point x="172" y="-100" type="line"/>
      <point x="260" y="-100" type="line"/>
      <point x="260" y="626" type="line"/>
      <point x="172" y="626" type="line"/>
    </contour>
  </outline>
</glyph>
<glyph name="bracketright.color1" format="2">
  <advance width="600"/>
  <unicode hex="005D"/>
  <outline>
    <contour>
      <point x="25" y="-100" type="line"/>
      <point x="172" y="-100" type="line"/>
      <point x="172" y="-16" type="line"/>
      <point x="25" y="-16" type="line"/>
    </contour>
  </outline>
</glyph>
<glyph name="bracketright.color2" format="2">
  <advance width="600"/>
  <unicode hex="005D"/>
  <outline>
    <contour>
      <point x="25" y="626" type="line"/>
      <point x="260" y="626" type="line"/>
      <point x="260" y="710" type="line"/>
      <point x="25" y="710" type="line"/>
    </contour>
  </outline>
</glyph>
<glyph name="bracketright" format="2">
  <advance width="313"/>
  <unicode hex="005D"/>
  <outline>
    <contour>
      <point x="172" y="-100" type="line"/>
      <point x="260" y="-100" type="line"/>
      <point x="260" y="626" type="line"/>
      <point x="172" y="626" type="line"/>
    </contour>
    <contour>
      <point x="25" y="-100" type="line"/>
      <point x="172" y="-100" type="line"/>
      <point x="172" y="-16" type="line"/>
      <point x="25" y="-16" type="line"/>
    </contour>
    <contour>
      <point x="25" y="626" type="line"/>
      <point x="260" y="626" type="line"/>
      <point x="260" y="710" type="line"/>
      <point x="25" y="710" type="line"/>
    </contour>
  </outline>
</glyph>
<glyph name="asciicircum.color0" format="2">
  <advance width="600"/>
  <unicode hex="005E"/>
  <outline>
    <contour>
      <point x="47" y="414" type="line"/>
      <point x="139" y="414" type="line"/>
      <point x="254" y="710" type="line"/>
      <point x="172" y="710" type="line"/>
      <point x="47" y="415" type="line"/>
    </contour>
  </outline>
</glyph>
<glyph name="asciicircum.color1" format="2">
  <advance width="600"/>
  <unicode hex="005E"/>
  <outline>
    <contour>
      <point x="279" y="414" type="line"/>
      <point x="371" y="414" type="line"/>
      <point x="371" y="415" type="line"/>
      <point x="254" y="710" type="line"/>
      <point x="172" y="710" type="line"/>
    </contour>
  </outline>
</glyph>
<glyph name="asciicircum" format="2">
  <advance width="417.33333"/>
  <unicode hex="005E"/>
  <outline>
    <contour>
      <point x="47" y="414" type="line"/>
      <point x="139" y="414" type="line"/>
      <point x="254" y="710" type="line"/>
      <point x="172" y="710" type="line"/>
      <point x="47" y="415" type="line"/>
    </contour>
    <contour>
      <point x="279" y="414" type="line"/>
      <point x="371" y="414" type="line"/>
      <point x="371" y="415" type="line"/>
      <point x="254" y="710" type="line"/>
      <point x="172" y="710" type="line"/>
    </contour>
  </outline>
</glyph>
<glyph name="underscore" format="2">
  <advance width="580"/>
  <unicode hex="005F"/>
  <outline>
    <contour>
      <point x="47" y="-78" type="line"/>
      <point x="533" y="-78" type="line"/>
      <point x="533" y="0" type="line"/>
      <point x="47" y="0" type="line"/>
    </contour>
  </outline>
</glyph>
<glyph name="grave" format="2">
  <advance width="600"/>
  <unicode hex="0060"/>
  <anchor x="319" y="510" name="_top"/>
  <outline>
    <contour>
      <point x="297" y="576" type="line"/>
      <point x="349" y="576" type="line"/>
      <point x="320" y="740" type="line"/>
      <point x="241" y="740" type="line"/>
      <point x="241" y="739" type="line"/>
    </contour>
  </outline>
</glyph>
<glyph name="b.color0" format="2">
  <advance width="600"/>
  <unicode hex="0062"/>
  <outline>
    <contour>
      <point x="45" y="84" type="line"/>
      <point x="133" y="84" type="line"/>
      <point x="133" y="752" type="line"/>
      <point x="45" y="752" type="line"/>
    </contour>
  </outline>
</glyph>
<glyph name="b.color3" format="2">
  <advance width="600"/>
  <unicode hex="0062"/>
  <outline>
    <contour>
      <point x="133" y="426" type="line"/>
      <point x="356" y="426" type="line"/>
      <point x="356" y="427" type="line"/>
      <point x="307" y="510" type="line"/>
      <point x="133" y="510" type="line"/>
    </contour>
  </outline>
</glyph>
<glyph name="b" format="2">
  <advance width="401.33333"/>
  <unicode hex="0062"/>
  <outline>
    <contour>
      <point x="45" y="84" type="line"/>
      <point x="133" y="84" type="line"/>
      <point x="133" y="752" type="line"/>
      <point x="45" y="752" type="line"/>
    </contour>
    <contour>
      <point x="95" y="0" type="line"/>
      <point x="269" y="0" type="line"/>
      <point x="269" y="84" type="line"/>
      <point x="45" y="84" type="line"/>
      <point x="45" y="83" type="line"/>
    </contour>
    <contour>
      <point x="269" y="0" type="line"/>
      <point x="270" y="0" type="line"/>
      <point x="356" y="51" type="line"/>
      <point x="356" y="426" type="line"/>
      <point x="269" y="426" type="line"/>
    </contour>
    <contour>
      <point x="133" y="426" type="line"/>
      <point x="356" y="426" type="line"/>
      <point x="356" y="427" type="line"/>
      <point x="307" y="510" type="line"/>
      <point x="133" y="510" type="line"/>
    </contour>
  </outline>
</glyph>
<glyph name="c.color0" format="2">
  <advance width="600"/>
  <unicode hex="0063"/>
  <outline>
    <contour>
      <point x="97" y="0" type="line"/>
      <point x="289" y="0" type="line"/>
      <point x="340" y="83" type="line"/>
      <point x="340" y="84" type="line"/>
      <point x="46" y="84" type="line"/>
      <point x="46" y="83" type="line"/>
    </contour>
  </outline>
</glyph>
<glyph name="c.color1" format="2">
  <advance width="600"/>
  <unicode hex="0063"/>
  <outline>
    <contour>
      <point x="46" y="84" type="line"/>
      <point x="134" y="84" type="line"/>
      <point x="134" y="510" type="line"/>
      <point x="133" y="510" type="line"/>
      <point x="46" y="459" type="line"/>
    </contour>
  </outline>
</glyph>
<glyph name="c" format="2">
  <advance width="363.66667"/>
  <unicode hex="0063"/>
  <anchor x="204" y="0" name="bottom"/>
  <anchor x="209" y="510" name="top"/>
  <outline>
    <contour>
      <point x="97" y="0" type="line"/>
      <point x="289" y="0" type="line"/>
      <point x="340" y="83" type="line"/>
      <point x="340" y="84" type="line"/>
      <point x="46" y="84" type="line"/>
      <point x="46" y="83" type="line"/>
    </contour>
    <contour>
      <point x="46" y="84" type="line"/>
      <point x="134" y="84" type="line"/>
      <point x="134" y="510" type="line"/>
      <point x="133" y="510" type="line"/>
      <point x="46" y="459" type="line"/>
    </contour>
    <contour>
      <point x="134" y="426" type="line"/>
      <point x="347" y="426" type="line"/>
      <point x="347" y="427" type="line"/>
      <point x="296" y="510" type="line"/>
      <point x="134" y="510" type="line"/>
    </contour>
  </outline>
</glyph>
<glyph name="d.color0" format="2">
  <advance width="600"/>
  <unicode hex="0064"/>
  <outline>
    <contour>
      <point x="358" y="427" type="line"/>
      <point x="359" y="427" type="line"/>
      <point x="359" y="752" type="line"/>
      <point x="271" y="752" type="line"/>
      <point x="271" y="510" type="line"/>
    </contour>
  </outline>
</glyph>
<glyph name="d.color1" format="2">
  <advance width="600"/>
  <unicode hex="0064"/>
  <outline>
    <contour>
      <point x="136" y="426" type="line"/>
      <point x="359" y="426" type="line"/>
      <point x="359" y="427" type="line"/>
      <point x="290" y="510" type="line"/>
      <point x="136" y="510" type="line"/>
    </contour>
  </outline>
</glyph>
<glyph name="d.color3" format="2">
  <advance width="600"/>
  <unicode hex="0064"/>
  <outline>
    <contour>
      <point x="48" y="84" type="line"/>
      <point x="136" y="84" type="line"/>
      <point x="136" y="510" type="line"/>
      <point x="135" y="510" type="line"/>
      <point x="48" y="459" type="line"/>
    </contour>
  </outline>
</glyph>
<glyph name="d.color4" format="2">
  <advance width="600"/>
  <unicode hex="0064"/>
  <outline>
    <contour>
      <point x="271" y="0" type="line"/>
      <point x="272" y="0" type="line"/>
      <point x="359" y="51" type="line"/>
      <point x="359" y="426" type="line"/>
      <point x="271" y="426" type="line"/>
    </contour>
  </outline>
</glyph>
<glyph name="e.color1" format="2">
  <advance width="600"/>
  <unicode hex="0065"/>
  <outline>
    <contour>
      <point x="48" y="82" type="line"/>
      <point x="136" y="82" type="line"/>
      <point x="136" y="510" type="line"/>
      <point x="135" y="510" type="line"/>
      <point x="48" y="459" type="line"/>
    </contour>
  </outline>
</glyph>
<glyph name="e" format="2">
  <advance width="410.33333"/>
  <unicode hex="0065"/>
  <anchor x="211" y="0" name="bottom"/>
  <anchor x="214" y="510" name="top"/>
  <outline>
    <contour>
      <point x="99" y="0" type="line"/>
      <point x="318" y="0" type="line"/>
      <point x="369" y="81" type="line"/>
      <point x="369" y="82" type="line"/>
      <point x="48" y="82" type="line"/>
      <point x="48" y="81" type="line"/>
    </contour>
    <contour>
      <point x="48" y="82" type="line"/>
      <point x="136" y="82" type="line"/>
      <point x="136" y="510" type="line"/>
      <point x="135" y="510" type="line"/>
      <point x="48" y="459" type="line"/>
    </contour>
    <contour>
      <point x="136" y="208" type="line"/>
      <point x="281" y="208" type="line"/>
      <point x="281" y="261" type="line"/>
      <point x="136" y="261" type="line"/>
    </contour>
    <contour>
      <point x="136" y="434" type="line"/>
      <point x="369" y="434" type="line"/>
      <point x="369" y="435" type="line"/>
      <point x="318" y="510" type="line"/>
      <point x="136" y="510" type="line"/>
    </contour>
    <contour>
      <point x="281" y="208" type="line"/>
      <point x="282" y="208" type="line"/>
      <point x="369" y="259" type="line"/>
      <point x="369" y="434" type="line"/>
      <point x="281" y="434" type="line"/>
    </contour>
  </outline>
</glyph>
<glyph name="f.color0" format="2">
  <advance width="600"/>
  <unicode hex="0066"/>
  <outline>
    <contour>
      <point x="132" y="293" type="line"/>
      <point x="280" y="293" type="line"/>
      <point x="280" y="377" type="line"/>
      <point x="46" y="377" type="line"/>
    </contour>
  </outline>
</glyph>
<glyph name="f.color1" format="2">
  <advance width="600"/>
  <unicode hex="0066"/>
  <outline>
    <contour>
      <point x="45" y="0" type="line"/>
      <point x="132" y="0" type="line"/>
      <point x="132" y="293" type="line"/>
      <point x="46" y="377" type="line"/>
      <point x="45" y="377" type="line"/>
    </contour>
  </outline>
</glyph>
<glyph name="f.color2" format="2">
  <advance width="600"/>
  <unicode hex="0066"/>
  <outline>
    <contour>
      <point x="45" y="377" type="line"/>
      <point x="132" y="377" type="line"/>
      <point x="132" y="701" type="line"/>
      <point x="131" y="701" type="line"/>
      <point x="45" y="650" type="line"/>
    </contour>
  </outline>
</glyph>
<glyph name="f.color3" format="2">
  <advance width="600"/>
  <unicode hex="0066"/>
  <outline>
    <contour>
      <point x="132" y="617" type="line"/>
      <point x="297" y="617" type="line"/>
      <point x="297" y="618" type="line"/>
      <point x="274" y="701" type="line"/>
      <point x="132" y="701" type="line"/>
    </contour>
  </outline>
</glyph>
<glyph name="f" format="2">
  <advance width="310.66667"/>
  <unicode hex="0066"/>
  <outline>
    <contour>
      <point x="132" y="293" type="line"/>
      <point x="280" y="293" type="line"/>
      <point x="280" y="377" type="line"/>
      <point x="46" y="377" type="line"/>
    </contour>
    <contour>
      <point x="45" y="0" type="line"/>
      <point x="132" y="0" type="line"/>
      <point x="132" y="293" type="line"/>
      <point x="46" y="377" type="line"/>
      <point x="45" y="377" type="line"/>
    </contour>
    <contour>
      <point x="45" y="377" type="line"/>
      <point x="132" y="377" type="line"/>
      <point x="132" y="701" type="line"/>
      <point x="131" y="701" type="line"/>
      <point x="45" y="650" type="line"/>
    </contour>
    <contour>
      <point x="132" y="617" type="line"/>
      <point x="297" y="617" type="line"/>
      <point x="297" y="618" type="line"/>
      <point x="274" y="701" type="line"/>
      <point x="132" y="701" type="line"/>
    </contour>
  </outline>
</glyph>
<glyph name="g.color1" format="2">
  <advance width="600"/>
  <unicode hex="0067"/>
  <outline>
    <contour>
      <point x="79" y="-202" type="line"/>
      <point x="259" y="-202" type="line"/>
      <point x="259" y="-126" type="line"/>
      <point x="45" y="-126" type="line"/>
      <point x="45" y="-127" type="line"/>
    </contour>
  </outline>
</glyph>
<glyph name="g.color2" format="2">
  <advance width="600"/>
  <unicode hex="0067"/>
  <outline>
    <contour>
      <point x="95" y="0" type="line"/>
      <point x="259" y="0" type="line"/>
      <point x="259" y="84" type="line"/>
      <point x="45" y="84" type="line"/>
      <point x="45" y="83" type="line"/>
    </contour>
  </outline>
</glyph>
<glyph name="h.color0" format="2">
  <advance width="600"/>
  <unicode hex="0068"/>
  <outline>
    <contour>
      <point x="45" y="0" type="line"/>
      <point x="132" y="0" type="line"/>
      <point x="132" y="752" type="line"/>
      <point x="45" y="752" type="line"/>
    </contour>
  </outline>
</glyph>
<glyph name="h.color2" format="2">
  <advance width="600"/>
  <unicode hex="0068"/>
  <outline>
    <contour>
      <point x="132" y="426" type="line"/>
      <point x="355" y="426" type="line"/>
      <point x="355" y="427" type="line"/>
      <point x="304" y="510" type="line"/>
      <point x="132" y="510" type="line"/>
    </contour>
  </outline>
</glyph>
<glyph name="h" format="2">
  <advance width="400.33333"/>
  <unicode hex="0068"/>
  <anchor x="156" y="599" name="stroke"/>
  <anchor x="262" y="510" name="top"/>
  <outline>
    <contour>
      <point x="45" y="0" type="line"/>
      <point x="132" y="0" type="line"/>
      <point x="132" y="752" type="line"/>
      <point x="45" y="752" type="line"/>
    </contour>
    <contour>
      <point x="268" y="-4" type="line"/>
      <point x="269" y="-4" type="line"/>
      <point x="355" y="27" type="line"/>
      <point x="355" y="426" type="line"/>
      <point x="268" y="426" type="line"/>
    </contour>
    <contour>
      <point x="132" y="426" type="line"/>
      <point x="355" y="426" type="line"/>
      <point x="355" y="427" type="line"/>
      <point x="304" y="510" type="line"/>
      <point x="132" y="510" type="line"/>
    </contour>
  </outline>
</glyph>
<glyph name="i.color0" format="2">
  <advance width="600"/>
  <unicode hex="0069"/>
  <outline>
    <contour>
      <point x="48" y="0" type="line"/>
      <point x="136" y="0" type="line"/>
      <point x="136" y="503" type="line"/>
      <point x="135" y="503" type="line"/>
      <point x="48" y="451" type="line"/>
    </contour>
  </outline>
</glyph>
<glyph name="i" format="2">
  <advance width="184"/>
  <unicode hex="0069"/>
  <anchor x="92" y="0" name="bottom"/>
  <outline>
    <contour>
      <point x="48" y="0" type="line"/>
      <point x="136" y="0" type="line"/>
      <point x="136" y="503" type="line"/>
      <point x="135" y="503" type="line"/>
      <point x="48" y="451" type="line"/>
    </contour>
    <contour>
      <point x="48" y="518" type="line"/>
      <point x="49" y="518" type="line"/>
      <point x="136" y="569" type="line"/>
      <point x="136" y="637" type="line"/>
      <point x="48" y="637" type="line"/>
    </contour>
  </outline>
</glyph>
<glyph name="j.color0" format="2">
  <advance width="600"/>
  <unicode hex="006A"/>
  <outline>
    <contour>
      <point x="54" y="-202" type="line"/>
      <point x="55" y="-202" type="line"/>
      <point x="134" y="-151" type="line"/>
      <point x="134" y="503" type="line"/>
      <point x="133" y="503" type="line"/>
      <point x="54" y="451" type="line"/>
    </contour>
  </outline>
</glyph>
<glyph name="j.color1" format="2">
  <advance width="600"/>
  <unicode hex="006A"/>
  <outline>
    <contour>
      <point x="-58" y="-202" type="line"/>
      <point x="54" y="-202" type="line"/>
      <point x="54" y="-126" type="line"/>
      <point x="-58" y="-126" type="line"/>
    </contour>
  </outline>
</glyph>
<glyph name="j.color2" format="2">
  <advance width="600"/>
  <unicode hex="006A"/>
  <outline>
    <contour>
      <point x="54" y="518" type="line"/>
      <point x="55" y="518" type="line"/>
      <point x="134" y="569" type="line"/>
      <point x="134" y="637" type="line"/>
      <point x="54" y="637" type="line"/>
    </contour>
  </outline>
</glyph>
<glyph name="j" format="2">
  <advance width="183"/>
  <unicode hex="006A"/>
  <outline>
    <contour>
      <point x="54" y="-202" type="line"/>
      <point x="55" y="-202" type="line"/>
      <point x="134" y="-151" type="line"/>
      <point x="134" y="503" type="line"/>
      <point x="133" y="503" type="line"/>
      <point x="54" y="451" type="line"/>
    </contour>
    <contour>
      <point x="-58" y="-202" type="line"/>
      <point x="54" y="-202" type="line"/>
      <point x="54" y="-126" type="line"/>
      <point x="-58" y="-126" type="line"/>
    </contour>
    <contour>
      <point x="54" y="518" type="line"/>
      <point x="55" y="518" type="line"/>
      <point x="134" y="569" type="line"/>
      <point x="134" y="637" type="line"/>
      <point x="54" y="637" type="line"/>
    </contour>
  </outline>
</glyph>
<glyph name="k.color0" format="2">
  <advance width="600"/>
  <unicode hex="006B"/>
  <outline>
    <contour>
      <point x="45" y="0" type="line"/>
      <point x="132" y="0" type="line"/>
      <point x="132" y="752" type="line"/>
      <point x="45" y="752" type="line"/>
    </contour>
  </outline>
</glyph>
<glyph name="k.color1" format="2">
  <advance width="600"/>
  <unicode hex="006B"/>
  <outline>
    <contour>
      <point x="284" y="0" type="line"/>
      <point x="371" y="0" type="line"/>
      <point x="371" y="299" type="line"/>
      <point x="284" y="299" type="line"/>
    </contour>
  </outline>
</glyph>
<glyph name="l.color1" format="2">
  <advance width="600"/>
  <unicode hex="006C"/>
  <outline>
    <contour>
      <point x="132" y="0" type="line"/>
      <point x="244" y="0" type="line"/>
      <point x="244" y="84" type="line"/>
      <point x="132" y="84" type="line"/>
    </contour>
  </outline>
</glyph>
<glyph name="l" format="2">
  <advance width="269.33333"/>
  <unicode hex="006C"/>
  <anchor x="148" y="0" name="bottom"/>
  <anchor x="99" y="752" name="top"/>
  <outline>
    <contour>
      <point x="131" y="0" type="line"/>
      <point x="132" y="0" type="line"/>
      <point x="132" y="752" type="line"/>
      <point x="45" y="752" type="line"/>
      <point x="45" y="51" type="line"/>
    </contour>
    <contour>
      <point x="132" y="0" type="line"/>
      <point x="244" y="0" type="line"/>
      <point x="244" y="84" type="line"/>
      <point x="132" y="84" type="line"/>
    </contour>
  </outline>
</glyph>
<glyph name="m.color2" format="2">
  <advance width="600"/>
  <unicode hex="006D"/>
  <outline>
    <contour>
      <point x="132" y="426" type="line"/>
      <point x="329" y="426" type="line"/>
      <point x="329" y="427" type="line"/>
      <point x="291" y="510" type="line"/>
      <point x="132" y="510" type="line"/>
    </contour>
  </outline>
</glyph>
<glyph name="m.color3" format="2">
  <advance width="600"/>
  <unicode hex="006D"/>
  <outline>
    <contour>
      <point x="444" y="-4" type="line"/>
      <point x="445" y="-4" type="line"/>
      <point x="532" y="27" type="line"/>
      <point x="532" y="426" type="line"/>
      <point x="444" y="426" type="line"/>
    </contour>
  </outline>
</glyph>
<glyph name="m" format="2">
  <advance width="576.66667"/>
  <unicode hex="006D"/>
  <outline>
    <contour>
      <point x="45" y="0" type="line"/>
      <point x="132" y="0" type="line"/>
      <point x="132" y="510" type="line"/>
      <point x="131" y="510" type="line"/>
      <point x="45" y="459" type="line"/>
    </contour>
    <contour>
      <point x="248" y="0" type="line"/>
      <point x="329" y="0" type="line"/>
      <point x="329" y="426" type="line"/>
      <point x="248" y="426" type="line"/>
    </contour>
    <contour>
      <point x="132" y="426" type="line"/>
      <point x="329" y="426" type="line"/>
      <point x="329" y="427" type="line"/>
      <point x="291" y="510" type="line"/>
      <point x="132" y="510" type="line"/>
    </contour>
    <contour>
      <point x="444" y="-4" type="line"/>
      <point x="445" y="-4" type="line"/>
      <point x="532" y="27" type="line"/>
      <point x="532" y="426" type="line"/>
      <point x="444" y="426" type="line"/>
    </contour>
    <contour>
      <point x="329" y="426" type="line"/>
      <point x="532" y="426" type="line"/>
      <point x="532" y="427" type="line"/>
      <point x="481" y="510" type="line"/>
      <point x="329" y="510" type="line"/>
    </contour>
  </outline>
</glyph>
<glyph name="n.color1" format="2">
  <advance width="600"/>
  <unicode hex="006E"/>
  <outline>
    <contour>
      <point x="268" y="-4" type="line"/>
      <point x="269" y="-4" type="line"/>
      <point x="356" y="27" type="line"/>
      <point x="356" y="426" type="line"/>
      <point x="268" y="426" type="line"/>
    </contour>
  </outline>
</glyph>
<glyph name="n" format="2">
  <advance width="401"/>
  <unicode hex="006E"/>
  <anchor x="206" y="0" name="bottom"/>
  <anchor x="216" y="510" name="top"/>
  <outline>
    <contour>
      <point x="45" y="0" type="line"/>
      <point x="132" y="0" type="line"/>
      <point x="132" y="510" type="line"/>
      <point x="131" y="510" type="line"/>
      <point x="45" y="459" type="line"/>
    </contour>
    <contour>
      <point x="268" y="-4" type="line"/>
      <point x="269" y="-4" type="line"/>
      <point x="356" y="27" type="line"/>
      <point x="356" y="426" type="line"/>
      <point x="268" y="426" type="line"/>
    </contour>
    <contour>
      <point x="132" y="426" type="line"/>
      <point x="356" y="426" type="line"/>
      <point x="356" y="427" type="line"/>
      <point x="305" y="510" type="line"/>
      <point x="132" y="510" type="line"/>
    </contour>
  </outline>
</glyph>
<glyph name="p.color0" format="2">
  <advance width="600"/>
  <unicode hex="0070"/>
  <outline>
    <contour>
      <point x="132" y="426" type="line"/>
      <point x="355" y="426" type="line"/>
      <point x="355" y="427" type="line"/>
      <point x="306" y="510" type="line"/>
      <point x="132" y="510" type="line"/>
    </contour>
  </outline>
</glyph>
<glyph name="p.color2" format="2">
  <advance width="600"/>
  <unicode hex="0070"/>
  <outline>
    <contour>
      <point x="115" y="0" type="line"/>
      <point x="269" y="0" type="line"/>
      <point x="269" y="84" type="line"/>
      <point x="45" y="84" type="line"/>
      <point x="45" y="83" type="line"/>
    </contour>
  </outline>
</glyph>
<glyph name="p.color4" format="2">
  <advance width="600"/>
  <unicode hex="0070"/>
  <outline>
    <contour>
      <point x="269" y="0" type="line"/>
      <point x="270" y="0" type="line"/>
      <point x="355" y="51" type="line"/>
      <point x="355" y="426" type="line"/>
      <point x="269" y="426" type="line"/>
    </contour>
  </outline>
</glyph>
<glyph name="p" format="2">
  <advance width="400.66667"/>
  <unicode hex="0070"/>
  <outline>
    <contour>
      <point x="132" y="426" type="line"/>
      <point x="355" y="426" type="line"/>
      <point x="355" y="427" type="line"/>
      <point x="306" y="510" type="line"/>
      <point x="132" y="510" type="line"/>
    </contour>
    <contour>
      <point x="45" y="-200" type="line"/>
      <point x="132" y="-200" type="line"/>
      <point x="132" y="0" type="line"/>
      <point x="46" y="83" type="line"/>
      <point x="45" y="83" type="line"/>
    </contour>
    <contour>
      <point x="115" y="0" type="line"/>
      <point x="269" y="0" type="line"/>
      <point x="269" y="84" type="line"/>
      <point x="45" y="84" type="line"/>
      <point x="45" y="83" type="line"/>
    </contour>
    <contour>
      <point x="45" y="84" type="line"/>
      <point x="132" y="84" type="line"/>
      <point x="132" y="510" type="line"/>
      <point x="131" y="510" type="line"/>
      <point x="45" y="459" type="line"/>
    </contour>
    <contour>
      <point x="269" y="0" type="line"/>
      <point x="270" y="0" type="line"/>
      <point x="355" y="51" type="line"/>
      <point x="355" y="426" type="line"/>
      <point x="269" y="426" type="line"/>
    </contour>
  </outline>
</glyph>
<glyph name="q.color1" format="2">
  <advance width="600"/>
  <unicode hex="0071"/>
  <outline>
    <contour>
      <point x="95" y="0" type="line"/>
      <point x="269" y="0" type="line"/>
      <point x="269" y="84" type="line"/>
      <point x="45" y="84" type="line"/>
      <point x="45" y="83" type="line"/>
    </contour>
  </outline>
</glyph>
<glyph name="s.color0" format="2">
  <advance width="600"/>
  <unicode hex="0073"/>
  <outline>
    <contour>
      <point x="90" y="434" type="line"/>
      <point x="301" y="434" type="line"/>
      <point x="301" y="435" type="line"/>
      <point x="250" y="510" type="line"/>
      <point x="80" y="510" type="line"/>
    </contour>
  </outline>
</glyph>
<glyph name="s.color2" format="2">
  <advance width="600"/>
  <unicode hex="0073"/>
  <outline>
    <contour>
      <point x="82" y="0" type="line"/>
      <point x="254" y="0" type="line"/>
      <point x="305" y="76" type="line"/>
      <point x="31" y="76" type="line"/>
      <point x="31" y="75" type="line"/>
    </contour>
  </outline>
</glyph>
<glyph name="t" format="2">
  <advance width="312"/>
  <unicode hex="0074"/>
  <anchor x="178" y="0" name="bottom"/>
  <anchor x="112" y="712" name="top"/>
  <outline>
    <contour>
      <point x="45" y="426" type="line"/>
      <point x="46" y="426" type="line"/>
      <point x="132" y="510" type="line"/>
      <point x="132" y="681" type="line"/>
      <point x="45" y="681" type="line"/>
    </contour>
    <contour>
      <point x="46" y="426" type="line"/>
      <point x="259" y="426" type="line"/>
      <point x="259" y="510" type="line"/>
      <point x="132" y="510" type="line"/>
    </contour>
    <contour>
      <point x="131" y="0" type="line"/>
      <point x="132" y="0" type="line"/>
      <point x="132" y="426" type="line"/>
      <point x="45" y="426" type="line"/>
      <point x="45" y="51" type="line"/>
    </contour>
    <contour>
      <point x="132" y="0" type="line"/>
      <point x="289" y="0" type="line"/>
      <point x="312" y="83" type="line"/>
      <point x="312" y="84" type="line"/>
      <point x="132" y="84" type="line"/>
    </contour>
  </outline>
</glyph>
<glyph name="u.color2" format="2">
  <advance width="600"/>
  <unicode hex="0075"/>
  <outline>
    <contour>
      <point x="45" y="84" type="line"/>
      <point x="132" y="84" type="line"/>
      <point x="132" y="516" type="line"/>
      <point x="131" y="516" type="line"/>
      <point x="45" y="485" type="line"/>
    </contour>
  </outline>
</glyph>
<glyph name="u" format="2">
  <advance width="400.33333"/>
  <unicode hex="0075"/>
  <anchor x="208" y="0" name="bottom"/>
  <anchor x="339" y="510" name="horn"/>
  <anchor x="208" y="510" name="top"/>
  <outline>
    <contour>
      <point x="268" y="0" type="line"/>
      <point x="269" y="0" type="line"/>
      <point x="355" y="0" type="line"/>
      <point x="355" y="510" type="line"/>
      <point x="268" y="510" type="line"/>
    </contour>
    <contour>
      <point x="96" y="0" type="line"/>
      <point x="268" y="0" type="line"/>
      <point x="268" y="84" type="line"/>
      <point x="45" y="84" type="line"/>
      <point x="45" y="83" type="line"/>
    </contour>
    <contour>
      <point x="45" y="84" type="line"/>
      <point x="132" y="84" type="line"/>
      <point x="132" y="516" type="line"/>
      <point x="131" y="516" type="line"/>
      <point x="45" y="485" type="line"/>
    </contour>
  </outline>
</glyph>
<glyph name="v.color2" format="2">
  <advance width="600"/>
  <unicode hex="0076"/>
  <outline>
    <contour>
      <point x="45" y="84" type="line"/>
      <point x="132" y="84" type="line"/>
      <point x="132" y="512" type="line"/>
      <point x="131" y="512" type="line"/>
      <point x="45" y="496" type="line"/>
    </contour>
  </outline>
</glyph>
<glyph name="v" format="2">
  <advance width="390.33333"/>
  <unicode hex="0076"/>
  <outline>
    <contour>
      <point x="258" y="0" type="line"/>
      <point x="259" y="0" type="line"/>
      <point x="345" y="83" type="line"/>
      <point x="345" y="510" type="line"/>
      <point x="258" y="510" type="line"/>
    </contour>
    <contour>
      <point x="83" y="0" type="line"/>
      <point x="258" y="0" type="line"/>
      <point x="258" y="84" type="line"/>
      <point x="45" y="84" type="line"/>
      <point x="45" y="83" type="line"/>
    </contour>
    <contour>
      <point x="45" y="84" type="line"/>
      <point x="132" y="84" type="line"/>
      <point x="132" y="512" type="line"/>
      <point x="131" y="512" type="line"/>
      <point x="45" y="496" type="line"/>
    </contour>
  </outline>
</glyph>
<glyph name="w.color1" format="2">
  <advance width="600"/>
  <unicode hex="0077"/>
  <outline>
    <contour>
      <point x="96" y="0" type="line"/>
      <point x="248" y="0" type="line"/>
      <point x="248" y="84" type="line"/>
      <point x="45" y="84" type="line"/>
      <point x="45" y="83" type="line"/>
    </contour>
  </outline>
</glyph>
<glyph name="w.color3" format="2">
  <advance width="600"/>
  <unicode hex="0077"/>
  <outline>
    <contour>
      <point x="286" y="0" type="line"/>
      <point x="444" y="0" type="line"/>
      <point x="444" y="84" type="line"/>
      <point x="248" y="84" type="line"/>
      <point x="248" y="83" type="line"/>
    </contour>
  </outline>
</glyph>
<glyph name="w.color4" format="2">
  <advance width="600"/>
  <unicode hex="0077"/>
  <outline>
    <contour>
      <point x="248" y="84" type="line"/>
      <point x="329" y="84" type="line"/>
      <point x="329" y="513" type="line"/>
      <point x="328" y="513" type="line"/>
      <point x="248" y="497" type="line"/>
    </contour>
  </outline>
</glyph>
<glyph name="w" format="2">
  <advance width="576.66667"/>
  <unicode hex="0077"/>
  <anchor x="294" y="510" name="top"/>
  <outline>
    <contour>
      <point x="444" y="0" type="line"/>
      <point x="445" y="0" type="line"/>
      <point x="532" y="83" type="line"/>
      <point x="532" y="510" type="line"/>
      <point x="444" y="510" type="line"/>
    </contour>
    <contour>
      <point x="96" y="0" type="line"/>
      <point x="248" y="0" type="line"/>
      <point x="248" y="84" type="line"/>
      <point x="45" y="84" type="line"/>
      <point x="45" y="83" type="line"/>
    </contour>
    <contour>
      <point x="45" y="84" type="line"/>
      <point x="132" y="84" type="line"/>
      <point x="132" y="515" type="line"/>
      <point x="131" y="515" type="line"/>
      <point x="45" y="484" type="line"/>
    </contour>
    <contour>
      <point x="286" y="0" type="line"/>
      <point x="444" y="0" type="line"/>
      <point x="444" y="84" type="line"/>
      <point x="248" y="84" type="line"/>
      <point x="248" y="83" type="line"/>
    </contour>
    <contour>
      <point x="248" y="84" type="line"/>
      <point x="329" y="84" type="line"/>
      <point x="329" y="513" type="line"/>
      <point x="328" y="513" type="line"/>
      <point x="248" y="497" type="line"/>
    </contour>
  </outline>
</glyph>
<glyph name="x.color0" format="2">
  <advance width="600"/>
  <unicode hex="0078"/>
  <outline>
    <contour>
      <point x="143" y="255" type="line"/>
      <point x="144" y="255" type="line"/>
      <point x="210" y="296" type="line"/>
      <point x="118" y="510" type="line"/>
      <point x="14" y="510" type="line"/>
      <point x="14" y="509" type="line"/>
    </contour>
  </outline>
</glyph>
<glyph name="x.color1" format="2">
  <advance width="600"/>
  <unicode hex="0078"/>
  <outline>
    <contour>
      <point x="267" y="0" type="line"/>
      <point x="371" y="0" type="line"/>
      <point x="371" y="1" type="line"/>
      <point x="241" y="255" type="line"/>
      <point x="240" y="255" type="line"/>
      <point x="178" y="214" type="line"/>
    </contour>
  </outline>
</glyph>
<glyph name="x.color2" format="2">
  <advance width="600"/>
  <unicode hex="0078"/>
  <outline>
    <contour>
      <point x="19" y="0" type="line"/>
      <point x="116" y="0" type="line"/>
      <point x="240" y="255" type="line"/>
      <point x="143" y="255" type="line"/>
      <point x="19" y="1" type="line"/>
    </contour>
  </outline>
</glyph>
<glyph name="x.color3" format="2">
  <advance width="600"/>
  <unicode hex="0078"/>
  <outline>
    <contour>
      <point x="144" y="255" type="line"/>
      <point x="241" y="255" type="line"/>
      <point x="364" y="509" type="line"/>
      <point x="364" y="510" type="line"/>
      <point x="267" y="510" type="line"/>
    </contour>
  </outline>
</glyph>
<glyph name="x" format="2">
  <advance width="385"/>
  <unicode hex="0078"/>
  <outline>
    <contour>
      <point x="143" y="255" type="line"/>
      <point x="144" y="255" type="line"/>
      <point x="210" y="296" type="line"/>
      <point x="118" y="510" type="line"/>
      <point x="14" y="510" type="line"/>
      <point x="14" y="509" type="line"/>
    </contour>
    <contour>
      <point x="267" y="0" type="line"/>
      <point x="371" y="0" type="line"/>
      <point x="371" y="1" type="line"/>
      <point x="241" y="255" type="line"/>
      <point x="240" y="255" type="line"/>
      <point x="178" y="214" type="line"/>
    </contour>
    <contour>
      <point x="19" y="0" type="line"/>
      <point x="116" y="0" type="line"/>
      <point x="240" y="255" type="line"/>
      <point x="143" y="255" type="line"/>
      <point x="19" y="1" type="line"/>
    </contour>
    <contour>
      <point x="144" y="255" type="line"/>
      <point x="241" y="255" type="line"/>
      <point x="364" y="509" type="line"/>
      <point x="364" y="510" type="line"/>
      <point x="267" y="510" type="line"/>
    </contour>
  </outline>
</glyph>
<glyph name="z.color0" format="2">
  <advance width="600"/>
  <unicode hex="007A"/>
  <outline>
    <contour>
      <point x="27" y="434" type="line"/>
      <point x="297" y="434" type="line"/>
      <point x="308" y="510" type="line"/>
      <point x="63" y="510" type="line"/>
      <point x="27" y="435" type="line"/>
    </contour>
  </outline>
</glyph>
<glyph name="z.color1" format="2">
  <advance width="600"/>
  <unicode hex="007A"/>
  <outline>
    <contour>
      <point x="122" y="66" type="line"/>
      <point x="353" y="433" type="line"/>
      <point x="308" y="510" type="line"/>
      <point x="25" y="77" type="line"/>
      <point x="25" y="76" type="line"/>
    </contour>
  </outline>
</glyph>
<glyph name="z.color2" format="2">
  <advance width="600"/>
  <unicode hex="007A"/>
  <outline>
    <contour>
      <point x="76" y="0" type="line"/>
      <point x="351" y="0" type="line"/>
      <point x="351" y="76" type="line"/>
      <point x="25" y="76" type="line"/>
    </contour>
  </outline>
</glyph>
<glyph name="z" format="2">
  <advance width="378"/>
  <unicode hex="007A"/>
  <anchor x="195" y="510" name="top"/>
  <outline>
    <contour>
      <point x="27" y="434" type="line"/>
      <point x="297" y="434" type="line"/>
      <point x="308" y="510" type="line"/>
      <point x="63" y="510" type="line"/>
      <point x="27" y="435" type="line"/>
    </contour>
    <contour>
      <point x="122" y="66" type="line"/>
      <point x="353" y="433" type="line"/>
      <point x="308" y="510" type="line"/>
      <point x="25" y="77" type="line"/>
      <point x="25" y="76" type="line"/>
    </contour>
    <contour>
      <point x="76" y="0" type="line"/>
      <point x="351" y="0" type="line"/>
      <point x="351" y="76" type="line"/>
      <point x="25" y="76" type="line"/>
    </contour>
  </outline>
</glyph>
<glyph name="braceleft.color1" format="2">
  <advance width="600"/>
  <unicode hex="007B"/>
  <outline>
    <contour>
      <point x="53" y="266" type="line"/>
      <point x="134" y="266" type="line"/>
      <point x="134" y="350" type="line"/>
      <point x="53" y="350" type="line"/>
    </contour>
  </outline>
</glyph>
<glyph name="braceleft.color2" format="2">
  <advance width="600"/>
  <unicode hex="007B"/>
  <outline>
    <contour>
      <point x="222" y="626" type="line"/>
      <point x="352" y="626" type="line"/>
      <point x="352" y="710" type="line"/>
      <point x="222" y="710" type="line"/>
    </contour>
  </outline>
</glyph>
<glyph name="braceleft.color3" format="2">
  <advance width="600"/>
  <unicode hex="007B"/>
  <outline>
    <contour>
      <point x="134" y="-84" type="line"/>
      <point x="222" y="-100" type="line"/>
      <point x="222" y="267" type="line"/>
      <point x="135" y="350" type="line"/>
      <point x="134" y="350" type="line"/>
    </contour>
  </outline>
</glyph>
<glyph name="braceleft.color4" format="2">
  <advance width="600"/>
  <unicode hex="007B"/>
  <outline>
    <contour>
      <point x="134" y="266" type="line"/>
      <point x="135" y="266" type="line"/>
      <point x="222" y="348" type="line"/>
      <point x="222" y="710" type="line"/>
      <point x="134" y="694" type="line"/>
    </contour>
  </outline>
</glyph>
<glyph name="braceleft" format="2">
  <advance width="370.33333"/>
  <unicode hex="007B"/>
  <outline>
    <contour>
      <point x="222" y="-100" type="line"/>
      <point x="352" y="-100" type="line"/>
      <point x="352" y="-16" type="line"/>
      <point x="222" y="-16" type="line"/>
    </contour>
    <contour>
      <point x="53" y="266" type="line"/>
      <point x="134" y="266" type="line"/>
      <point x="134" y="350" type="line"/>
      <point x="53" y="350" type="line"/>
    </contour>
    <contour>
      <point x="222" y="626" type="line"/>
      <point x="352" y="626" type="line"/>
      <point x="352" y="710" type="line"/>
      <point x="222" y="710" type="line"/>
    </contour>
    <contour>
      <point x="134" y="-84" type="line"/>
      <point x="222" y="-100" type="line"/>
      <point x="222" y="267" type="line"/>
      <point x="135" y="350" type="line"/>
      <point x="134" y="350" type="line"/>
    </contour>
    <contour>
      <point x="134" y="266" type="line"/>
      <point x="135" y="266" type="line"/>
      <point x="222" y="348" type="line"/>
      <point x="222" y="710" type="line"/>
      <point x="134" y="694" type="line"/>
    </contour>
  </outline>
</glyph>
<glyph name="bar" format="2">
  <advance width="176"/>
  <unicode hex="007C"/>
  <outline>
    <contour>
      <point x="47" y="-100" type="line"/>
      <point x="129" y="-100" type="line"/>
      <point x="129" y="796" type="line"/>
      <point x="47" y="796" type="line"/>
    </contour>
  </outline>
</glyph>
<glyph name="braceright.color0" format="2">
  <advance width="600"/>
  <unicode hex="007D"/>
  <outline>
    <contour>
      <point x="249" y="260" type="line"/>
      <point x="250" y="260" type="line"/>
      <point x="250" y="694" type="line"/>
      <point x="162" y="710" type="line"/>
      <point x="162" y="343" type="line"/>
    </contour>
  </outline>
</glyph>
<glyph name="braceright.color4" format="2">
  <advance width="600"/>
  <unicode hex="007D"/>
  <outline>
    <contour>
      <point x="162" y="-100" type="line"/>
      <point x="250" y="-84" type="line"/>
      <point x="250" y="344" type="line"/>
      <point x="249" y="344" type="line"/>
      <point x="162" y="262" type="line"/>
    </contour>
  </outline>
</glyph>
<glyph name="braceright" format="2">
  <advance width="383.66667"/>
  <unicode hex="007D"/>
  <outline>
    <contour>
      <point x="249" y="260" type="line"/>
      <point x="250" y="260" type="line"/>
      <point x="250" y="694" type="line"/>
      <point x="162" y="710" type="line"/>
      <point x="162" y="343" type="line"/>
    </contour>
    <contour>
      <point x="32" y="-100" type="line"/>
      <point x="162" y="-100" type="line"/>
      <point x="162" y="-16" type="line"/>
      <point x="32" y="-16" type="line"/>
    </contour>
    <contour>
      <point x="32" y="626" type="line"/>
      <point x="162" y="626" type="line"/>
      <point x="162" y="710" type="line"/>
      <point x="32" y="710" type="line"/>
    </contour>
    <contour>
      <point x="250" y="260" type="line"/>
      <point x="330" y="260" type="line"/>
      <point x="330" y="344" type="line"/>
      <point x="250" y="344" type="line"/>
    </contour>
    <contour>
      <point x="162" y="-100" type="line"/>
      <point x="250" y="-84" type="line"/>
      <point x="250" y="344" type="line"/>
      <point x="249" y="344" type="line"/>
      <point x="162" y="262" type="line"/>
    </contour>
  </outline>
</glyph>
<glyph name="asciitilde.color0" format="2">
  <advance width="600"/>
  <unicode hex="007E"/>
  <outline>
    <contour>
      <point x="43" y="258" type="line"/>
      <point x="117" y="258" type="line"/>
      <point x="117" y="426" type="line"/>
      <point x="43" y="393" type="line"/>
    </contour>
  </outline>
</glyph>
<glyph name="asciitilde.color1" format="2">
  <advance width="600"/>
  <unicode hex="007E"/>
  <outline>
    <contour>
      <point x="321" y="288" type="line"/>
      <point x="395" y="287" type="line"/>
      <point x="395" y="421" type="line"/>
      <point x="321" y="421" type="line"/>
    </contour>
  </outline>
</glyph>
<glyph name="asciitilde.color2" format="2">
  <advance width="600"/>
  <unicode hex="007E"/>
  <outline>
    <contour>
      <point x="324" y="246" type="line"/>
      <point x="325" y="246" type="line"/>
      <point x="395" y="287" type="line"/>
      <point x="395" y="288" type="line"/>
      <point x="118" y="426" type="line"/>
      <point x="117" y="426" type="line"/>
      <point x="43" y="394" type="line"/>
      <point x="43" y="393" type="line"/>
    </contour>
  </outline>
</glyph>
<glyph name="asciitilde" format="2">
  <advance width="438.66667"/>
  <unicode hex="007E"/>
  <outline>
    <contour>
      <point x="43" y="258" type="line"/>
      <point x="117" y="258" type="line"/>
      <point x="117" y="426" type="line"/>
      <point x="43" y="393" type="line"/>
    </contour>
    <contour>
      <point x="321" y="288" type="line"/>
      <point x="395" y="287" type="line"/>
      <point x="395" y="421" type="line"/>
      <point x="321" y="421" type="line"/>
    </contour>
    <contour>
      <point x="324" y="246" type="line"/>
      <point x="325" y="246" type="line"/>
      <point x="395" y="287" type="line"/>
      <point x="395" y="288" type="line"/>
      <point x="118" y="426" type="line"/>
      <point x="117" y="426" type="line"/>
      <point x="43" y="394" type="line"/>
      <point x="43" y="393" type="line"/>
    </contour>
  </outline>
</glyph>
<glyph name="exclamdown.color0" format="2">
  <advance width="600"/>
  <unicode hex="00A1"/>
  <outline>
    <contour>
      <point x="52" y="-34" type="line"/>
      <point x="53" y="-34" type="line"/>
      <point x="140" y="17" type="line"/>
      <point x="140" y="520" type="line"/>
      <point x="52" y="520" type="line"/>
    </contour>
  </outline>
</glyph>
<glyph name="exclamdown.color1" format="2">
  <advance width="600"/>
  <unicode hex="00A1"/>
  <outline>
    <contour>
      <point x="47" y="596" type="line"/>
      <point x="145" y="596" type="line"/>
      <point x="145" y="680" type="line"/>
      <point x="47" y="680" type="line"/>
    </contour>
  </outline>
</glyph>
<glyph name="exclamdown" format="2">
  <advance width="193"/>
  <unicode hex="00A1"/>
  <outline>
    <contour>
      <point x="52" y="-34" type="line"/>
      <point x="53" y="-34" type="line"/>
      <point x="140" y="17" type="line"/>
      <point x="140" y="520" type="line"/>
      <point x="52" y="520" type="line"/>
    </contour>
    <contour>
      <point x="47" y="596" type="line"/>
      <point x="145" y="596" type="line"/>
      <point x="145" y="680" type="line"/>
      <point x="47" y="680" type="line"/>
    </contour>
  </outline>
</glyph>
<glyph name="cent.color0" format="2">
  <advance width="600"/>
  <unicode hex="00A2"/>
  <outline>
    <contour>
      <point x="169" y="483" type="line"/>
      <point x="257" y="483" type="line"/>
      <point x="257" y="560" type="line"/>
      <point x="255" y="560" type="line"/>
      <point x="169" y="537" type="line"/>
    </contour>
  </outline>
</glyph>
<glyph name="cent.color1" format="2">
  <advance width="600"/>
  <unicode hex="00A2"/>
  <outline>
    <contour>
      <point x="169" y="-54" type="line"/>
      <point x="171" y="-54" type="line"/>
      <point x="257" y="-31" type="line"/>
      <point x="257" y="22" type="line"/>
      <point x="169" y="22" type="line"/>
    </contour>
  </outline>
</glyph>
<glyph name="cent.color2" format="2">
  <advance width="600"/>
  <unicode hex="00A2"/>
  <outline>
    <contour>
      <point x="95" y="0" type="line"/>
      <point x="287" y="0" type="line"/>
      <point x="338" y="83" type="line"/>
      <point x="338" y="84" type="line"/>
      <point x="44" y="84" type="line"/>
      <point x="44" y="83" type="line"/>
    </contour>
  </outline>
</glyph>
<glyph name="cent.color3" format="2">
  <advance width="600"/>
  <unicode hex="00A2"/>
  <outline>
    <contour>
      <point x="44" y="84" type="line"/>
      <point x="132" y="84" type="line"/>
      <point x="132" y="510" type="line"/>
      <point x="131" y="510" type="line"/>
      <point x="44" y="459" type="line"/>
    </contour>
  </outline>
</glyph>
<glyph name="cent.color4" format="2">
  <advance width="600"/>
  <unicode hex="00A2"/>
  <outline>
    <contour>
      <point x="132" y="426" type="line"/>
      <point x="345" y="426" type="line"/>
      <point x="345" y="427" type="line"/>
      <point x="294" y="510" type="line"/>
      <point x="132" y="510" type="line"/>
    </contour>
  </outline>
</glyph>
<glyph name="cent" format="2">
  <advance width="391"/>
  <unicode hex="00A2"/>
  <anchor x="202" y="0" name="bottom"/>
  <anchor x="207" y="510" name="top"/>
  <outline>
    <contour>
      <point x="169" y="483" type="line"/>
      <point x="257" y="483" type="line"/>
      <point x="257" y="560" type="line"/>
      <point x="255" y="560" type="line"/>
      <point x="169" y="537" type="line"/>
    </contour>
    <contour>
      <point x="169" y="-54" type="line"/>
      <point x="171" y="-54" type="line"/>
      <point x="257" y="-31" type="line"/>
      <point x="257" y="22" type="line"/>
      <point x="169" y="22" type="line"/>
    </contour>
    <contour>
      <point x="95" y="0" type="line"/>
      <point x="287" y="0" type="line"/>
      <point x="338" y="83" type="line"/>
      <point x="338" y="84" type="line"/>
      <point x="44" y="84" type="line"/>
      <point x="44" y="83" type="line"/>
    </contour>
    <contour>
      <point x="44" y="84" type="line"/>
      <point x="132" y="84" type="line"/>
      <point x="132" y="510" type="line"/>
      <point x="131" y="510" type="line"/>
      <point x="44" y="459" type="line"/>
    </contour>
    <contour>
      <point x="132" y="426" type="line"/>
      <point x="345" y="426" type="line"/>
      <point x="345" y="427" type="line"/>
      <point x="294" y="510" type="line"/>
      <point x="132" y="510" type="line"/>
    </contour>
  </outline>
</glyph>
<glyph name="sterling.color0" format="2">
  <advance width="600"/>
  <unicode hex="00A3"/>
  <outline>
    <contour>
      <point x="47" y="0" type="line"/>
      <point x="508" y="0" type="line"/>
      <point x="508" y="84" type="line"/>
      <point x="47" y="84" type="line"/>
    </contour>
  </outline>
</glyph>
<glyph name="sterling.color1" format="2">
  <advance width="600"/>
  <unicode hex="00A3"/>
  <outline>
    <contour>
      <point x="59" y="336" type="line"/>
      <point x="467" y="337" type="line"/>
      <point x="467" y="421" type="line"/>
      <point x="59" y="420" type="line"/>
    </contour>
  </outline>
</glyph>
<glyph name="sterling.color2" format="2">
  <advance width="600"/>
  <unicode hex="00A3"/>
  <outline>
    <contour>
      <point x="113" y="84" type="line"/>
      <point x="201" y="84" type="line"/>
      <point x="201" y="710" type="line"/>
      <point x="200" y="710" type="line"/>
      <point x="113" y="625" type="line"/>
    </contour>
  </outline>
</glyph>
<glyph name="sterling.color3" format="2">
  <advance width="600"/>
  <unicode hex="00A3"/>
  <outline>
    <contour>
      <point x="201" y="626" type="line"/>
      <point x="488" y="626" type="line"/>
      <point x="488" y="627" type="line"/>
      <point x="405" y="710" type="line"/>
      <point x="201" y="710" type="line"/>
    </contour>
  </outline>
</glyph>
<glyph name="sterling" format="2">
  <advance width="554.33333"/>
  <unicode hex="00A3"/>
  <outline>
    <contour>
      <point x="47" y="0" type="line"/>
      <point x="508" y="0" type="line"/>
      <point x="508" y="84" type="line"/>
      <point x="47" y="84" type="line"/>
    </contour>
    <contour>
      <point x="59" y="336" type="line"/>
      <point x="467" y="337" type="line"/>
      <point x="467" y="421" type="line"/>
      <point x="59" y="420" type="line"/>
    </contour>
    <contour>
      <point x="113" y="84" type="line"/>
      <point x="201" y="84" type="line"/>
      <point x="201" y="710" type="line"/>
      <point x="200" y="710" type="line"/>
      <point x="113" y="625" type="line"/>
    </contour>
    <contour>
      <point x="201" y="626" type="line"/>
      <point x="488" y="626" type="line"/>
      <point x="488" y="627" type="line"/>
      <point x="405" y="710" type="line"/>
      <point x="201" y="710" type="line"/>
    </contour>
  </outline>
</glyph>
<glyph name="currency.color1" format="2">
  <advance width="600"/>
  <unicode hex="00A4"/>
  <outline>
    <contour>
      <point x="99" y="87" type="line"/>
      <point x="172" y="150" type="line"/>
      <point x="113" y="234" type="line"/>
      <point x="41" y="170" type="line"/>
    </contour>
  </outline>
</glyph>
<glyph name="currency.color2" format="2">
  <advance width="600"/>
  <unicode hex="00A4"/>
  <outline>
    <contour>
      <point x="172" y="150" type="line"/>
      <point x="354" y="150" type="line"/>
      <point x="354" y="234" type="line"/>
      <point x="113" y="234" type="line"/>
    </contour>
  </outline>
</glyph>
<glyph name="currency.color3" format="2">
  <advance width="600"/>
  <unicode hex="00A4"/>
  <outline>
    <contour>
      <point x="113" y="234" type="line"/>
      <point x="201" y="234" type="line"/>
      <point x="201" y="560" type="line"/>
      <point x="113" y="503" type="line"/>
    </contour>
  </outline>
</glyph>
<glyph name="currency.color4" format="2">
  <advance width="600"/>
  <unicode hex="00A4"/>
  <outline>
    <contour>
      <point x="113" y="503" type="line"/>
      <point x="201" y="560" type="line"/>
      <point x="145" y="637" type="line"/>
      <point x="57" y="580" type="line"/>
    </contour>
  </outline>
</glyph>
<glyph name="currency.color5" format="2">
  <advance width="600"/>
  <unicode hex="00A4"/>
  <outline>
    <contour>
      <point x="411" y="73" type="line"/>
      <point x="498" y="130" type="line"/>
      <point x="441" y="207" type="line"/>
      <point x="354" y="150" type="line"/>
    </contour>
  </outline>
</glyph>
<glyph name="currency.color6" format="2">
  <advance width="600"/>
  <unicode hex="00A4"/>
  <outline>
    <contour>
      <point x="354" y="150" type="line"/>
      <point x="441" y="207" type="line"/>
      <point x="441" y="476" type="line"/>
      <point x="354" y="476" type="line"/>
    </contour>
  </outline>
</glyph>
<glyph name="currency.color7" format="2">
  <advance width="600"/>
  <unicode hex="00A4"/>
  <outline>
    <contour>
      <point x="441" y="476" type="line"/>
      <point x="515" y="540" type="line"/>
      <point x="457" y="623" type="line"/>
      <point x="384" y="560" type="line"/>
    </contour>
  </outline>
</glyph>
<glyph name="currency" format="2">
  <advance width="555"/>
  <unicode hex="00A4"/>
  <outline>
    <contour>
      <point x="201" y="476" type="line"/>
      <point x="441" y="476" type="line"/>
      <point x="384" y="560" type="line"/>
      <point x="201" y="560" type="line"/>
    </contour>
    <contour>
      <point x="99" y="87" type="line"/>
      <point x="172" y="150" type="line"/>
      <point x="113" y="234" type="line"/>
      <point x="41" y="170" type="line"/>
    </contour>
    <contour>
      <point x="172" y="150" type="line"/>
      <point x="354" y="150" type="line"/>
      <point x="354" y="234" type="line"/>
      <point x="113" y="234" type="line"/>
    </contour>
    <contour>
      <point x="113" y="234" type="line"/>
      <point x="201" y="234" type="line"/>
      <point x="201" y="560" type="line"/>
      <point x="113" y="503" type="line"/>
    </contour>
    <contour>
      <point x="113" y="503" type="line"/>
      <point x="201" y="560" type="line"/>
      <point x="145" y="637" type="line"/>
      <point x="57" y="580" type="line"/>
    </contour>
    <contour>
      <point x="411" y="73" type="line"/>
      <point x="498" y="130" type="line"/>
      <point x="441" y="207" type="line"/>
      <point x="354" y="150" type="line"/>
    </contour>
    <contour>
      <point x="354" y="150" type="line"/>
      <point x="441" y="207" type="line"/>
      <point x="441" y="476" type="line"/>
      <point x="354" y="476" type="line"/>
    </contour>
    <contour>
      <point x="441" y="476" type="line"/>
      <point x="515" y="540" type="line"/>
      <point x="457" y="623" type="line"/>
      <point x="384" y="560" type="line"/>
    </contour>
  </outline>
</glyph>
<glyph name="yen.color0" format="2">
  <advance width="600"/>
  <unicode hex="00A5"/>
  <outline>
    <contour>
      <point x="55" y="312" type="line"/>
      <point x="414" y="313" type="line"/>
      <point x="414" y="314" type="line"/>
      <point x="391" y="337" type="line"/>
      <point x="32" y="336" type="line"/>
      <point x="32" y="335" type="line"/>
    </contour>
  </outline>
</glyph>
<glyph name="yen.color1" format="2">
  <advance width="600"/>
  <unicode hex="00A5"/>
  <outline>
    <contour>
      <point x="55" y="223" type="line"/>
      <point x="414" y="224" type="line"/>
      <point x="414" y="225" type="line"/>
      <point x="391" y="248" type="line"/>
      <point x="32" y="247" type="line"/>
      <point x="32" y="246" type="line"/>
    </contour>
  </outline>
</glyph>
<glyph name="yen.color2" format="2">
  <advance width="600"/>
  <unicode hex="00A5"/>
  <outline>
    <contour>
      <point x="177" y="328" type="line"/>
      <point x="178" y="328" type="line"/>
      <point x="228" y="393" type="line"/>
      <point x="111" y="710" type="line"/>
      <point x="17" y="710" type="line"/>
      <point x="17" y="709" type="line"/>
    </contour>
  </outline>
</glyph>
<glyph name="yen.color3" format="2">
  <advance width="600"/>
  <unicode hex="00A5"/>
  <outline>
    <contour>
      <point x="177" y="0" type="line"/>
      <point x="265" y="0" type="line"/>
      <point x="265" y="328" type="line"/>
      <point x="177" y="328" type="line"/>
    </contour>
  </outline>
</glyph>
<glyph name="yen.color4" format="2">
  <advance width="600"/>
  <unicode hex="00A5"/>
  <outline>
    <contour>
      <point x="178" y="328" type="line"/>
      <point x="265" y="328" type="line"/>
      <point x="413" y="709" type="line"/>
      <point x="413" y="710" type="line"/>
      <point x="319" y="710" type="line"/>
    </contour>
  </outline>
</glyph>
<glyph name="yen" format="2">
  <advance width="446"/>
  <unicode hex="00A5"/>
  <anchor x="221" y="0" name="bottom"/>
  <anchor x="220" y="710" name="top"/>
  <outline>
    <contour>
      <point x="55" y="312" type="line"/>
      <point x="414" y="313" type="line"/>
      <point x="414" y="314" type="line"/>
      <point x="391" y="337" type="line"/>
      <point x="32" y="336" type="line"/>
      <point x="32" y="335" type="line"/>
    </contour>
    <contour>
      <point x="55" y="223" type="line"/>
      <point x="414" y="224" type="line"/>
      <point x="414" y="225" type="line"/>
      <point x="391" y="248" type="line"/>
      <point x="32" y="247" type="line"/>
      <point x="32" y="246" type="line"/>
    </contour>
    <contour>
      <point x="177" y="328" type="line"/>
      <point x="178" y="328" type="line"/>
      <point x="228" y="393" type="line"/>
      <point x="111" y="710" type="line"/>
      <point x="17" y="710" type="line"/>
      <point x="17" y="709" type="line"/>
    </contour>
    <contour>
      <point x="177" y="0" type="line"/>
      <point x="265" y="0" type="line"/>
      <point x="265" y="328" type="line"/>
      <point x="177" y="328" type="line"/>
    </contour>
    <contour>
      <point x="178" y="328" type="line"/>
      <point x="265" y="328" type="line"/>
      <point x="413" y="709" type="line"/>
      <point x="413" y="710" type="line"/>
      <point x="319" y="710" type="line"/>
    </contour>
  </outline>
</glyph>
<glyph name="brokenbar.color0" format="2">
  <advance width="600"/>
  <unicode hex="00A6"/>
  <outline>
    <contour>
      <point x="43" y="428" type="line"/>
      <point x="125" y="428" type="line"/>
      <point x="125" y="712" type="line"/>
      <point x="43" y="712" type="line"/>
    </contour>
  </outline>
</glyph>
<glyph name="brokenbar.color1" format="2">
  <advance width="600"/>
  <unicode hex="00A6"/>
  <outline>
    <contour>
      <point x="43" y="0" type="line"/>
      <point x="125" y="0" type="line"/>
      <point x="125" y="285" type="line"/>
      <point x="43" y="285" type="line"/>
    </contour>
  </outline>
</glyph>
<glyph name="brokenbar" format="2">
  <advance width="168"/>
  <unicode hex="00A6"/>
  <outline>
    <contour>
      <point x="43" y="428" type="line"/>
      <point x="125" y="428" type="line"/>
      <point x="125" y="712" type="line"/>
      <point x="43" y="712" type="line"/>
    </contour>
    <contour>
      <point x="43" y="0" type="line"/>
      <point x="125" y="0" type="line"/>
      <point x="125" y="285" type="line"/>
      <point x="43" y="285" type="line"/>
    </contour>
  </outline>
</glyph>
<glyph name="section.color0" format="2">
  <advance width="600"/>
  <unicode hex="00A7"/>
  <outline>
    <contour>
      <point x="118" y="312" type="line"/>
      <point x="237" y="433" type="line"/>
      <point x="173" y="490" type="line"/>
      <point x="99" y="431" type="line"/>
    </contour>
  </outline>
</glyph>
<glyph name="section.color1" format="2">
  <advance width="600"/>
  <unicode hex="00A7"/>
  <outline>
    <contour>
      <point x="284" y="138" type="line"/>
      <point x="367" y="217" type="line"/>
      <point x="316" y="289" type="line"/>
      <point x="232" y="214" type="line"/>
    </contour>
  </outline>
</glyph>
<glyph name="section.color2" format="2">
  <advance width="600"/>
  <unicode hex="00A7"/>
  <outline>
    <contour>
      <point x="137" y="-86" type="line"/>
      <point x="345" y="-86" type="line"/>
      <point x="334" y="-2" type="line"/>
      <point x="54" y="-2" type="line"/>
      <point x="54" y="-3" type="line"/>
    </contour>
  </outline>
</glyph>
<glyph name="section.color3" format="2">
  <advance width="600"/>
  <unicode hex="00A7"/>
  <outline>
    <contour>
      <point x="138" y="626" type="line"/>
      <point x="416" y="626" type="line"/>
      <point x="416" y="627" type="line"/>
      <point x="334" y="710" type="line"/>
      <point x="127" y="710" type="line"/>
    </contour>
  </outline>
</glyph>
<glyph name="section.color4" format="2">
  <advance width="600"/>
  <unicode hex="00A7"/>
  <outline>
    <contour>
      <point x="345" y="-86" type="line"/>
      <point x="397" y="-11" type="line"/>
      <point x="99" y="431" type="line"/>
      <point x="43" y="359" type="line"/>
      <point x="43" y="358" type="line"/>
    </contour>
  </outline>
</glyph>
<glyph name="section.color5" format="2">
  <advance width="600"/>
  <unicode hex="00A7"/>
  <outline>
    <contour>
      <point x="367" y="217" type="line"/>
      <point x="423" y="285" type="line"/>
      <point x="423" y="286" type="line"/>
      <point x="127" y="710" type="line"/>
      <point x="73" y="636" type="line"/>
    </contour>
  </outline>
</glyph>
<glyph name="section" format="2">
  <advance width="469"/>
  <unicode hex="00A7"/>
  <outline>
    <contour>
      <point x="118" y="312" type="line"/>
      <point x="237" y="433" type="line"/>
      <point x="173" y="490" type="line"/>
      <point x="99" y="431" type="line"/>
    </contour>
    <contour>
      <point x="284" y="138" type="line"/>
      <point x="367" y="217" type="line"/>
      <point x="316" y="289" type="line"/>
      <point x="232" y="214" type="line"/>
    </contour>
    <contour>
      <point x="137" y="-86" type="line"/>
      <point x="345" y="-86" type="line"/>
      <point x="334" y="-2" type="line"/>
      <point x="54" y="-2" type="line"/>
      <point x="54" y="-3" type="line"/>
    </contour>
    <contour>
      <point x="138" y="626" type="line"/>
      <point x="416" y="626" type="line"/>
      <point x="416" y="627" type="line"/>
      <point x="334" y="710" type="line"/>
      <point x="127" y="710" type="line"/>
    </contour>
    <contour>
      <point x="345" y="-86" type="line"/>
      <point x="397" y="-11" type="line"/>
      <point x="99" y="431" type="line"/>
      <point x="43" y="359" type="line"/>
      <point x="43" y="358" type="line"/>
    </contour>
    <contour>
      <point x="367" y="217" type="line"/>
      <point x="423" y="285" type="line"/>
      <point x="423" y="286" type="line"/>
      <point x="127" y="710" type="line"/>
      <point x="73" y="636" type="line"/>
    </contour>
  </outline>
</glyph>
<glyph name="dieresis.color0" format="2">
  <advance width="600"/>
  <unicode hex="00A8"/>
  <outline>
    <contour>
      <point x="324" y="614" type="line"/>
      <point x="404" y="614" type="line"/>
      <point x="404" y="681" type="line"/>
      <point x="324" y="681" type="line"/>
    </contour>
  </outline>
</glyph>
<glyph name="dieresis.color1" format="2">
  <advance width="600"/>
  <unicode hex="00A8"/>
  <outline>
    <contour>
      <point x="204" y="614" type="line"/>
      <point x="284" y="614" type="line"/>
      <point x="284" y="681" type="line"/>
      <point x="204" y="681" type="line"/>
    </contour>
  </outline>
</glyph>
<glyph name="dieresis" format="2">
  <advance width="600"/>
  <unicode hex="00A8"/>
  <anchor x="307" y="510" name="_top"/>
  <anchor x="304" y="644" name="top"/>
  <outline>
    <contour>
      <point x="324" y="614" type="line"/>
      <point x="404" y="614" type="line"/>
      <point x="404" y="681" type="line"/>
      <point x="324" y="681" type="line"/>
    </contour>
    <contour>
      <point x="204" y="614" type="line"/>
      <point x="284" y="614" type="line"/>
      <point x="284" y="681" type="line"/>
      <point x="204" y="681" type="line"/>
    </contour>
  </outline>
</glyph>
<glyph name="copyright.color0" format="2">
  <advance width="600"/>
  <unicode hex="00A9"/>
  <outline>
    <contour>
      <point x="202" y="40" type="line"/>
      <point x="393" y="40" type="line"/>
      <point x="444" y="121" type="line"/>
      <point x="444" y="122" type="line"/>
      <point x="151" y="122" type="line"/>
      <point x="151" y="121" type="line"/>
    </contour>
  </outline>
</glyph>
<glyph name="copyright.color3" format="2">
  <advance width="600"/>
  <unicode hex="00A9"/>
  <outline>
    <contour>
      <point x="151" y="122" type="line"/>
      <point x="238" y="122" type="line"/>
      <point x="238" y="562" type="line"/>
      <point x="237" y="562" type="line"/>
      <point x="151" y="511" type="line"/>
    </contour>
  </outline>
</glyph>
<glyph name="copyright.color4" format="2">
  <advance width="600"/>
  <unicode hex="00A9"/>
  <outline>
    <contour>
      <point x="238" y="486" type="line"/>
      <point x="451" y="486" type="line"/>
      <point x="451" y="487" type="line"/>
      <point x="400" y="562" type="line"/>
      <point x="238" y="562" type="line"/>
    </contour>
  </outline>
</glyph>
<glyph name="copyright.color6" format="2">
  <advance width="600"/>
  <unicode hex="00A9"/>
  <outline>
    <contour>
      <point x="518" y="-20" type="line"/>
      <point x="542" y="-20" type="line"/>
      <point x="542" y="623" type="line"/>
      <point x="519" y="646" type="line"/>
      <point x="518" y="646" type="line"/>
    </contour>
  </outline>
</glyph>
<glyph name="copyright" format="2">
  <advance width="595"/>
  <unicode hex="00A9"/>
  <outline>
    <contour>
      <point x="202" y="40" type="line"/>
      <point x="393" y="40" type="line"/>
      <point x="444" y="121" type="line"/>
      <point x="444" y="122" type="line"/>
      <point x="151" y="122" type="line"/>
      <point x="151" y="121" type="line"/>
    </contour>
    <contour>
      <point x="76" y="-44" type="line"/>
      <point x="77" y="-44" type="line"/>
      <point x="77" y="622" type="line"/>
      <point x="53" y="622" type="line"/>
      <point x="53" y="-21" type="line"/>
    </contour>
    <contour>
      <point x="77" y="-44" type="line"/>
      <point x="519" y="-44" type="line"/>
      <point x="542" y="-21" type="line"/>
      <point x="542" y="-20" type="line"/>
      <point x="77" y="-20" type="line"/>
    </contour>
    <contour>
      <point x="151" y="122" type="line"/>
      <point x="238" y="122" type="line"/>
      <point x="238" y="562" type="line"/>
      <point x="237" y="562" type="line"/>
      <point x="151" y="511" type="line"/>
    </contour>
    <contour>
      <point x="238" y="486" type="line"/>
      <point x="451" y="486" type="line"/>
      <point x="451" y="487" type="line"/>
      <point x="400" y="562" type="line"/>
      <point x="238" y="562" type="line"/>
    </contour>
    <contour>
      <point x="53" y="622" type="line"/>
      <point x="518" y="622" type="line"/>
      <point x="518" y="646" type="line"/>
      <point x="76" y="646" type="line"/>
      <point x="53" y="623" type="line"/>
    </contour>
    <contour>
      <point x="518" y="-20" type="line"/>
      <point x="542" y="-20" type="line"/>
      <point x="542" y="623" type="line"/>
      <point x="519" y="646" type="line"/>
      <point x="518" y="646" type="line"/>
    </contour>
  </outline>
</glyph>
<glyph name="ordfeminine.color1" format="2">
  <advance width="600"/>
  <unicode hex="00AA"/>
  <outline>
    <contour>
      <point x="100" y="498" type="line"/>
      <point x="206" y="498" type="line"/>
      <point x="206" y="551" type="line"/>
      <point x="51" y="551" type="line"/>
      <point x="51" y="550" type="line"/>
    </contour>
  </outline>
</glyph>
<glyph name="ordfeminine.color3" format="2">
  <advance width="600"/>
  <unicode hex="00AA"/>
  <outline>
    <contour>
      <point x="206" y="498" type="line"/>
      <point x="262" y="498" type="line"/>
      <point x="262" y="700" type="line"/>
      <point x="206" y="700" type="line"/>
    </contour>
  </outline>
</glyph>
<glyph name="ordfeminine" format="2">
  <advance width="312.33333"/>
  <unicode hex="00AA"/>
  <outline>
    <contour>
      <point x="107" y="700" type="line"/>
      <point x="262" y="700" type="line"/>
      <point x="262" y="701" type="line"/>
      <point x="212" y="754" type="line"/>
      <point x="107" y="754" type="line"/>
    </contour>
    <contour>
      <point x="100" y="498" type="line"/>
      <point x="206" y="498" type="line"/>
      <point x="206" y="551" type="line"/>
      <point x="51" y="551" type="line"/>
      <point x="51" y="550" type="line"/>
    </contour>
    <contour>
      <point x="51" y="551" type="line"/>
      <point x="107" y="551" type="line"/>
      <point x="107" y="754" type="line"/>
      <point x="106" y="754" type="line"/>
      <point x="51" y="703" type="line"/>
    </contour>
    <contour>
      <point x="206" y="498" type="line"/>
      <point x="262" y="498" type="line"/>
      <point x="262" y="700" type="line"/>
      <point x="206" y="700" type="line"/>
    </contour>
  </outline>
</glyph>
<glyph name="guillemetleft.color0" format="2">
  <advance width="600"/>
  <unicode hex="00AB"/>
  <outline>
    <contour>
      <point x="190" y="271" type="line"/>
      <point x="288" y="271" type="line"/>
      <point x="465" y="478" type="line"/>
      <point x="465" y="479" type="line"/>
      <point x="366" y="479" type="line"/>
      <point x="190" y="272" type="line"/>
    </contour>
  </outline>
</glyph>
<glyph name="guillemetleft.color1" format="2">
  <advance width="600"/>
  <unicode hex="00AB"/>
  <outline>
    <contour>
      <point x="216" y="66" type="line"/>
      <point x="315" y="66" type="line"/>
      <point x="315" y="69" type="line"/>
      <point x="139" y="271" type="line"/>
      <point x="41" y="271" type="line"/>
      <point x="41" y="270" type="line"/>
    </contour>
  </outline>
</glyph>
<glyph name="guillemetleft.color2" format="2">
  <advance width="600"/>
  <unicode hex="00AB"/>
  <outline>
    <contour>
      <point x="41" y="271" type="line"/>
      <point x="139" y="271" type="line"/>
      <point x="315" y="478" type="line"/>
      <point x="315" y="479" type="line"/>
      <point x="216" y="479" type="line"/>
      <point x="41" y="272" type="line"/>
    </contour>
  </outline>
</glyph>
<glyph name="guillemetleft.color3" format="2">
  <advance width="600"/>
  <unicode hex="00AB"/>
  <outline>
    <contour>
      <point x="366" y="66" type="line"/>
      <point x="465" y="66" type="line"/>
      <point x="465" y="69" type="line"/>
      <point x="288" y="271" type="line"/>
      <point x="190" y="271" type="line"/>
      <point x="190" y="270" type="line"/>
    </contour>
  </outline>
</glyph>
<glyph name="guillemetleft" format="2">
  <advance width="501.33333"/>
  <unicode hex="00AB"/>
  <outline>
    <contour>
      <point x="190" y="271" type="line"/>
      <point x="288" y="271" type="line"/>
      <point x="465" y="478" type="line"/>
      <point x="465" y="479" type="line"/>
      <point x="366" y="479" type="line"/>
      <point x="190" y="272" type="line"/>
    </contour>
    <contour>
      <point x="216" y="66" type="line"/>
      <point x="315" y="66" type="line"/>
      <point x="315" y="69" type="line"/>
      <point x="139" y="271" type="line"/>
      <point x="41" y="271" type="line"/>
      <point x="41" y="270" type="line"/>
    </contour>
    <contour>
      <point x="41" y="271" type="line"/>
      <point x="139" y="271" type="line"/>
      <point x="315" y="478" type="line"/>
      <point x="315" y="479" type="line"/>
      <point x="216" y="479" type="line"/>
      <point x="41" y="272" type="line"/>
    </contour>
    <contour>
      <point x="366" y="66" type="line"/>
      <point x="465" y="66" type="line"/>
      <point x="465" y="69" type="line"/>
      <point x="288" y="271" type="line"/>
      <point x="190" y="271" type="line"/>
      <point x="190" y="270" type="line"/>
    </contour>
  </outline>
</glyph>
<glyph name="logicalnot.color0" format="2">
  <advance width="600"/>
  <unicode hex="00AC"/>
  <outline>
    <contour>
      <point x="43" y="328" type="line"/>
      <point x="338" y="328" type="line"/>
      <point x="287" y="399" type="line"/>
      <point x="43" y="399" type="line"/>
    </contour>
  </outline>
</glyph>
<glyph name="logicalnot.color1" format="2">
  <advance width="600"/>
  <unicode hex="00AC"/>
  <outline>
    <contour>
      <point x="264" y="200" type="line"/>
      <point x="265" y="200" type="line"/>
      <point x="338" y="251" type="line"/>
      <point x="338" y="328" type="line"/>
      <point x="264" y="328" type="line"/>
    </contour>
  </outline>
</glyph>
<glyph name="softhyphen" format="2">
  <advance width="257.33333"/>
  <unicode hex="00AD"/>
  <outline>
    <contour>
      <point x="47" y="303" type="line"/>
      <point x="217" y="303" type="line"/>
      <point x="217" y="393" type="line"/>
      <point x="47" y="393" type="line"/>
    </contour>
  </outline>
</glyph>
<glyph name="registered.color0" format="2">
  <advance width="600"/>
  <unicode hex="00AE"/>
  <outline>
    <contour>
      <point x="93" y="462" type="line"/>
      <point x="160" y="462" type="line"/>
      <point x="160" y="688" type="line"/>
      <point x="159" y="688" type="line"/>
      <point x="93" y="673" type="line"/>
    </contour>
  </outline>
</glyph>
<glyph name="registered.color2" format="2">
  <advance width="600"/>
  <unicode hex="00AE"/>
  <outline>
    <contour>
      <point x="57" y="417" type="line"/>
      <point x="347" y="417" type="line"/>
      <point x="369" y="440" type="line"/>
      <point x="369" y="441" type="line"/>
      <point x="57" y="441" type="line"/>
    </contour>
  </outline>
</glyph>
<glyph name="registered.color3" format="2">
  <advance width="600"/>
  <unicode hex="00AE"/>
  <outline>
    <contour>
      <point x="224" y="462" type="line"/>
      <point x="315" y="462" type="line"/>
      <point x="315" y="463" type="line"/>
      <point x="261" y="574" type="line"/>
      <point x="174" y="566" type="line"/>
    </contour>
  </outline>
</glyph>
<glyph name="registered.color4" format="2">
  <advance width="600"/>
  <unicode hex="00AE"/>
  <outline>
    <contour>
      <point x="160" y="534" type="line"/>
      <point x="234" y="534" type="line"/>
      <point x="234" y="582" type="line"/>
      <point x="160" y="582" type="line"/>
    </contour>
  </outline>
</glyph>
<glyph name="registered.color5" format="2">
  <advance width="600"/>
  <unicode hex="00AE"/>
  <outline>
    <contour>
      <point x="234" y="534" type="line"/>
      <point x="235" y="534" type="line"/>
      <point x="301" y="565" type="line"/>
      <point x="301" y="642" type="line"/>
      <point x="234" y="642" type="line"/>
    </contour>
  </outline>
</glyph>
<glyph name="registered.color6" format="2">
  <advance width="600"/>
  <unicode hex="00AE"/>
  <outline>
    <contour>
      <point x="160" y="642" type="line"/>
      <point x="301" y="642" type="line"/>
      <point x="301" y="643" type="line"/>
      <point x="252" y="688" type="line"/>
      <point x="160" y="688" type="line"/>
    </contour>
  </outline>
</glyph>
<glyph name="registered.color7" format="2">
  <advance width="600"/>
  <unicode hex="00AE"/>
  <outline>
    <contour>
      <point x="33" y="710" type="line"/>
      <point x="346" y="710" type="line"/>
      <point x="346" y="734" type="line"/>
      <point x="56" y="734" type="line"/>
      <point x="33" y="711" type="line"/>
    </contour>
  </outline>
</glyph>
<glyph name="registered.color8" format="2">
  <advance width="600"/>
  <unicode hex="00AE"/>
  <outline>
    <contour>
      <point x="346" y="441" type="line"/>
      <point x="369" y="441" type="line"/>
      <point x="369" y="711" type="line"/>
      <point x="347" y="734" type="line"/>
      <point x="346" y="734" type="line"/>
    </contour>
  </outline>
</glyph>
<glyph name="registered" format="2">
  <advance width="402.33333"/>
  <unicode hex="00AE"/>
  <outline>
    <contour>
      <point x="93" y="462" type="line"/>
      <point x="160" y="462" type="line"/>
      <point x="160" y="688" type="line"/>
      <point x="159" y="688" type="line"/>
      <point x="93" y="673" type="line"/>
    </contour>
    <contour>
      <point x="56" y="417" type="line"/>
      <point x="57" y="417" type="line"/>
      <point x="57" y="710" type="line"/>
      <point x="33" y="710" type="line"/>
      <point x="33" y="440" type="line"/>
    </contour>
    <contour>
      <point x="57" y="417" type="line"/>
      <point x="347" y="417" type="line"/>
      <point x="369" y="440" type="line"/>
      <point x="369" y="441" type="line"/>
      <point x="57" y="441" type="line"/>
    </contour>
    <contour>
      <point x="224" y="462" type="line"/>
      <point x="315" y="462" type="line"/>
      <point x="315" y="463" type="line"/>
      <point x="261" y="574" type="line"/>
      <point x="174" y="566" type="line"/>
    </contour>
    <contour>
      <point x="160" y="534" type="line"/>
      <point x="234" y="534" type="line"/>
      <point x="234" y="582" type="line"/>
      <point x="160" y="582" type="line"/>
    </contour>
    <contour>
      <point x="234" y="534" type="line"/>
      <point x="235" y="534" type="line"/>
      <point x="301" y="565" type="line"/>
      <point x="301" y="642" type="line"/>
      <point x="234" y="642" type="line"/>
    </contour>
    <contour>
      <point x="160" y="642" type="line"/>
      <point x="301" y="642" type="line"/>
      <point x="301" y="643" type="line"/>
      <point x="252" y="688" type="line"/>
      <point x="160" y="688" type="line"/>
    </contour>
    <contour>
      <point x="33" y="710" type="line"/>
      <point x="346" y="710" type="line"/>
      <point x="346" y="734" type="line"/>
      <point x="56" y="734" type="line"/>
      <point x="33" y="711" type="line"/>
    </contour>
    <contour>
      <point x="346" y="441" type="line"/>
      <point x="369" y="441" type="line"/>
      <point x="369" y="711" type="line"/>
      <point x="347" y="734" type="line"/>
      <point x="346" y="734" type="line"/>
    </contour>
  </outline>
</glyph>
<glyph name="macron" format="2">
  <advance width="600"/>
  <unicode hex="00AF"/>
  <anchor x="307" y="510" name="_top"/>
  <outline>
    <contour>
      <point x="195" y="617" type="line"/>
      <point x="409" y="617" type="line"/>
      <point x="409" y="670" type="line"/>
      <point x="195" y="670" type="line"/>
    </contour>
  </outline>
</glyph>
<glyph name="degree.color0" format="2">
  <advance width="600"/>
  <unicode hex="00B0"/>
  <outline>
    <contour>
      <point x="53" y="685" type="line"/>
      <point x="192" y="685" type="line"/>
      <point x="192" y="686" type="line"/>
      <point x="153" y="734" type="line"/>
      <point x="53" y="734" type="line"/>
    </contour>
  </outline>
</glyph>
<glyph name="degree.color1" format="2">
  <advance width="600"/>
  <unicode hex="00B0"/>
  <outline>
    <contour>
      <point x="38" y="563" type="line"/>
      <point x="138" y="563" type="line"/>
      <point x="138" y="611" type="line"/>
      <point x="0" y="611" type="line"/>
      <point x="0" y="610" type="line"/>
    </contour>
  </outline>
</glyph>
<glyph name="degree.color2" format="2">
  <advance width="600"/>
  <unicode hex="00B0"/>
  <outline>
    <contour>
      <point x="0" y="611" type="line"/>
      <point x="53" y="611" type="line"/>
      <point x="53" y="734" type="line"/>
      <point x="51" y="734" type="line"/>
      <point x="0" y="694" type="line"/>
    </contour>
  </outline>
</glyph>
<glyph name="degree.color3" format="2">
  <advance width="600"/>
  <unicode hex="00B0"/>
  <outline>
    <contour>
      <point x="138" y="563" type="line"/>
      <point x="139" y="563" type="line"/>
      <point x="192" y="600" type="line"/>
      <point x="192" y="685" type="line"/>
      <point x="138" y="685" type="line"/>
    </contour>
  </outline>
</glyph>
<glyph name="degree" format="2">
  <advance width="235.33333"/>
  <unicode hex="00B0"/>
  <outline>
    <contour>
      <point x="53" y="685" type="line"/>
      <point x="192" y="685" type="line"/>
      <point x="192" y="686" type="line"/>
      <point x="153" y="734" type="line"/>
      <point x="53" y="734" type="line"/>
    </contour>
    <contour>
      <point x="38" y="563" type="line"/>
      <point x="138" y="563" type="line"/>
      <point x="138" y="611" type="line"/>
      <point x="0" y="611" type="line"/>
      <point x="0" y="610" type="line"/>
    </contour>
    <contour>
      <point x="0" y="611" type="line"/>
      <point x="53" y="611" type="line"/>
      <point x="53" y="734" type="line"/>
      <point x="51" y="734" type="line"/>
      <point x="0" y="694" type="line"/>
    </contour>
    <contour>
      <point x="138" y="563" type="line"/>
      <point x="139" y="563" type="line"/>
      <point x="192" y="600" type="line"/>
      <point x="192" y="685" type="line"/>
      <point x="138" y="685" type="line"/>
    </contour>
  </outline>
</glyph>
<glyph name="plusminus.color0" format="2">
  <advance width="600"/>
  <unicode hex="00B1"/>
  <outline>
    <contour>
      <point x="43" y="159" type="line"/>
      <point x="386" y="159" type="line"/>
      <point x="386" y="243" type="line"/>
      <point x="43" y="243" type="line"/>
    </contour>
  </outline>
</glyph>
<glyph name="plusminus.color1" format="2">
  <advance width="600"/>
  <unicode hex="00B1"/>
  <outline>
    <contour>
      <point x="44" y="379" type="line"/>
      <point x="179" y="379" type="line"/>
      <point x="179" y="449" type="line"/>
      <point x="43" y="449" type="line"/>
    </contour>
  </outline>
</glyph>
<glyph name="plusminus.color2" format="2">
  <advance width="600"/>
  <unicode hex="00B1"/>
  <outline>
    <contour>
      <point x="179" y="275" type="line"/>
      <point x="250" y="275" type="line"/>
      <point x="250" y="379" type="line"/>
      <point x="179" y="379" type="line"/>
    </contour>
  </outline>
</glyph>
<glyph name="plusminus.color4" format="2">
  <advance width="600"/>
  <unicode hex="00B1"/>
  <outline>
    <contour>
      <point x="180" y="379" type="line"/>
      <point x="386" y="379" type="line"/>
      <point x="386" y="449" type="line"/>
      <point x="250" y="449" type="line"/>
    </contour>
  </outline>
</glyph>
<glyph name="plusminus" format="2">
  <advance width="442.33333"/>
  <unicode hex="00B1"/>
  <outline>
    <contour>
      <point x="43" y="159" type="line"/>
      <point x="386" y="159" type="line"/>
      <point x="386" y="243" type="line"/>
      <point x="43" y="243" type="line"/>
    </contour>
    <contour>
      <point x="44" y="379" type="line"/>
      <point x="179" y="379" type="line"/>
      <point x="179" y="449" type="line"/>
      <point x="43" y="449" type="line"/>
    </contour>
    <contour>
      <point x="179" y="275" type="line"/>
      <point x="250" y="275" type="line"/>
      <point x="250" y="379" type="line"/>
      <point x="179" y="379" type="line"/>
    </contour>
    <contour>
      <point x="179" y="379" type="line"/>
      <point x="180" y="379" type="line"/>
      <point x="250" y="449" type="line"/>
      <point x="250" y="553" type="line"/>
      <point x="179" y="553" type="line"/>
    </contour>
    <contour>
      <point x="180" y="379" type="line"/>
      <point x="386" y="379" type="line"/>
      <point x="386" y="449" type="line"/>
      <point x="250" y="449" type="line"/>
    </contour>
  </outline>
</glyph>
<glyph name="twosuperior.color0" format="2">
  <advance width="600"/>
  <unicode hex="00B2"/>
  <outline>
    <contour>
      <point x="43" y="670" type="line"/>
      <point x="209" y="670" type="line"/>
      <point x="210" y="732" type="line"/>
      <point x="86" y="732" type="line"/>
      <point x="43" y="671" type="line"/>
    </contour>
  </outline>
</glyph>
<glyph name="twosuperior.color1" format="2">
  <advance width="600"/>
  <unicode hex="00B2"/>
  <outline>
    <contour>
      <point x="89" y="470" type="line"/>
      <point x="248" y="680" type="line"/>
      <point x="210" y="732" type="line"/>
      <point x="45" y="507" type="line"/>
      <point x="45" y="506" type="line"/>
    </contour>
  </outline>
</glyph>
<glyph name="twosuperior.color2" format="2">
  <advance width="600"/>
  <unicode hex="00B2"/>
  <outline>
    <contour>
      <point x="45" y="444" type="line"/>
      <point x="257" y="444" type="line"/>
      <point x="257" y="506" type="line"/>
      <point x="45" y="506" type="line"/>
    </contour>
  </outline>
</glyph>
<glyph name="twosuperior" format="2">
  <advance width="301.33333"/>
  <unicode hex="00B2"/>
  <outline>
    <contour>
      <point x="43" y="670" type="line"/>
      <point x="209" y="670" type="line"/>
      <point x="210" y="732" type="line"/>
      <point x="86" y="732" type="line"/>
      <point x="43" y="671" type="line"/>
    </contour>
    <contour>
      <point x="89" y="470" type="line"/>
      <point x="248" y="680" type="line"/>
      <point x="210" y="732" type="line"/>
      <point x="45" y="507" type="line"/>
      <point x="45" y="506" type="line"/>
    </contour>
    <contour>
      <point x="45" y="444" type="line"/>
      <point x="257" y="444" type="line"/>
      <point x="257" y="506" type="line"/>
      <point x="45" y="506" type="line"/>
    </contour>
  </outline>
</glyph>
<glyph name="threesuperior.color0" format="2">
  <advance width="600"/>
  <unicode hex="00B3"/>
  <outline>
    <contour>
      <point x="90" y="444" type="line"/>
      <point x="189" y="444" type="line"/>
      <point x="189" y="496" type="line"/>
      <point x="33" y="496" type="line"/>
      <point x="33" y="495" type="line"/>
    </contour>
  </outline>
</glyph>
<glyph name="threesuperior.color2" format="2">
  <advance width="600"/>
  <unicode hex="00B3"/>
  <outline>
    <contour>
      <point x="41" y="684" type="line"/>
      <point x="189" y="684" type="line"/>
      <point x="189" y="732" type="line"/>
      <point x="96" y="732" type="line"/>
      <point x="41" y="685" type="line"/>
    </contour>
  </outline>
</glyph>
<glyph name="threesuperior.color4" format="2">
  <advance width="600"/>
  <unicode hex="00B3"/>
  <outline>
    <contour>
      <point x="189" y="444" type="line"/>
      <point x="190" y="444" type="line"/>
      <point x="257" y="482" type="line"/>
      <point x="257" y="573" type="line"/>
      <point x="190" y="617" type="line"/>
      <point x="189" y="617" type="line"/>
    </contour>
  </outline>
</glyph>
<glyph name="threesuperior" format="2">
  <advance width="305"/>
  <unicode hex="00B3"/>
  <outline>
    <contour>
      <point x="90" y="444" type="line"/>
      <point x="189" y="444" type="line"/>
      <point x="189" y="496" type="line"/>
      <point x="33" y="496" type="line"/>
      <point x="33" y="495" type="line"/>
    </contour>
    <contour>
      <point x="71" y="575" type="line"/>
      <point x="189" y="575" type="line"/>
      <point x="189" y="617" type="line"/>
      <point x="71" y="617" type="line"/>
    </contour>
    <contour>
      <point x="41" y="684" type="line"/>
      <point x="189" y="684" type="line"/>
      <point x="189" y="732" type="line"/>
      <point x="96" y="732" type="line"/>
      <point x="41" y="685" type="line"/>
    </contour>
    <contour>
      <point x="189" y="604" type="line"/>
      <point x="256" y="604" type="line"/>
      <point x="256" y="679" type="line"/>
      <point x="190" y="732" type="line"/>
      <point x="189" y="732" type="line"/>
    </contour>
    <contour>
      <point x="189" y="444" type="line"/>
      <point x="190" y="444" type="line"/>
      <point x="257" y="482" type="line"/>
      <point x="257" y="573" type="line"/>
      <point x="190" y="617" type="line"/>
      <point x="189" y="617" type="line"/>
    </contour>
  </outline>
</glyph>
<glyph name="acute" format="2">
  <advance width="600"/>
  <unicode hex="00B4"/>
  <anchor x="293" y="510" name="_top"/>
  <outline>
    <contour>
      <point x="257" y="576" type="line"/>
      <point x="309" y="576" type="line"/>
      <point x="365" y="739" type="line"/>
      <point x="365" y="740" type="line"/>
      <point x="286" y="740" type="line"/>
    </contour>
  </outline>
</glyph>
<glyph name="micro.color0" format="2">
  <advance width="600"/>
  <unicode hex="00B5"/>
  <outline>
    <contour>
      <point x="47" y="-200" type="line"/>
      <point x="135" y="-200" type="line"/>
      <point x="135" y="510" type="line"/>
      <point x="134" y="510" type="line"/>
      <point x="47" y="459" type="line"/>
    </contour>
  </outline>
</glyph>
<glyph name="micro.color2" format="2">
  <advance width="600"/>
  <unicode hex="00B5"/>
  <outline>
    <contour>
      <point x="301" y="-2" type="line"/>
      <point x="400" y="-2" type="line"/>
      <point x="400" y="82" type="line"/>
      <point x="244" y="81" type="line"/>
    </contour>
  </outline>
</glyph>
<glyph name="micro.color3" format="2">
  <advance width="600"/>
  <unicode hex="00B5"/>
  <outline>
    <contour>
      <point x="244" y="-2" type="line"/>
      <point x="245" y="-2" type="line"/>
      <point x="330" y="82" type="line"/>
      <point x="330" y="510" type="line"/>
      <point x="244" y="510" type="line"/>
    </contour>
  </outline>
</glyph>
<glyph name="micro" format="2">
  <advance width="447"/>
  <unicode hex="00B5"/>
  <outline>
    <contour>
      <point x="47" y="-200" type="line"/>
      <point x="135" y="-200" type="line"/>
      <point x="135" y="510" type="line"/>
      <point x="134" y="510" type="line"/>
      <point x="47" y="459" type="line"/>
    </contour>
    <contour>
      <point x="135" y="-2" type="line"/>
      <point x="244" y="-2" type="line"/>
      <point x="244" y="81" type="line"/>
      <point x="135" y="82" type="line"/>
    </contour>
    <contour>
      <point x="301" y="-2" type="line"/>
      <point x="400" y="-2" type="line"/>
      <point x="400" y="82" type="line"/>
      <point x="244" y="81" type="line"/>
    </contour>
    <contour>
      <point x="244" y="-2" type="line"/>
      <point x="245" y="-2" type="line"/>
      <point x="330" y="82" type="line"/>
      <point x="330" y="510" type="line"/>
      <point x="244" y="510" type="line"/>
    </contour>
  </outline>
</glyph>
<glyph name="paragraph.color0" format="2">
  <advance width="600"/>
  <unicode hex="00B6"/>
  <outline>
    <contour>
      <point x="125" y="626" type="line"/>
      <point x="481" y="626" type="line"/>
      <point x="481" y="710" type="line"/>
      <point x="125" y="710" type="line"/>
    </contour>
  </outline>
</glyph>
<glyph name="paragraph.color1" format="2">
  <advance width="600"/>
  <unicode hex="00B6"/>
  <outline>
    <contour>
      <point x="120" y="293" type="line"/>
      <point x="269" y="293" type="line"/>
      <point x="269" y="377" type="line"/>
      <point x="37" y="377" type="line"/>
      <point x="37" y="376" type="line"/>
    </contour>
  </outline>
</glyph>
<glyph name="paragraph.color2" format="2">
  <advance width="600"/>
  <unicode hex="00B6"/>
  <outline>
    <contour>
      <point x="37" y="377" type="line"/>
      <point x="125" y="377" type="line"/>
      <point x="125" y="710" type="line"/>
      <point x="124" y="710" type="line"/>
      <point x="37" y="629" type="line"/>
    </contour>
  </outline>
</glyph>
<glyph name="paragraph.color3" format="2">
  <advance width="600"/>
  <unicode hex="00B6"/>
  <outline>
    <contour>
      <point x="269" y="0" type="line"/>
      <point x="357" y="0" type="line"/>
      <point x="357" y="626" type="line"/>
      <point x="269" y="626" type="line"/>
    </contour>
  </outline>
</glyph>
<glyph name="paragraph.color4" format="2">
  <advance width="600"/>
  <unicode hex="00B6"/>
  <outline>
    <contour>
      <point x="393" y="0" type="line"/>
      <point x="481" y="0" type="line"/>
      <point x="481" y="626" type="line"/>
      <point x="393" y="626" type="line"/>
    </contour>
  </outline>
</glyph>
<glyph name="paragraph" format="2">
  <advance width="547.66667"/>
  <unicode hex="00B6"/>
  <outline>
    <contour>
      <point x="125" y="626" type="line"/>
      <point x="481" y="626" type="line"/>
      <point x="481" y="710" type="line"/>
      <point x="125" y="710" type="line"/>
    </contour>
    <contour>
      <point x="120" y="293" type="line"/>
      <point x="269" y="293" type="line"/>
      <point x="269" y="377" type="line"/>
      <point x="37" y="377" type="line"/>
      <point x="37" y="376" type="line"/>
    </contour>
    <contour>
      <point x="37" y="377" type="line"/>
      <point x="125" y="377" type="line"/>
      <point x="125" y="710" type="line"/>
      <point x="124" y="710" type="line"/>
      <point x="37" y="629" type="line"/>
    </contour>
    <contour>
      <point x="269" y="0" type="line"/>
      <point x="357" y="0" type="line"/>
      <point x="357" y="626" type="line"/>
      <point x="269" y="626" type="line"/>
    </contour>
    <contour>
      <point x="393" y="0" type="line"/>
      <point x="481" y="0" type="line"/>
      <point x="481" y="626" type="line"/>
      <point x="393" y="626" type="line"/>
    </contour>
  </outline>
</glyph>
<glyph name="periodcentered" format="2">
  <advance width="185.33333"/>
  <unicode hex="00B7"/>
  <outline>
    <contour>
      <point x="33" y="277" type="line"/>
      <point x="132" y="277" type="line"/>
      <point x="132" y="361" type="line"/>
      <point x="33" y="361" type="line"/>
    </contour>
  </outline>
</glyph>
<glyph name="cedilla.color0" format="2">
  <advance width="600"/>
  <unicode hex="00B8"/>
  <outline>
    <contour>
      <point x="310" y="-72" type="line"/>
      <point x="391" y="-72" type="line"/>
      <point x="391" y="-71" type="line"/>
      <point x="355" y="-27" type="line"/>
      <point x="330" y="-27" type="line"/>
    </contour>
  </outline>
</glyph>
<glyph name="cedilla.color1" format="2">
  <advance width="600"/>
  <unicode hex="00B8"/>
  <outline>
    <contour>
      <point x="261" y="-72" type="line"/>
      <point x="310" y="-72" type="line"/>
      <point x="349" y="-1" type="line"/>
      <point x="349" y="0" type="line"/>
      <point x="299" y="0" type="line"/>
      <point x="261" y="-71" type="line"/>
    </contour>
  </outline>
</glyph>
<glyph name="cedilla.color2" format="2">
  <advance width="600"/>
  <unicode hex="00B8"/>
  <outline>
    <contour>
      <point x="266" y="-159" type="line"/>
      <point x="340" y="-159" type="line"/>
      <point x="340" y="-116" type="line"/>
      <point x="234" y="-116" type="line"/>
      <point x="234" y="-117" type="line"/>
    </contour>
  </outline>
</glyph>
<glyph name="cedilla.color3" format="2">
  <advance width="600"/>
  <unicode hex="00B8"/>
  <outline>
    <contour>
      <point x="340" y="-159" type="line"/>
      <point x="341" y="-159" type="line"/>
      <point x="391" y="-129" type="line"/>
      <point x="391" y="-72" type="line"/>
      <point x="340" y="-72" type="line"/>
    </contour>
  </outline>
</glyph>
<glyph name="onesuperior.color3" format="2">
  <advance width="600"/>
  <unicode hex="00B9"/>
  <outline>
    <contour>
      <point x="76" y="670" type="line"/>
      <point x="129" y="670" type="line"/>
      <point x="178" y="732" type="line"/>
      <point x="76" y="732" type="line"/>
    </contour>
  </outline>
</glyph>
<glyph name="onesuperior" format="2">
  <advance width="312.66667"/>
  <unicode hex="00B9"/>
  <outline>
    <contour>
      <point x="129" y="444" type="line"/>
      <point x="146" y="444" type="line"/>
      <point x="195" y="504" type="line"/>
      <point x="195" y="732" type="line"/>
      <point x="178" y="732" type="line"/>
      <point x="129" y="670" type="line"/>
    </contour>
    <contour>
      <point x="43" y="444" type="line"/>
      <point x="129" y="444" type="line"/>
      <point x="129" y="504" type="line"/>
      <point x="43" y="504" type="line"/>
    </contour>
    <contour>
      <point x="146" y="444" type="line"/>
      <point x="269" y="444" type="line"/>
      <point x="269" y="504" type="line"/>
      <point x="195" y="504" type="line"/>
    </contour>
    <contour>
      <point x="76" y="670" type="line"/>
      <point x="129" y="670" type="line"/>
      <point x="178" y="732" type="line"/>
      <point x="76" y="732" type="line"/>
    </contour>
  </outline>
</glyph>
<glyph name="ordmasculine.color0" format="2">
  <advance width="600"/>
  <unicode hex="00BA"/>
  <outline>
    <contour>
      <point x="107" y="700" type="line"/>
      <point x="262" y="700" type="line"/>
      <point x="262" y="701" type="line"/>
      <point x="212" y="754" type="line"/>
      <point x="107" y="754" type="line"/>
    </contour>
  </outline>
</glyph>
<glyph name="ordmasculine.color2" format="2">
  <advance width="600"/>
  <unicode hex="00BA"/>
  <outline>
    <contour>
      <point x="51" y="551" type="line"/>
      <point x="107" y="551" type="line"/>
      <point x="107" y="754" type="line"/>
      <point x="106" y="754" type="line"/>
      <point x="51" y="703" type="line"/>
    </contour>
  </outline>
</glyph>
<glyph name="ordmasculine.color3" format="2">
  <advance width="600"/>
  <unicode hex="00BA"/>
  <outline>
    <contour>
      <point x="206" y="498" type="line"/>
      <point x="207" y="498" type="line"/>
      <point x="262" y="548" type="line"/>
      <point x="262" y="700" type="line"/>
      <point x="206" y="700" type="line"/>
    </contour>
  </outline>
</glyph>
<glyph name="guillemetright.color0" format="2">
  <advance width="600"/>
  <unicode hex="00BB"/>
  <outline>
    <contour>
      <point x="311" y="271" type="line"/>
      <point x="311" y="272" type="line"/>
      <point x="135" y="479" type="line"/>
      <point x="36" y="479" type="line"/>
      <point x="36" y="478" type="line"/>
      <point x="213" y="271" type="line"/>
    </contour>
  </outline>
</glyph>
<glyph name="guillemetright.color1" format="2">
  <advance width="600"/>
  <unicode hex="00BB"/>
  <outline>
    <contour>
      <point x="285" y="66" type="line"/>
      <point x="460" y="270" type="line"/>
      <point x="460" y="271" type="line"/>
      <point x="362" y="271" type="line"/>
      <point x="186" y="69" type="line"/>
      <point x="186" y="66" type="line"/>
    </contour>
  </outline>
</glyph>
<glyph name="guillemetright.color2" format="2">
  <advance width="600"/>
  <unicode hex="00BB"/>
  <outline>
    <contour>
      <point x="460" y="271" type="line"/>
      <point x="460" y="272" type="line"/>
      <point x="285" y="479" type="line"/>
      <point x="186" y="479" type="line"/>
      <point x="186" y="478" type="line"/>
      <point x="362" y="271" type="line"/>
    </contour>
  </outline>
</glyph>
<glyph name="guillemetright.color3" format="2">
  <advance width="600"/>
  <unicode hex="00BB"/>
  <outline>
    <contour>
      <point x="135" y="66" type="line"/>
      <point x="311" y="270" type="line"/>
      <point x="311" y="271" type="line"/>
      <point x="213" y="271" type="line"/>
      <point x="36" y="69" type="line"/>
      <point x="36" y="66" type="line"/>
    </contour>
  </outline>
</glyph>
<glyph name="guillemetright" format="2">
  <advance width="501"/>
  <unicode hex="00BB"/>
  <outline>
    <contour>
      <point x="311" y="271" type="line"/>
      <point x="311" y="272" type="line"/>
      <point x="135" y="479" type="line"/>
      <point x="36" y="479" type="line"/>
      <point x="36" y="478" type="line"/>
      <point x="213" y="271" type="line"/>
    </contour>
    <contour>
      <point x="285" y="66" type="line"/>
      <point x="460" y="270" type="line"/>
      <point x="460" y="271" type="line"/>
      <point x="362" y="271" type="line"/>
      <point x="186" y="69" type="line"/>
      <point x="186" y="66" type="line"/>
    </contour>
    <contour>
      <point x="460" y="271" type="line"/>
      <point x="460" y="272" type="line"/>
      <point x="285" y="479" type="line"/>
      <point x="186" y="479" type="line"/>
      <point x="186" y="478" type="line"/>
      <point x="362" y="271" type="line"/>
    </contour>
    <contour>
      <point x="135" y="66" type="line"/>
      <point x="311" y="270" type="line"/>
      <point x="311" y="271" type="line"/>
      <point x="213" y="271" type="line"/>
      <point x="36" y="69" type="line"/>
      <point x="36" y="66" type="line"/>
    </contour>
  </outline>
</glyph>
